<?xml version="1.0" standalone="no"?>
<!DOCTYPE svg PUBLIC "-//W3C//DTD SVG 1.1//EN" "http://www.w3.org/Graphics/SVG/1.1/DTD/svg11.dtd" >
<svg xmlns="http://www.w3.org/2000/svg">
<metadata></metadata>
<defs>
<font id="avalonregular" horiz-adv-x="1597" >
<font-face units-per-em="2048" ascent="1638" descent="-410" />
<missing-glyph horiz-adv-x="409" />
<glyph horiz-adv-x="2048" />
<glyph horiz-adv-x="2048" />
<glyph unicode="&#xd;" horiz-adv-x="409" />
<glyph unicode=" "  horiz-adv-x="409" />
<glyph unicode="&#x09;" horiz-adv-x="409" />
<glyph unicode="&#xa0;" horiz-adv-x="409" />
<glyph unicode="!" horiz-adv-x="243" d="M-16 16q0 39 41 43q36 5 36 -34q-4 -37 -41 -41q-16 -2 -27 7t-9 25zM49 129q-10 2 2 68q33 166 135 389q90 195 162 293q48 63 60 59q8 -2 -9 -33q-55 -102 -157 -317q-82 -170 -164 -410q-18 -51 -29 -49z" />
<glyph unicode="&#x22;" horiz-adv-x="315" d="M246 809q14 33 49 127q18 39 35 35q36 -10 16 -45q-14 -31 -100 -117zM369 809q14 33 49 127q18 39 35 35q36 -10 16 -45q-14 -31 -100 -117z" />
<glyph unicode="#" horiz-adv-x="614" d="M-39 231q0 14 47 21q57 8 103 10q12 27 34 80q8 18 15 33q-41 0 -133 -6q-16 -4 -19 2q0 10 47 20q31 8 121 15q43 82 94 161q35 53 47 49q4 -2 -8 -26q-61 -123 -90 -182q14 2 47 2q76 0 109 -2q51 96 94 159q33 49 43 45q6 -2 -4 -22q-31 -61 -92 -187q47 -2 102 -12 q47 -8 39 -16q-4 -10 -33 -8q-98 6 -123 6q-4 -10 -14 -29l-37 -80q94 -8 123 -12q47 -8 39 -21q-4 -8 -37 -6q-45 4 -137 8q-41 -96 -78 -204q-16 -37 -22 -37q-8 0 2 53q14 74 59 191q-16 0 -47 2h-47q-43 0 -66 -2q-43 -102 -78 -207q-16 -37 -22 -37q-8 0 2 53 q14 74 59 191q-63 -4 -120 -7q-14 -2 -19 2zM152 266q23 2 65 2q61 0 94 -2q29 74 49 109q-70 4 -110 2q-14 0 -47 -2q0 -2 -15 -31z" />
<glyph unicode="$" horiz-adv-x="339" d="M-111 72q-8 53 41 102q10 10 31 21.5t23 7.5q0 -2 -13 -13q-18 -14 -32 -34q-25 -35 -17 -76q8 -39 39 -51q63 115 186 329q4 131 29 179q43 84 123 84h16q23 35 39 61l4 -18q-4 -8 -26 -48q33 -9 37 -34q10 -51 -47 -86q18 29 18 57q0 31 -18 45l-121 -205v-78 q-4 -152 -80 -239q-66 -72 -144 -72h-10q-25 -41 -45 -70l-4 21l31 51q-51 14 -60 66zM-23 23h11q72 0 113.5 79.5t45.5 212.5q-61 -109 -170 -292zM201 432q55 92 106 174h-10q-63 0 -86 -74q-10 -33 -10 -100z" />
<glyph unicode="%" horiz-adv-x="610" d="M-12 -139q-8 2 12 45q68 141 207 348q45 68 186 250q2 4 107 114q-57 -25 -142 -24q-63 0 -94 22q4 -6 8 -18q23 -88 -15 -170t-96.5 -134t-92.5 -46q-51 10 -52 92q0 41 17 86q43 121 155 182q33 18 37 10q0 -2 -12 -8t-20 -14q-90 -88 -130 -229q-25 -88 11 -103 q31 -12 84 53q61 74 92 191q16 61 0 102q-4 14 -29 39q-4 6 -2 8q4 4 25 -14q33 -31 116 -31q98 0 150 21q8 6 25.5 16t21.5 2q2 -2 -25 -20q-8 -8 -47 -58q-111 -139 -245 -335q-88 -127 -232 -353q-16 -29 -20 -24zM258 84q0 41 16 86q25 74 83.5 134.5t107.5 60.5 q61 0 61 -86q1 -50 -26 -109q-33 -76 -93.5 -130t-97.5 -48q-51 10 -51 92zM305 111q-25 -90 10 -103q33 -12 86 53q60 76 91 193q20 80 -17 94q-33 12 -88 -63.5t-82 -173.5z" />
<glyph unicode="&#x26;" horiz-adv-x="874" d="M35 143q-8 150 131 285q61 59 231 147q18 98 72.5 183.5t132.5 140.5q88 61 176 62q82 0 88 -74q6 -82 -174 -189q-76 -37 -243 -118q-25 -127 -15 -277q8 -123 37 -231q55 35 111 90q45 45 78.5 120.5t35.5 137.5q2 59 -8 96q-23 16 -63 57q-10 20 -2 27 q16 10 37.5 -8.5t29.5 -36.5q45 -35 109 -35q100 0 114 47q2 10 -6 21l-8 10q6 12 18.5 -3.5t12.5 -27.5q0 -80 -133 -80q-33 0 -90 23q20 -43 20 -90q-2 -66 -37 -146.5t-84 -130.5q-59 -59 -127 -100q25 -80 76 -158q72 -111 156 -110q16 0 30 6q8 2 11 0 q4 -4 -10.5 -12.5t-32.5 -10.5q-109 -8 -191 99q-59 76 -84 161q-78 -39 -186 -38q-203 0 -213 163zM94 141q10 -143 154 -143q94 0 178 45q-35 113 -43 238q-10 145 10 272q-115 -68 -180 -133q-129 -129 -119 -279zM455 604q125 55 217 113q178 111 176 170q-2 57 -70 57 q-78 0 -164 -70q-78 -63 -114 -143q-27 -51 -45 -127z" />
<glyph unicode="'" horiz-adv-x="196" d="M246 809q14 33 49 127q18 39 35 35q36 -10 16 -45q-14 -31 -100 -117z" />
<glyph unicode="(" horiz-adv-x="663" d="M121 92q0 250 112 471q193 373 467 586q201 156 314 203q31 12 33 6t-25 -19q-119 -59 -272 -192q-324 -281 -486 -639q-96 -213 -96 -473q0 -203 90 -371q18 -37 21 -35q-14 -10 -33 17q-125 170 -125 446z" />
<glyph unicode=")" horiz-adv-x="663" d="M-369 -377q-2 6 25 19q119 59 272 192q324 281 486 639q96 213 96 473q0 203 -90 371q-18 37 -21 35q14 10 33 -17q125 -170 125 -446q0 -250 -113 -471q-193 -373 -467 -586q-201 -156 -313 -203q-31 -12 -33 -6z" />
<glyph unicode="*" horiz-adv-x="710" d="M256 762q-6 20 61 41q49 8 162 35l-133 94q-45 31 -45 45q0 25 23 24q14 0 49 -39.5t108 -117.5l19 164q8 66 35 61q18 -2 18 -22q0 -12 -12 -52q-14 -45 -52 -155l150 67q41 18 53 19q15 -1 21 -15q10 -27 -64 -43q-45 -10 -157 -34q43 -31 133 -95q41 -31 41 -49 q0 -20 -23 -20q-14 0 -50 40t-106 117l-18 -163q-8 -68 -35 -64q-29 4 -6 76q12 43 51 155q-49 -20 -151 -69q-35 -16 -49 -17q-16 0 -23 17z" />
<glyph unicode="+" horiz-adv-x="542" d="M12 336q-6 20 41 31q57 12 162 14h16q31 70 50 98q61 98 73 82q4 0 -12 -24q-25 -39 -43 -82q-10 -23 -33 -74q78 -6 123 -14q96 -18 96 -45q0 -2 -24 4q-39 8 -94 12q-70 4 -113 4q0 -2 -1 -5t-3 -5q-33 -94 -45 -142q-8 -31 -15 -63q-4 -12 -12 -12q-12 0 -8 45 q6 57 43 166q2 6 6 16q-57 0 -129 -4q-78 -4 -78 -2z" />
<glyph unicode="," horiz-adv-x="190" d="M-98 -90q57 66 80 127q18 39 34 35q37 -10 17 -45q-12 -29 -58.5 -68t-72.5 -49z" />
<glyph unicode="-" horiz-adv-x="319" d="M2 317q57 16 174 43q82 17 90 5q16 -27 -65 -46q-143 -33 -199 -2z" />
<glyph unicode="." horiz-adv-x="169" d="M-49 16q0 39 41 43q37 5 37 -34q-4 -37 -41 -41q-16 -2 -27.5 7t-9.5 25z" />
<glyph unicode="/" horiz-adv-x="276" d="M-147 -260q-14 8 12 78q117 315 334 684q170 291 383 545q41 46 49 38q4 -4 -27 -45q-377 -494 -717 -1237q-31 -66 -34 -63z" />
<glyph unicode="0" horiz-adv-x="421" d="M-31 145q0 68 27 150q31 92 108 182q68 80 138 121q51 31 59 20q0 -2 -16 -10q-23 -12 -39 -28q-158 -164 -215 -383q-14 -59 -15 -99q0 -78 52 -78q59 0 139 109q90 123 135 305q25 94 -2 168q-20 45 -44 67.5t-22 24.5q18 10 58 -41q33 -44 41 -71q14 -45 14 -95 q0 -88 -45 -190q-53 -123 -146.5 -217t-150.5 -82q-76 16 -76 147z" />
<glyph unicode="1" horiz-adv-x="253" d="M-18 47q18 143 98 322q35 80 123 227q-39 -18 -86 -51q-12 -8 -43 -39q-25 -23 -27 -21q-6 6 19.5 35t63.5 51.5t116 67.5q14 10 18 4q4 -5 -6 -25q-41 -78 -121 -247q-90 -205 -131 -340q-12 -41 -18 -41q-14 2 -6 57z" />
<glyph unicode="2" horiz-adv-x="419" d="M-102 12q-6 16 39 35q31 14 55 19q33 20 53 34q72 49 168 170q111 137 111 246q0 90 -86 86t-132 -80q-33 -55 -24 -114q6 -39 35 -76q-35 20 -49 69q-16 51 14 127q57 109 170 115q131 6 131 -119q0 -28 -10 -61q-27 -92 -131 -209q-82 -90 -181 -164q-6 -4 -32 -20 q4 0 26 2h27q117 0 197 -33q49 -20 40 -35q-10 4 -32 10q-59 16 -176 17q-70 0 -164 -15q-47 -8 -49 -4z" />
<glyph unicode="3" horiz-adv-x="385" d="M-221 -47q27 -80 133 -80q70 0 133 39q80 49 119 145q25 61 24 111q0 84 -51 108q-31 -16 -55.5 -22t-24.5 -4q0 23 26 33t48 6q53 27 96 78q63 76 62 145q-2 90 -88 94q-72 4 -105 -33.5t-28 -74.5q4 -39 22 -58q-31 14 -39 52q-10 41 17 81q47 72 145 70 q131 -2 131 -119q0 -98 -98 -180q-31 -31 -96 -61q41 -10 67.5 -50t26.5 -96q0 -41 -19 -84q-41 -96 -139 -153q-88 -49 -178 -50q-53 0 -90 27t-39 76z" />
<glyph unicode="4" horiz-adv-x="458" d="M-70 127q-4 10 13 20q49 45 96 113q102 150 172 219q137 137 233 152q27 -2 52 -10q-25 -2 -62 -11q-96 -39 -219 -170q-16 -16 -149 -178q-33 -41 -95 -100q23 4 131 8q59 0 99 -2q20 59 41 106q63 150 145 256q33 41 41 33q6 -4 -22 -55q-47 -88 -97 -207 q-31 -74 -53 -135q49 -4 83 -12.5t30 -16.5q-2 0 -21 2q-45 6 -100 6q-55 -139 -90 -264q-12 -43 -19 -43q-8 0 -4 56q8 100 58 249q-53 0 -191 -14q-70 -8 -72 -2z" />
<glyph unicode="5" horiz-adv-x="360" d="M-219 -74q27 -55 117 -53q178 2 264 203q31 72 33 127q2 53 -24 81.5t-65 28.5q-29 0 -61 -14l-31 -41q-20 -20 -26 -16q-8 6 2 24.5t41 36.5q51 86 94 201q23 59 22 82q0 4 -8 9t-6 9q16 33 115 33q84 0 133 -21q25 -9 25 -32q-4 -25 -15 -21q0 2 2 7t2 12q0 12 -22 16 q-41 6 -90 6q-51 0 -82 -6q-8 -27 -43 -100q-55 -119 -103 -183q37 14 76 15q51 0 85 -40t34 -104q0 -53 -27 -114q-47 -111 -147 -170q-86 -51 -180 -49q-115 2 -115 73z" />
<glyph unicode="6" horiz-adv-x="421" d="M-18 156q0 68 26 147q45 131 146 258q74 92 167 148.5t173 56.5q41 0 53 -11.5t6 -17.5q2 2 -11.5 8.5t-47.5 6.5q-133 -2 -297 -222q-115 -154 -160 -321q-14 -55 -14 -98q0 -98 63 -99q45 0 92 53.5t74 153.5q18 66 18 109q0 80 -61 106q-37 16 -39 12q8 14 53 -2 q98 -35 99 -157q0 -43 -15 -86q-31 -90 -97.5 -147.5t-125.5 -57.5q-43 0 -72.5 43t-29.5 117z" />
<glyph unicode="7" horiz-adv-x="368" d="M-76 -170q-14 0 2 72q35 160 140 329q98 160 290 328q16 14 29 23q-86 4 -139 4t-111 -11q-27 -4 -42 -19t-30 -38l25 10l-37 -45q-12 -25 -22 -20q-6 2 12 37q16 29 47 90q8 20 14 22q12 10 56 13q43 2 135 -4q57 -4 115 -21q27 16 36 21q21 7 25 -3q2 -4 -35 -24 q-27 -14 -55 -45q-119 -127 -229 -285q-150 -211 -205 -385q-16 -49 -21 -49z" />
<glyph unicode="8" horiz-adv-x="401" d="M-37 119q0 55 29 123q37 84 176 207q-25 88 -8 153q35 135 182 135q53 0 87 -33.5t26 -39.5q-18 -12 -57.5 19.5t-57.5 31.5q-98 -4 -129 -103q-18 -57 0 -129q23 18 68 54q143 111 208 108q25 0 36 -14.5t7 -26.5q-16 14 -51 14q-66 0 -168 -79q-33 -25 -94 -76 q4 -16 35 -107q23 -63 20 -112q-2 -63 -26 -113q-31 -61 -84 -99t-96 -38q-100 0 -103 125zM2 102q0 -94 64 -94q76 0 131 119q24 54 24 109q0 63 -28 137q-8 23 -19 51q-100 -100 -149 -217q-23 -53 -23 -105z" />
<glyph unicode="9" horiz-adv-x="421" d="M-236 -115q12 6 40 -5t38 -11q231 0 389 338q98 211 99 325q0 90 -58 91q-84 0 -151 -146q-37 -80 -37 -166t66 -112q8 -4 21 -4t13 -2q0 -16 -49 -3q-106 29 -106 156q0 57 30 125q37 78 103 127q59 43 112 43q95 -2 95 -156q0 -125 -88 -303q-78 -156 -193 -242.5 t-244 -86.5q-31 0 -53 8q-41 14 -27 24z" />
<glyph unicode=":" horiz-adv-x="169" d="M-61 16q0 39 41 43q36 5 36 -34q-4 -37 -41 -41q-16 -2 -27 7t-9 25zM59 375q0 39 41 43q37 4 37 -35q-4 -37 -41 -41q-16 -2 -27.5 7t-9.5 26z" />
<glyph unicode=";" horiz-adv-x="190" d="M-106 -90q57 66 79 127q18 39 35 35q37 -10 17 -45q-12 -29 -58.5 -68t-72.5 -49zM59 375q0 39 41 43q37 4 37 -35q-4 -37 -41 -41q-16 -2 -27.5 7t-9.5 26z" />
<glyph unicode="&#x3c;" horiz-adv-x="727" d="M31 328q0 2 41 16q299 100 606 170q37 8 39 -2q2 -6 -31 -14q-399 -104 -571 -176q150 -106 381 -203q43 -18 41 -25q-4 -10 -54 6q-233 82 -432 209q-23 14 -20 19z" />
<glyph unicode="=" horiz-adv-x="522" d="M4 268q-6 23 37 30t141 9q78 2 167 -12.5t83 -28.5l-4 -4q-4 0 -102 6q-104 6 -121 6q-25 0 -70 -2t-61 -2q-68 -8 -70 -2zM41 369q-6 18 37 26q63 12 143 13q70 0 163 -12.5t85 -30.5q0 -4 -23 -3q-20 2 -84 7q-33 2 -120 4q-63 2 -131 -4t-70 0z" />
<glyph unicode="&#x3e;" horiz-adv-x="727" d="M-78 121q-2 6 31 14q399 104 571 176q-150 106 -381 203q-43 18 -41 25q4 10 54 -7q233 -82 432 -208q22 -15 20 -19q0 -2 -41 -16q-299 -100 -606 -170q-37 -8 -39 2z" />
<glyph unicode="?" horiz-adv-x="428" d="M-16 16q0 39 41 43q36 5 36 -34q-4 -37 -41 -41q-16 -2 -27 7t-9 25zM41 197q25 88 129 188q70 61 186 166q135 125 136 229q0 51 -30 85t-77 32q-82 -4 -131 -86q-29 -57 -23 -109q6 -51 27 -81q-35 29 -45 71q-14 59 16 125q49 109 170 115q63 4 104.5 -33.5 t41.5 -103.5q0 -131 -162 -269q-59 -47 -188 -159q-106 -104 -138 -183q-16 -43 0 -47t47 35q12 14 25 35q8 -23 -14 -47q-41 -43 -62 -33q-29 10 -12 70z" />
<glyph unicode="@" horiz-adv-x="1175" d="M51 219q8 246 166 426q240 274 571 264q172 -4 263.5 -90t91.5 -223q-1 -65 -21 -135q-49 -174 -213 -307q-100 -82 -202 -82q-55 0 -75 24.5t-14 69.5q10 66 95 260q-80 -137 -170 -233q-94 -102 -144 -97q-41 6 -41 68q0 68 47.5 173t143.5 202q104 102 176 102 q47 0 57 -37q2 2 17 27q16 16 28 14q18 -4 7 -24q-39 -88 -117 -279q-20 -55 -53 -176q-8 -41 8 -60q10 -12 47 -12q84 0 180 78q131 104 182 303q18 72 19 135q0 274 -314 281q-326 6 -540 -273q-135 -176 -142 -395q-4 -184 98.5 -283.5t301.5 -99.5q104 0 215 45 q104 43 172 109l49 47q12 -8 -41 -61q-68 -68 -174 -113q-113 -49 -221 -49q-221 0 -336 98q-123 102 -117 303zM399 162q0 -27 17 -29q43 -6 129 90q74 84 143 197q41 67 68 139q4 12 4 23q0 39 -41 39q-68 0 -146.5 -94.5t-138.5 -239.5q-35 -86 -35 -125z" />
<glyph unicode="A" d="M-203 -90q-2 8 -2 15q0 39 43 79q43 39 101 59q27 10 30 7q2 -4 -16 -13q-111 -43 -111 -118q0 -76 119 -76h12q248 6 670 344q174 139 348 313q-2 0 -45 19.5t-35 35.5q3 6 14 6q19 0 64 -18q10 -4 31 -12q248 250 496 592q-109 20 -336 67q-422 94 -682 121 q-47 4 -97 4q-152 0 -245 -41q-117 -52 -117 -160v-14q4 -53 76 -125q59 -57 129 -98q18 -14 16 -14q-4 -6 -29 6q-70 37 -137 90q-88 70 -104 125q-8 29 -8 53q0 197 446 197q47 0 90 -2q225 -14 688 -113q135 -29 324 -76q25 39 74 113q35 51 41 98q4 29 0 49q0 20 10 21 q10 0 14 -25q9 -60 9 -132.5t-9 -156.5q55 -14 154 -34q43 -9 43 -11q-2 -10 -47 -2q-88 14 -152 29q-59 -354 -135 -590q-57 -180 -176 -416q106 117 174 142q16 8 16 -4q0 -6 -12 -11q-18 -6 -23 -10q-57 -39 -141 -147q-49 -61 -96 -127q-18 -25 -21 -25q-14 0 -4 19 q16 35 39 86q80 174 185 499q63 197 88 293q45 164 61 299l-82 17q-244 -358 -477 -602q135 -41 360 -66q18 0 17 -4q0 -8 -33 -8q-156 4 -279 26q-55 10 -94 23q-131 -131 -344 -305q-195 -160 -403 -260q-193 -92 -318 -99q-15 -1 -28 -1q-130 0 -144 69zM1554 1159 q12 -2 35 -8t35 -10q13 76 21 174q-4 -16 -23 -47q-39 -66 -68 -109z" />
<glyph unicode="B" horiz-adv-x="1460" d="M23 131q2 84 79.5 155.5t165.5 84.5q14 4 15 -9q0 -6 -15 -6q-82 -18 -141 -82.5t-61 -138.5v-7q0 -124 141 -198q125 -65 302 -65h5q285 0 506 121q238 131 297 346q12 47 12 92q0 125 -92 225q-78 84 -182 117q-59 -23 -181 -55q-94 -25 -174 -29l-75 -150 q-76 -145 -181 -290q-116 -162 -158 -162h-1q-31 2 -25 49q6 20 20.5 36.5t22.5 12.5t6 -12q-6 -16 -10 -31q-6 -27 4 -26q12 0 31 26q162 229 315 549q-111 11 -111 49q0 3 1 6q16 55 176 80q88 172 217 430q-168 -12 -408 -12q-259 0 -259 99q0 7 1 16q10 53 125 90 q85 25 161 25q17 0 34 -1q51 -4 51 -10q0 -4 -33 -4h-15l-153 -18q-121 -31 -121 -97q0 -82 209 -82q20 0 420 19q20 33 60 84q10 6 18 14q16 10 20 6q0 -2 -22 -32q-10 -20 -37 -70q16 2 70 2h12q136 0 216 -44q83 -46 83 -144t-104 -195q-72 -70 -164 -113 q125 -47 204 -135q92 -100 93 -227q-1 -45 -13 -90q-57 -225 -321 -361q-242 -125 -547 -125q-193 0 -334 70q-155 80 -155 209v8zM586 731q-6 -31 69 -31q16 33 47 99q-115 -23 -116 -68zM711 702q120 2 313 74q-84 29 -213 33q-29 0 -51 -2q-18 -35 -49 -105zM770 825 q14 2 43 2q131 0 246 -32q86 37 151 104q81 84 93 184q1 10 1 19q0 69 -67 110q-68 41 -176 41q-63 0 -88 -2q-74 -150 -203 -426z" />
<glyph unicode="C" horiz-adv-x="1490" d="M-2 274q23 346 405 668q184 154 414 254q211 92 381 104q33 2 68 3q274 -1 307 -140q6 -23 6 -45q0 -109 -125 -184q-115 -70 -260 -70q-98 0 -168 31q-51 25 -80 61q-23 31 -16 39l24 -24q33 -35 80 -56q66 -30 154 -30h6q125 0 221 59q106 68 107 172q0 20 -4 43 q-27 123 -263 123q-33 0 -67 -2q-152 -14 -336 -96q-211 -94 -393 -252q-377 -326 -396 -660q-1 -16 -1 -32q0 -183 131 -273q125 -86 367 -87q11 0 22 1q311 6 577 154q213 119 242 297q4 31 0 59q-2 10 -8 27q-4 8 0 10q20 4 32.5 -36t12.5 -62q-8 -174 -271 -318 q-268 -147 -585 -155q-23 -1 -44 -1q-260 0 -397 89q-144 95 -144 291q0 18 1 38z" />
<glyph unicode="D" horiz-adv-x="1873" d="M35 1266q0 78 137 116q88 28 170 28q15 0 29 -1q74 -4 74 -17q0 -1 -1 -3q0 2 -53 4q-12 1 -24 1q-74 0 -150 -22q-123 -33 -123 -102q0 -90 223 -90q258 0 701 45l33 49l-37 -6q59 49 92 84q23 25 31 22q8 -2 -11 -37q-16 -25 -71 -108q78 6 153 6q326 0 498 -109 q188 -119 188 -383v-7q0 -83 -22 -169q-74 -289 -305 -514q-209 -203 -516 -203q-190 0 -381 119q-137 84 -312 258q-49 -66 -114.5 -185.5t-89.5 -184.5q-12 -35 -13 -35q-16 0 0 55q45 145 191 379q-61 78 -109 125q-33 -16 -65 -96q-76 -188 -78 -314v-13q0 -102 31 -153 l12 -22l-33 31q-37 59 -37 161q0 170 74 344q35 82 63 87q20 2 50 -7q20 -6 118 -104q90 154 265 401q137 180 376 504q-162 -14 -323 -31q-195 -16 -361 -18h-16q-99 0 -170 23q-94 31 -94 92zM385 268q66 -66 170 -151q293 -242 504 -242q156 0 260 43q115 47 227 166 q172 180 262 489q27 92 27 187q0 233 -150.5 340.5t-488.5 107.5q-76 0 -158 -6q-289 -428 -372 -543q-94 -123 -281 -391z" />
<glyph unicode="E" horiz-adv-x="1275" d="M29 33q0 4 2 6l19 -21q20 -20 52 -32q49 -20 121 -21q180 0 322 123q-127 94 -193 137q-152 106 -198 117q-41 10 -41 -10q0 -37 73 -111q86 -84 185 -108q-115 4 -201 84q-76 68 -76 127q0 20 12 28q28 20 58 20q14 0 29 -5q86 -29 387 -248q123 123 307 467 q-31 10 -80 26q-41 14 -29 37q6 12 56 -4q35 -12 69 -24q31 57 105 200q70 137 186 363q-207 59 -432 84q-45 4 -92 4q-154 0 -252 -45q-135 -61 -135 -197q0 -58 63 -135q53 -66 117 -109q14 -14 14 -16q-2 -8 -26 8q-201 129 -220 238q-4 20 -4 39q0 135 166 196 q117 43 293 43q55 0 98 -4q242 -25 428 -73q70 127 127 188q36 38 52 38q2 0 4 -1q2 -2 -31 -39q-43 -49 -115 -195q289 -78 449 -190q26 -19 26 -28q0 -3 -2 -5q2 2 -26 19q-90 53 -463 170q-51 -111 -172 -365q-61 -123 -105 -203q80 -18 158 -33q156 -29 234 -30 q18 0 16 -6q-2 -8 -35 -9q-166 0 -391 45q-170 -311 -338 -469q51 -37 152 -108q385 -272 634 -272q170 0 244 126q8 18 15 17q6 -2 -7 -29q-20 -49 -73 -90q-78 -59 -187 -59q-195 0 -430 129q-129 70 -383 256q-170 -139 -348 -140q-100 0 -151 41q-37 27 -37 58z" />
<glyph unicode="F" horiz-adv-x="1239" d="M135 121q47 27 49 14q-6 -4 -45 -29q-115 -74 -116 -157q-2 -45 33.5 -77t90.5 -32q340 0 748 746q-31 8 -64 20q-39 16 -30 41q6 8 16 6q33 -12 64 -22q10 -2 32 -10q104 207 289 559q-223 68 -440 90q-43 4 -90 4q-152 0 -252 -45q-133 -61 -137 -195v-4q0 -58 63 -135 q53 -66 117 -109q14 -14 14 -16q-2 -8 -26 8q-201 129 -220 238q-4 20 -4 39q0 135 166 196q117 43 293 43q55 0 98 -4q254 -27 437 -78q63 115 114 170q30 32 45 32q2 0 4 -1q2 -2 -24 -33q-43 -51 -107 -176q307 -86 445 -186q26 -19 26 -28q0 -3 -2 -5q2 2 -26 19 q-96 57 -459 165q-76 -174 -268 -565q119 -29 184 -39q84 -14 248 -33q20 -2 16 -6q-2 -8 -37 -8q-139 0 -290 25q-80 12 -138 28q-145 -268 -334 -473q-261 -282 -483 -282h-2q-69 0 -111 32q-41 30 -40 79q0 107 153 194z" />
<glyph unicode="G" horiz-adv-x="1478" d="M0 307q0 375 393 701q174 143 422 229q211 72 387 78q23 1 44 1q298 0 298 -132q0 -92 -114 -154q-96 -51 -199 -53h-10q-71 0 -119 25q-51 28 -39 40q2 2 20.5 -10t24.5 -14q52 -19 115 -19h6q90 2 170 48q92 53 92 133q0 112 -267 112h-32q-162 -2 -363 -75 q-242 -86 -407 -236q-360 -322 -361 -676q0 -162 114 -253t312 -91q33 0 66 2q291 23 537 199q133 96 225 233q43 66 76 150q16 43 28 35t13 -25q0 -27 -17.5 -58.5t-36.5 -58.5q-53 -135 -139 -348q31 16 61 31q49 23 86 31q10 4 13 -2q0 -6 -6 -11q-33 -14 -90 -41 q-41 -20 -78 -45q-78 -182 -146 -295q-45 -78 -116.5 -146.5t-106.5 -68.5q-24 0 -24 32q0 10 2 22q18 106 124 247q86 113 226 219q51 111 116 277q-78 -117 -198 -205q-269 -194 -619 -194h-4q-217 0 -344 90q-135 96 -135 276zM885 -360q-6 -24 -6 -38t6 -18q4 -1 8 -1 q20 0 47 34q61 74 98 141q57 105 127 265q-100 -74 -188 -193q-66 -90 -92 -190z" />
<glyph unicode="H" horiz-adv-x="1849" d="M108 270q94 127 257 226q123 74 319 120q188 45 363 46q27 0 161 -5q57 94 105 193q90 188 135 328q-117 27 -246 61q-121 33 -192 49q-129 29 -244 39q-21 2 -41 2q-90 0 -162 -37q-117 -59 -117 -202v-19q4 -59 56 -137q41 -61 88 -100q14 -14 12 -19q-2 -6 -20 8 q-166 123 -187 230q-6 31 -6 57q0 150 164 209q93 33 215 33h14q135 -2 439 -84q82 -23 233 -68q6 35 4 57q-2 12 2 17q8 4 14.5 -25.5t4.5 -56.5q47 -12 123 -35q33 -4 32 -10q-2 -6 -35 -4q-47 8 -122 28q-16 -127 -107 -325q-47 -102 -104 -193q72 -6 221 -24 q117 -18 244 -60q33 96 104 262q84 193 109.5 260.5t72.5 178.5q4 14 31 20q4 0 4 -16q-18 -52 -51 -154q-96 -299 -207 -540q-4 -8 -12 -27q29 -12 82 -35q20 -10 18 -14q-2 -6 -27 4q-51 20 -81 29q-74 -158 -230 -418q117 127 197 155q16 6 16 -4q0 2 -39 -22 q-68 -43 -168 -162q-59 -70 -116 -143l-29 -29q-12 4 0 23l55 96q127 221 262 520q-94 29 -235 51q-123 20 -236 27q-174 -283 -370 -469q-145 -139 -308 -232q-193 -110 -341 -110h-3q-217 0 -217 191q0 129 96 259zM37 5q0 -167 196 -167q246 0 619 348q162 152 342 449 q-59 2 -141 2q-164 0 -348 -45q-205 -47 -324 -125q-344 -223 -344 -462z" />
<glyph unicode="I" horiz-adv-x="829" d="M-45 1118q0 145 162 201q91 33 209 33h14q135 -2 442 -84q25 -6 236 -68q6 35 2 57q-4 12 0 17q8 2 16 -26.5t6 -53.5q18 -6 62 -18l35 -11q-2 -8 -35 -6q-41 8 -64 12q-12 -141 -110 -374q-150 -354 -369 -635q-164 -211 -280 -307q-74 -61 -125 -62q-51 0 -52 80 q0 133 91 238q14 16 47 41q-18 -23 -33 -50q-74 -147 -74 -249q0 -41 27 -41q43 0 102 55q131 125 262 315q211 307 346 619q92 213 142 377q-100 20 -248 61q-258 72 -440 88q-21 2 -41 2q-90 0 -160 -37q-110 -57 -110 -193q0 -13 1 -28q4 -59 60 -137q43 -61 90 -100 q14 -18 14 -19q-2 -6 -22 8q-172 127 -195 230q-8 35 -8 65z" />
<glyph unicode="J" horiz-adv-x="1124" d="M-152 -348q-2 119 355 282q113 51 274 111q154 53 307 107q53 74 136 219q109 188 217 432q100 221 139 377q-160 31 -217 41q-147 20 -287 22h-17q-214 0 -317 -49q-165 -79 -165 -296q0 -15 1 -30q2 -59 54 -137q43 -61 88 -100q14 -14 12 -19q0 -4 -18 9 q-55 35 -109 96q-70 74 -80 133q-8 43 -8 82q0 342 612 342q152 0 455 -72v14q0 27 6 60h1q7 0 15 -26q7 -29 5 -54q18 -6 61 -18q29 -10 29 -16q0 -5 -8 -5q-29 6 -84 17q-25 -166 -115 -375q-104 -242 -221 -445q-61 -106 -111 -180q59 23 182 80q14 8 29 22q8 10 12 9 q3 -2 3 -6q0 -14 -49 -45q-62 -39 -201 -95q-86 -125 -199 -239q-121 -121 -297 -217q-201 -109 -350 -109q-137 0 -140 78zM-119 -348q4 -61 109 -62q29 0 67 7q119 18 272.5 107t268.5 212q90 97 164 203q-180 -66 -543 -215q-135 -61 -229 -127q-111 -78 -109 -125z" />
<glyph unicode="K" horiz-adv-x="1400" d="M-12 -127q0 2 24 -14q35 -23 94 -23q176 0 359 211q158 184 362 582q104 217 281 557q-399 141 -698 149h-21q-109 0 -182 -39q-117 -59 -117 -208v-19q2 -63 53 -143q41 -66 88 -109q14 -10 13 -18q-2 -8 -19 8q-168 127 -188 240q-6 33 -6 61q0 252 393 252 q158 0 430 -62q109 -25 264 -94q37 61 78 107q46 50 63 50q4 0 7 -3q4 -2 -9 -12q-23 -20 -36 -37q-39 -49 -74 -117q14 -4 37 -16q31 -14 30 -21q-2 -8 -34 4q-12 6 -41 15q-61 -150 -256 -564q-180 -356 -377 -567q-217 -236 -408 -240h-7q-47 0 -77 27q-27 24 -27 38 q0 3 1 5zM963 655q4 12 30 37q193 166 463 348q154 102 225 140q103 51 181 51q15 0 30 -2q82 -11 86 -99q2 -10 2 -20q0 -13 -3 -25q-5 -22 -13 -22q2 0 -10 45q-16 61 -76 74q-23 4 -47 4q-125 0 -363 -162q-223 -154 -436 -344q-29 -25 -31 -39q-2 -6 17 -55 q68 -188 172 -389q127 -248 219 -357q132 -159 275 -159h2q84 0 139 49q49 43 63 112q6 31 8 31q14 0 14 -31q0 -14 -3 -35q-10 -70 -77 -108.5t-149 -38.5q-170 0 -311 152q-100 106 -231 354q-94 178 -168 428q-10 33 -10 50q0 7 2 11z" />
<glyph unicode="L" horiz-adv-x="747" d="M12 -27q8 242 129 387q51 63 80 66q25 2 47 -6q14 -4 78 -96q166 303 336 528q162 213 340 354q207 164 356 164q104 0 162 -57q45 -47 45 -114v-11q-6 -88 -76 -154q-10 -10 -16 -2q2 -2 12 17q43 59 43 127q0 149 -172 149h-2q-170 0 -330 -133q-129 -109 -325 -377 q-213 -291 -352 -520q90 -123 235 -275q328 -342 545 -342q137 0 203 107q12 23 18 18q10 -8 -2 -22q-80 -145 -219 -146q-233 0 -563 334q-96 98 -238 291q-113 -188 -207 -403l-18 -41q-10 6 8 61q63 184 197 412q-47 76 -80 112q-35 -14 -76 -73q-125 -178 -129 -387v-24 q0 -57 8 -91q2 -12 21 -47q-27 10 -41 55q-17 54 -17 130v9z" />
<glyph unicode="M" horiz-adv-x="1941" d="M-264 -109q-2 8 -2 16q0 41 43 85q47 45 100 59q33 8 35 6q2 -4 -16 -12q-53 -20 -90 -63q-29 -34 -29 -65q0 -8 2 -17q14 -59 125 -60q326 0 932 592q324 315 606 762q-61 10 -197 33q-354 59 -375 61q-205 31 -366 35q-21 1 -40 1q-142 0 -245 -38q-161 -57 -161 -192 q0 -9 1 -19q4 -57 74 -127q61 -63 129 -94q25 -8 23 -14q2 2 -31 8q-72 25 -148 82q-84 63 -98 121q-8 31 -8 59q0 141 199 201q113 32 251 33q37 0 76 -3q313 -16 754 -88q63 -10 178 -30q45 70 74 135q12 29 37 104q6 19 13 19h1q8 0 2 -29q-14 -72 -57 -242 q162 -27 248 -30l47 -2q0 -12 -49 -13q-106 0 -252 19q-31 -145 -113 -453q-57 -193 -168 -457q-61 -147 -115 -247q59 59 199 200q88 94 178 191q111 123 203 239q168 215 309 426q37 55 66 95q16 20 26 16q11 -3 11 -23q0 -31 -31 -122q-76 -229 -189 -510 q-86 -213 -208 -443q113 127 182 150q10 2 16 -4q-10 -6 -33 -21q-66 -43 -151 -155q-37 -45 -107 -136q-14 -29 -22 -28q-12 2 -4 22l47 90q53 109 221 529q94 197 254 596q10 29 6 28q-2 2 -16 -18q-25 -37 -43 -66q-98 -162 -314 -440q-74 -94 -374 -422 q-80 -74 -240 -231q-28 -71 -52 -71q-2 0 -5 1q-20 4 10 55q8 14 31 41q41 98 104 277q90 252 152 457l133 438l-21 2q-289 -473 -673 -846q-262 -254 -519 -397q-229 -127 -376 -129h-7q-136 0 -153 73zM1479 1219l14 -2q9 22 23 71q-4 -6 -18.5 -33.5t-18.5 -35.5z" />
<glyph unicode="N" d="M-119 -41q2 29 23 64q16 27 24 32q-14 -45 -14 -92q2 -115 143 -127q19 -2 39 -2q382 0 807 621q215 315 273 491q15 46 15 83q0 35 -13 63q-141 311 -496 311q-156 1 -260 -105q-95 -97 -94 -241v-25q12 -238 192 -317q23 -8 21 -13q-6 -8 -33 3q-100 41 -150 96 q-76 84 -82 235v15q0 155 120 261q126 112 306 111q375 0 539 -344q61 -129 100 -377q29 -184 33 -389q0 -10 1 -19q0 -108 -21 -243q16 57 55 178q47 119 182 426q104 219 185 346q88 139 176 195q39 25 90 27h8q47 0 68 -21q-6 2 -45 -2q-57 -8 -105 -39 q-74 -47 -182 -217q-70 -109 -166 -303q-117 -236 -195 -426q-41 -98 -73 -203q-35 -112 -56 -112h-2q-6 1 -6 10q0 16 17 55q8 14 22 51q9 52 9 132q0 70 -7 161q-14 190 -49 414q-27 168 -70 291q0 -25 -12 -70q-63 -227 -260 -518q-205 -303 -461 -475 q-225 -151 -406 -151q-13 0 -26 1q-165 11 -165 143q0 7 1 15z" />
<glyph unicode="O" horiz-adv-x="1196" d="M61 176v21q0 239 129 473q45 82 109 161q-35 68 -37 148v14q0 151 129 260t311 113h13q379 0 475 -336q14 -47 -10 -51q-8 0 -27 51q-6 25 -35 74q-53 63 -164 67h-23q-152 0 -276 -73q-168 -100 -303 -279q57 -98 168 -139q23 -8 21 -12q-6 -8 -33 2q-113 39 -178 118 q-33 -47 -94 -143q-144 -253 -144 -452v-21q6 -143 92 -222t228 -79q176 0 350 137q145 113 262 297q227 360 227 633q0 262 -235 412q-12 4 -6 10q8 6 18 -2q78 -41 143 -121q83 -100 103 -217q10 -55 10 -115q0 -301 -209 -622q-111 -170 -276 -291q-197 -141 -383 -142 q-154 0 -252 86.5t-103 239.5zM309 979q4 -55 21 -111q126 148 288 240q146 83 302 83q17 0 34 -1q93 -6 154 -49q-57 92 -164 147q-115 60 -257 60h-5q-156 -2 -268 -108q-105 -99 -105 -241q-1 -10 0 -20z" />
<glyph unicode="P" horiz-adv-x="1234" d="M-25 -86q0 168 121 295q29 31 59.5 52.5t32.5 17.5q16 -16 -28 -48q-25 -14 -49 -30q-92 -139 -93 -312q0 -72 21 -75h3q28 0 93 61q147 141 453 717q-20 16 -60 45q-49 45 -49 70q0 4 2 6q2 0 17 -19q20 -27 41.5 -44t56.5 -42q20 35 109 207q76 145 206 391 q-111 4 -354 21q-125 12 -166 22q-74 21 -74 67v7q6 53 113 80q71 19 147 19q17 0 33 -1q49 -2 49 -10t-32 -6q-25 1 -48 1q-205 0 -219 -81q-8 -59 201 -76q113 -6 361 -24q63 102 107 150q35 38 50 38q4 0 6 -2l-30 -43q-59 -82 -94 -147q27 -2 96 -11q456 -55 456 -298 q0 -44 -16 -95q-55 -178 -237 -260q-134 -57 -318 -57h-24q-158 4 -285 67q-301 -537 -483 -702q-78 -70 -115 -70h-6q-53 10 -54 119zM643 586q127 -61 275 -64h11q406 0 513 299q16 47 16 90q0 229 -409 281q-63 8 -97 10q-57 -119 -194 -399q-57 -117 -115 -217z" />
<glyph unicode="Q" horiz-adv-x="1175" d="M-170 -524q-1 2 -1 3q0 6 9 15q49 61 139 117q156 94 359 164q119 68 186 116q258 190 461 439q332 403 332 680q0 19 -2 37q-10 115 -88 172q-61 47 -152 51h-21q-169 0 -366 -123q-240 -150 -418 -436q-205 -332 -213 -531v-17q0 -202 183 -202q156 0 362 152 q244 178 301 350q6 20 6 39q0 16 -4 35q-4 12 -2 12q2 1 5 1q20 0 20 -52q0 -23 -8 -47q-18 -63 -78 -148q-82 -121 -213 -215q-203 -147 -385 -147q-217 0 -217 230v13q6 264 192 545q199 299 445 440q202 117 387 117h24q270 -10 270 -289q0 -326 -313 -692 q-193 -225 -430 -395q-53 -39 -197 -119q207 53 412 53q115 0 193 -37q92 -43 92 -128v-7q-2 -20 -23.5 -46.5t-27.5 -16.5q-2 2 11 15.5t17 23.5t4 24q0 66 -88 105q-76 35 -178 35q-221 0 -444 -58q-12 -4 -49 -14q-106 -80 -277 -164q-98 -47 -197 -94q-20 -4 -18 -6z M-121 -481q207 86 395 207q-170 -61 -288 -132q-49 -29 -107 -75z" />
<glyph unicode="R" horiz-adv-x="1173" d="M-45 -139q0 139 100 250q18 20 49 41q-12 -14 -34 -50q-84 -180 -84 -262q0 -25 12 -26h5q29 0 91 61q147 145 453 715q-37 16 -60 37q-61 43 -61 82q0 6 4 12q12 14 45 14q66 0 127 -41q72 145 146 291q86 168 159 283q-128 18 -277 18h-30q-571 -4 -571 -269 q0 -15 2 -30q6 -59 82 -129q61 -57 131 -92l16 -16q-2 -10 -29 6q-227 100 -249 205q-6 29 -7 55q0 178 263 252q158 43 368 43q145 0 314 -25q30 43 70 91q31 37 46 37q4 0 8 -3q4 -4 -30 -43q-23 -27 -60 -88q49 -10 136 -33q319 -102 319 -313q0 -45 -16 -92 q-55 -168 -240 -256q-143 -67 -310 -67q-18 0 -36 1q-18 0 -39 4q51 -90 172 -307q152 -264 240 -364q133 -152 276 -152q84 0 139 49q49 43 64 113q6 31 8 31q13 0 13 -29q0 -15 -3 -37q-10 -70 -76.5 -108.5t-148.5 -38.5q-172 0 -322 153q-109 111 -241 352 q-63 133 -180 346q-59 12 -115 35q-299 -532 -485 -702q-78 -70 -115 -70h-6q-33 6 -33 66zM451 705q0 -27 49 -66q18 -14 55 -33q6 10 17.5 31t15.5 31q-70 55 -111 55q-27 0 -26 -18zM602 584q45 -19 92 -29q-31 43 -65 78q-4 -8 -13.5 -24.5t-13.5 -24.5zM643 662 q59 -51 109 -117q33 -4 55 -4h9q169 0 310 73q158 84 207 234q16 47 17 90q0 182 -269 287q-53 20 -137 37q-12 -23 -227 -459q-41 -84 -74 -141z" />
<glyph unicode="S" horiz-adv-x="1644" d="M-35 170q16 170 166 330q139 150 342 237q248 109 547 109q119 0 203 -37q97 -44 96 -119v-12q-14 -147 -293 -285q-205 -100 -371 -100q-78 0 -78 33q0 3 1 6q2 45 67 60q25 6 27 -11q0 -4 -25.5 -11.5t-32.5 -11.5q-18 -11 -19 -25q0 -17 60 -18q129 0 349 107 q279 135 288 262v9q0 122 -276 122q-250 0 -520 -119q-203 -88 -340 -223q-154 -152 -168 -305l-2 -28q0 -133 123 -199q109 -59 286 -60q385 0 834 283q463 293 481 584v15q0 113 -117 157q-78 29 -231 29q-31 0 -64 -1h-32q-131 0 -222 29q-121 38 -121 121q0 6 1 12 q10 119 190 190q146 56 311 56h27q217 -8 211 -56q-2 -27 -49 -26q-25 0 -25 8l17 16q20 4 20 13q0 14 -174 16h-12q-168 0 -318 -55q-172 -63 -180 -156q0 -3 -1 -6q0 -115 357 -115h4q432 0 431 -234v-13q-8 -156 -154 -336q-129 -160 -322 -289q-406 -270 -864 -270 q-186 0 -301 67q-129 76 -129 217q0 16 2 33z" />
<glyph unicode="T" horiz-adv-x="1185" d="M-84 72q0 47 14 78q16 25 21 22q2 0 -8 -37q-2 -12 -2 -26q0 -88 57 -160q86 -106 276 -107q141 0 304 101q150 92 272 239q209 252 395 654q111 240 141 372q-367 90 -571 95h-13q-148 0 -263 -43q-156 -61 -156 -190q0 -15 2 -30q14 -117 203 -237q16 -14 14 -19 q-2 -4 -24 9q-217 125 -244 229q-8 31 -8 59q0 147 213 207q120 33 279 33h18q285 -4 555 -74q0 27 -5 56q-2 12 5 14h1q13 0 17 -74q215 -59 399 -153q60 -31 58 -39l-62 22q-238 90 -395 129q-2 -43 -31 -153q-37 -139 -88 -252q-164 -362 -391 -633q-111 -133 -285 -232 q-186 -108 -341 -108h-3q-229 0 -311 108q-43 55 -43 140z" />
<glyph unicode="U" horiz-adv-x="1497" d="M20 41l25 -8q14 -4 35 -4q113 0 268 108q-37 33 -65 62q-55 57 -148 141q-24 19 -43 19q-10 0 -18 -5q-8 -4 -8 -20q0 -37 30 -78q37 -49 94 -68q-66 6 -106 56q-35 41 -35 86q0 29 17 39q12 11 30 10q22 0 53 -14q58 -27 156 -123q35 -35 86 -78q51 39 84 69 q188 184 327.5 441.5t143.5 425.5v11q0 214 -225 218h-3q-163 1 -343 -191q-182 -194 -182 -345q0 -94 92 -95q66 0 135 31q27 12 29 10q6 -10 -25 -24q-76 -35 -139 -35q-47 0 -81 28.5t-36 82.5v8q0 167 168 350q182 199 389 199h4q121 -2 192.5 -68t73.5 -172v-11 q0 -197 -133 -444q-117 -217 -352 -430q-43 -39 -96 -78q246 -217 399 -217q250 0 518 447q70 166 144 317q135 276 213 385q104 145 204 160q14 2 23 0q8 -2 6 -8q-20 -4 -53 -17q-72 -35 -158 -163q-72 -109 -154 -287q-133 -291 -221 -504q-57 -137 -121 -299 q53 59 117 82q10 2 17 -2q0 -4 -13 -10q-18 -6 -24 -13q-47 -39 -86 -86q-76 -94 -84 -94q-26 0 -11 41q49 127 164 410q-233 -385 -489 -385q-217 0 -438 217q-160 -109 -277 -109q-29 0 -49 8q-22 10 -22 19q0 2 1 4z" />
<glyph unicode="V" horiz-adv-x="1216" d="M-35 770q-1 11 -1 23q0 122 79 249q74 121 195 213q174 131 392 131h19q106 -2 187.5 -70.5t91.5 -166.5q4 -43 4 -88q0 -168 -109 -459q-43 -113 -150.5 -303t-207.5 -330q-41 -58 -41 -65q0 -2 3 -1q11 0 65 36q248 168 487 395q154 145 367 405q37 45 67 88 q-35 72 -35 152q0 94 47 172q29 49 87.5 88t103.5 39q49 0 49 -49q0 -51 -43 -133q-80 -154 -180 -293q18 -41 37 -70q-27 27 -45 58q-12 -18 -58 -76q-117 -150 -381 -400q-287 -270 -573 -444q-46 -28 -62 -28q-4 0 -6 1q-1 1 -1 3q0 13 38 71q238 356 375 713 q113 293 113 463q0 264 -232 274h-21q-174 0 -345 -127q-131 -96 -211 -219q-81 -122 -81 -230q0 -10 1 -20q6 -94 98 -94q55 0 131 31l29 10q6 -6 -23 -23q-66 -37 -135 -37q-119 0 -125 111zM1411 956q0 -55 16 -110q109 143 195 313q23 35 23 68q0 30 -37 30 q-78 0 -162 -149q-35 -59 -35 -152z" />
<glyph unicode="W" horiz-adv-x="2152" d="M-33 770v14q0 131 107 277q96 131 225 209q181 111 369 110h28q111 -4 183 -63q76 -66 79 -172q1 -17 1 -34q0 -124 -39 -251q-31 -100 -109 -258q-111 -223 -383 -561q217 141 418 330q231 215 364 379q78 96 164 241q31 94 76 180q23 41 41 35q18 -4 6 -39 q-10 -29 -96 -180q-66 -201 -66 -577q0 -254 56 -377q61 -133 198 -139h10q156 0 285 182q121 170 156 395q10 61 10 125q0 309 -174 416q-45 18 -125 57q-18 10 -14 23q2 4 30 0q100 -18 148 -74q47 -23 104 -45q164 -61 297 -62q96 0 150.5 42t54.5 110q0 25 -10 53 q-6 16 -2 19q6 4 16 -15q15 -24 17 -57q1 -10 1 -19q-1 -73 -57 -117q-64 -50 -170 -50q-119 0 -303 77q-37 16 -78 39q8 -10 27 -30q131 -154 131 -392q0 -51 -8 -102q-33 -217 -166 -399q-144 -195 -315 -195h-13q-317 16 -317 531q0 211 78 505q-47 -78 -125 -178 q-121 -156 -373 -389q-82 -76 -233 -192q-158 -121 -244 -175q-66 -80 -146 -165q-24 -19 -29 -19h-1q-8 2 6 33q37 80 137 160q264 342 412 645q78 160 108 252q42 126 42 238q0 18 -1 36q-12 197 -211 205h-17q-166 0 -339 -109q-141 -90 -240 -215q-106 -137 -106 -255 v-11q4 -90 90 -94h7q52 0 114 27l12 4q29 12 31 8q6 -8 -25 -23q-76 -35 -133 -35h-6q-109 4 -115 111z" />
<glyph unicode="X" horiz-adv-x="1267" d="M45 240q0 29 18 41q11 9 28 9q23 0 56 -16t179 -131q37 -29 80 -61q51 33 92 68q113 94 217 209.5t334 367.5q0 178 -21 305q-49 307 -276 307q-195 0 -394 -176q-227 -203 -227 -391q0 -43 26.5 -68.5t65.5 -25.5q72 0 133 29l31 10q8 -8 -25 -23q-76 -35 -139 -35 q-117 0 -117 111q0 225 213 410q205 176 435 176q156 0 245 -101q66 -76 84 -188q23 -143 23 -285q199 213 338 322q172 136 304 136q11 0 21 -1q55 -4 91 -45q28 -30 28 -53q0 -9 -2 -11l-26 29q-33 33 -91 37q-11 1 -22 1q-137 0 -285 -115q-160 -124 -356 -337 q0 -168 -16 -327q-23 -225 -62 -340q59 113 150 141q18 10 18 -2q0 2 -35 -20q-49 -33 -108 -113q-23 -35 -74 -113q-18 -25 -21 -24q-14 0 -4 18q12 27 23 62q20 74 57 395q14 123 15 268q-100 -113 -320 -356q-94 -104 -203 -195q-55 -47 -98 -73q86 -59 109 -72 q70 -37 127 -39h9q140 0 199 119q10 20 17 16q6 -4 -10 -39q-61 -123 -222 -123q-109 0 -270 113q-129 -76 -217 -76q-35 0 -61.5 12.5t-18.5 24.5q0 2 23.5 -7t54.5 -9q78 0 197 71q-25 18 -66 52q-66 59 -164 141q-30 22 -49 22q-8 0 -14 -4t-6 -18q0 -31 26 -76 q33 -51 74 -76q-55 14 -90 62q-31 39 -31 80z" />
<glyph unicode="Y" horiz-adv-x="1341" d="M-133 -649q0 4 2 6q-4 -4 31 -23q43 -24 130 -24h7q350 0 653 297q295 289 576 889q51 109 157 342q-211 -358 -514 -625q-268 -233 -446 -289q-27 -8 -46 -8t-30 8q-15 11 -15 33q0 23 17 59q12 23 153.5 246t213.5 369q150 307 150 496q0 16 -1 30q-12 197 -211 205 h-17q-166 0 -339 -109q-143 -90 -242 -215q-108 -135 -108 -252v-14q4 -90 94 -94h6q57 0 129 33q27 12 27 10q4 -8 -23 -23q-74 -39 -139 -39q-109 0 -115 111v15q0 130 101 270q90 127 217 205q195 121 385 121q13 0 26 -1q129 -4 200 -88q67 -80 67 -201v-14 q-4 -201 -152 -475q-78 -143 -356 -565q-34 -49 -34 -72q0 -6 3 -10q6 -11 23 -11q19 0 51 15q162 70 403 281q309 270 545 678q23 80 76 180q23 43 39 35q13 -3 13 -17q0 -9 -5 -22q-25 -68 -96 -181q-86 -262 -185 -479q-236 -514 -577 -840q-351 -333 -680 -333h-2 q-74 0 -123 37q-39 29 -39 53z" />
<glyph unicode="Z" horiz-adv-x="901" d="M-16 -57q0 92 59 229q49 109 109 193q70 96 100 100q25 2 47.5 -5t81.5 -114q178 211 412 451q219 225 395 374q-100 47 -203 80q-109 37 -151 47q-92 27 -191 39q-31 4 -65 4q-283 0 -283 -218q0 -53 45 -122q39 -57 84 -96q14 -14 10 -18q-10 -2 -18 10 q-145 113 -160 211q-2 18 -2 37q0 121 119 176q86 39 215 39q41 0 74 -4q188 -25 342 -76q113 -39 206 -90q25 23 74 59l-2 25q35 8 82 51q33 24 43 16q4 -4 4 -10q0 -12 -18 -28l-148 -134q53 -33 83 -57.5t15 -28.5l-18 15q-27 18 -96 55q-158 -150 -402 -393 q-301 -301 -430 -445q98 -156 195 -268q176 -209 319 -209q125 0 205 115q12 25 21 18q8 -6 -4 -22q-90 -145 -230 -146q-174 0 -336 193q-51 61 -194 291q-186 -182 -305 -371q-23 -35 -21 -35q-16 6 12 56q98 168 297 382q-10 20 -73 119q-33 -14 -80 -80 q-180 -252 -193 -428q-1 -12 -1 -23q0 -27 4 -43l5 -22q-4 -4 -14 11.5t-10 19.5q-10 25 -10 70z" />
<glyph unicode="[" horiz-adv-x="663" d="M12 -313q0 20 23 67q133 287 676 1516q18 43 34.5 52t71.5 9h180q39 0 37 -12t-28 -12h-228l-721 -1624h232q45 0 45 -13q0 -12 -37 -12h-229q-55 0 -56 29z" />
<glyph unicode="\" horiz-adv-x="276" d="M100 367q-25 373 9 661q8 76 18 74q6 0 4 -64q-8 -295 19 -690q27 -379 55 -569q6 -43 2 -45q-12 -4 -21 35q-66 279 -86 598z" />
<glyph unicode="]" horiz-adv-x="663" d="M-211 -330q2 12 29 13h227l721 1624h-231q-45 0 -46 12q0 12 37 12h230q55 0 55 -28q0 -21 -23 -68q-133 -287 -675 -1516q-18 -43 -35 -52t-72 -9h-180q-39 0 -37 12z" />
<glyph unicode="^" horiz-adv-x="1024" d="M236 403q-4 8 24 25q231 133 381 250q31 25 49 24q14 0 25 -32q35 -119 86 -234q10 -24 0 -28q-12 -6 -27 18q-53 88 -104 227q-209 -147 -365 -227q-49 -25 -63 -25q-4 0 -6 2z" />
<glyph unicode="_" horiz-adv-x="1024" d="M-201 -420h1041v-35h-1041v35z" />
<glyph unicode="`" horiz-adv-x="512" d="M410 778q0 16 18 17q18 0 51 -39q60 -72 113 -101q-25 -4 -72 20.5t-76 51.5q-35 33 -34 51z" />
<glyph unicode="a" horiz-adv-x="468" d="M-35 84q0 68 47 173t144 202q104 102 176 102q41 0 53 -43q7 12 21 30q13 17 25 17h3q9 -1 9 -10q0 -5 -3 -14q-37 -90 -112 -285q-59 -158 -103 -233q53 68 103.5 106.5t70.5 44.5q12 6 15 2q4 -6 -11 -12q-39 -20 -84 -66q-33 -31 -112 -125q-15 -23 -30 -23q-3 0 -5 1 q-12 2 -2 24q49 106 149 371q-80 -137 -169 -233q-90 -97 -139 -97h-5q-41 6 -41 68zM6 82q0 -27 17 -29h5q43 0 124 90q74 84 143 197q40 67 67 139q4 12 5 23q0 39 -41 39q-68 0 -147 -94.5t-138 -239.5q-35 -86 -35 -125z" />
<glyph unicode="b" horiz-adv-x="401" d="M-10 70q0 147 174 512q152 319 282 440q37 33 62 33q4 0 6 -2q0 -2 -10 -9q-18 -10 -37 -28q-31 -31 -107 -162q-82 -139 -149 -283q-131 -281 -174 -467q-6 -28 -6 -48q0 -42 28 -46h6q40 0 97 76q53 70 88 160q16 39 49 160q4 18 4 34q0 51 -45 80q-37 23 -10 47 q4 4 12 4q23 0 45 -28l25 -49q29 -23 49 -21q20 -6 45 14q18 10 18 11q10 -14 -18.5 -28.5t-44.5 -14.5q-27 0 -47 12q2 -16 2 -39q0 -98 -41 -196t-114 -172q-69 -70 -119 -70h-5q-66 4 -65 80z" />
<glyph unicode="c" horiz-adv-x="325" d="M-29 92q0 61 33 156q41 113 136.5 218t170.5 107h3q51 0 51 -35q0 -29 -33 -53q-18 -8 -21 -4q-2 2 4.5 19.5t6.5 34.5q0 20 -15 22h-7q-57 1 -138 -113q-86 -122 -125 -264q-18 -70 -19 -106q0 -51 37 -51q41 0 99 67q53 61 94 146q23 45 20 45q14 -2 -8 -56 q-40 -93 -110 -165q-62 -63 -107 -63q-6 0 -12 1q-59 12 -60 94z" />
<glyph unicode="d" horiz-adv-x="382" d="M-37 80q0 84 68 229q92 199 254 246q33 10 32 -2q0 -2 -32 -14q-127 -45 -217 -258q-61 -143 -62 -222q0 -43 23 -47q3 -1 6 -1q36 0 100 81q80 104 141 273q29 80 46 129q25 86 34 153q-14 14 -41 49q-69 93 -69 186t43 93q31 0 65 -51q41 -63 45 -160q2 -29 1 -55 q0 -40 -3 -74q25 -25 70 -49q16 -8 37 -13q14 -2 14 -4q-5 -5 -16 -5q-17 0 -47 14q-23 10 -60 34q-25 -172 -119 -362q-45 -92 -131 -180q-79 -81 -120 -81q-4 0 -7 1q-55 12 -55 90zM274 913q0 -43 7 -73q18 -92 79 -168q5 30 5 63v19q-4 100 -33 159q-25 47 -47 48 q-10 0 -11 -48z" />
<glyph unicode="e" horiz-adv-x="346" d="M-37 78q0 137 121 315q130 193 273 193h3q41 0 41 -33q0 -37 -39 -74q-54 -50 -116 -50q-10 0 -21 1q-35 4 -59 16q-37 -53 -57 -92q-59 -121 -86 -215q-12 -45 -13 -73q0 -43 25 -52q7 -2 14 -2q35 0 84 49q43 45 73 97.5t40 107.5q16 25 12 25q8 0 6 -23 q-2 -55 -46 -130t-98 -118q-46 -37 -87 -37q-7 0 -13 1q-57 8 -57 94zM178 459q16 -6 53 -13h5q40 0 77 32q39 34 37 65q0 20 -24 20q-35 0 -84 -39q-41 -35 -64 -65z" />
<glyph unicode="f" horiz-adv-x="311" d="M-774 -553q2 2 29 -14q37 -20 90 -21q236 0 407 189q127 141 246 426q82 197 117 301q8 25 8 86q0 49 -35 75l-16 7q-6 4 -4 12q6 14 47 16q31 2 80 2q63 162 129 262q182 281 356 281q52 0 52 -46q0 -6 -1 -13q-6 -55 -72 -92q-23 -12 -24 -9l18 19q31 31 31 65 q0 47 -51 47q-137 0 -273 -258q-53 -102 -114 -254q59 0 88 -2q78 -6 78 -16q0 -2 -76 -2q-35 0 -100 -4q-59 -152 -195 -490q-117 -279 -289 -444q-193 -188 -416 -188q-59 0 -88 26q-24 21 -24 33q0 3 2 6zM115 498q24 -27 24 -73q0 -23 -6 -52l51 129q-37 0 -69 -4z" />
<glyph unicode="g" horiz-adv-x="434" d="M-160 -457q16 104 107 219q78 102 192 185q14 33 137 342q-59 -98 -131 -176q-87 -97 -134 -97h-3q-45 4 -45 76q0 70 41 168q35 80 109.5 157t156.5 119t156 42q68 0 68 -33q0 -8 -9.5 -18.5t-15.5 -8.5q2 6 0 25q-6 14 -45 14q-70 0 -145 -43q-158 -90 -242 -305 q-35 -90 -35 -131q0 -29 16 -31h5q41 0 129 100q86 96 141 199q8 10 49 90q16 16 49 37q18 10 23 4q0 -2 -15 -16q-20 -39 -86.5 -199t-113.5 -287q33 20 57.5 31.5t56.5 16.5q20 4 21 -3q0 -4 -15.5 -9t-58.5 -23q-25 -10 -70 -41q-66 -141 -135 -258 q-41 -72 -102.5 -132.5t-95.5 -60.5q-19 0 -19 27q0 9 2 20zM-121 -430q-2 -12 -2 -20q0 -13 6 -17q2 -1 3 -1q13 0 40 24q49 43 99 133q53 98 104 225q-86 -51 -170 -168q-66 -90 -80 -176z" />
<glyph unicode="h" horiz-adv-x="393" d="M-70 2q-4 1 -4 6.5t4 16.5q14 35 109 278q68 174 129 303q162 334 305 447q40 29 56 29q8 0 8 -4q0 -2 -9 -9q-20 -12 -39 -31q-70 -68 -139 -182q-86 -141 -176 -342q-35 -76 -119 -285q45 61 131 159.5t154 156.5q31 25 45 16q16 -10 4 -41q-51 -123 -102 -244 q-55 -139 -86 -249q-4 -27 4 -31q12 -6 49 33q14 16 18 12q10 -6 -6 -18q-46 -64 -80 -64h-4q-27 3 -27 40q0 12 3 26q14 90 80 247q27 66 79 195q10 27 7 29q-6 4 -27 -17q-90 -90 -158 -172q-53 -63 -162 -250q-10 -12 -32 -43q-8 -14 -15 -12z" />
<glyph unicode="i" horiz-adv-x="260" d="M-29 -12q66 209 107 315q61 160 102 229q-25 -12 -30 -12q-18 0 -19 6q0 2 25 13q37 14 69 36q12 8 17 5q4 -7 -4 -25q-66 -129 -113 -252q-33 -88 -90 -246q68 59 104 76q14 6 15 -2q0 4 -33 -22q-43 -35 -74 -74q-61 -78 -65 -76q-13 1 -13 16q0 5 2 13zM281 782 q14 29 63 72q43 37 70 47q-41 -49 -92 -127q-14 -37 -25 -37q-4 0 -6 2q-16 8 -16 22q0 9 6 21z" />
<glyph unicode="j" horiz-adv-x="249" d="M-385 -457q14 102 109 219q82 102 206 187q59 121 152 354q39 98 84 234q-8 -6 -27 -15h-14q-10 0 -10 6q0 2 24 13q37 16 70 39q8 6 12 0q4 -7 0 -21q-49 -147 -92 -256q-68 -174 -141 -326q12 8 47 25q25 10 59 18q18 0 19 -4q0 -4 -17.5 -9t-57.5 -23.5t-63 -34.5 q-63 -135 -143 -260q-47 -72 -104 -129q-63 -63 -97 -64q-18 0 -18 28q0 8 2 19zM-346 -430q-2 -10 -2 -17q0 -15 8 -20h3q11 0 41 25q34 30 95 131q78 127 123 233q-117 -78 -185.5 -175t-82.5 -177zM266 782q14 29 64 72q42 37 69 47q-41 -49 -92 -127q-14 -37 -24 -37 q-4 0 -7 2q-16 7 -16 22q0 9 6 21z" />
<glyph unicode="k" horiz-adv-x="487" d="M-45 0q0 92 47 199q51 117 139 223q94 262 224 444q90 127 163 187q35 29 51 29q5 0 9 -3l-45 -45q-72 -72 -144 -184q-66 -102 -145 -268q-14 -35 -51 -115q133 127 254 127q71 0 71 -44t-66.5 -81t-135.5 -39h-16q-48 0 -89 10q20 -160 94 -356q55 -145 142 -248 q100 -115 202 -119h7q139 0 161 162l11 -2q8 -24 8 -41v-6q-12 -127 -192 -127h-11q-104 2 -211 115q-94 100 -153 243q-80 190 -93 363q-94 -256 -180 -395q-10 -16 -29 -41q-10 -14 -20 -13q-2 0 -2 25zM-27 4q27 43 84 197q37 94 72 188q-49 -61 -104 -180 q-45 -94 -52 -205zM209 455q35 -10 82 -10q17 0 35 1q53 4 99 30.5t46 55.5q0 35 -49 35q-90 0 -213 -112z" />
<glyph unicode="l" horiz-adv-x="253" d="M-18 31q4 47 24 110q72 229 170 443q143 309 279 434q37 33 61 33q4 0 6 -2q0 -2 -10 -9q-18 -10 -37 -28q-35 -35 -110 -162q-86 -147 -150 -289q-131 -295 -176 -467q-12 -50 -12 -70q0 -12 4 -14q3 -1 6 -1q29 0 82 89q20 33 22 33q14 -4 -12 -47q-66 -109 -114 -109 h-3q-31 2 -31 40q0 7 1 16z" />
<glyph unicode="m" horiz-adv-x="628" d="M-55 2q-4 1 -4 6.5t4 16.5q37 88 110 278q25 63 88 236q6 18 -8 18q-18 0 -43 -25q-10 -10 -14 -2q-2 6 8 13q27 27 88 55h5q11 0 17 -9q6 -11 3 -28q-10 -43 -52 -141q-57 -135 -77 -191q59 78 131 162q84 96 151 154q31 25 45 16q16 -10 4 -41q-33 -82 -125 -301 q176 229 291 326q29 25 43 16q11 -7 11 -21q0 -9 -5 -20q-35 -82 -108 -262q-29 -76 -82 -231q-4 -27 6 -31q16 -6 49 33q10 16 17 12q8 -4 -6 -18q-53 -64 -80 -64h-2q-25 3 -25 43q0 10 2 23q10 76 80 247q14 35 38.5 93.5t41.5 101.5q12 31 6 33l-31 -21 q-84 -84 -154.5 -173t-168.5 -267q-4 -8 -20.5 -24.5t-24.5 -16.5q-6 0 12 41q29 70 94 231q23 51 74 197q10 29 4 31q-6 4 -29 -19q-84 -84 -155 -172q-39 -47 -162 -250q-10 -12 -33 -43q-8 -14 -14 -12z" />
<glyph unicode="n" horiz-adv-x="409" d="M-55 2q-4 1 -4 6.5t4 16.5q12 31 108 278l90 236q6 18 -8 18q-18 0 -43 -25q-10 -10 -14 -2q-2 6 8 13q27 27 88 55h5q14 0 20 -10t0 -27q-45 -113 -129 -332q59 78 131 162q84 96 151 154q31 25 45 16q9 -6 9 -18q0 -9 -5 -23q-51 -123 -102 -244q-55 -139 -86 -249 q-4 -27 4 -31q12 -6 49 33q14 16 19 12q8 -6 -9 -18q-46 -64 -76 -64h-3q-27 3 -27 41q0 11 2 25q16 98 78 247q29 66 82 195q8 20 2 25q-8 4 -25 -13q-84 -84 -155 -172q-39 -47 -162 -250q-10 -12 -33 -43q-8 -14 -14 -12z" />
<glyph unicode="o" horiz-adv-x="366" d="M-20 96q0 66 30 158q25 74 85.5 153.5t115.5 112.5q25 20 33 12q-2 2 -25 -24q-129 -141 -184 -336q-16 -59 -17 -96q0 -45 23 -53q6 -2 12 -2q42 0 112 95q81 109 122 261q18 63 18 94q0 49 -37 84q-27 27 -30 37q-4 20 14 26q4 2 8 2q13 0 23 -20q4 -8 36 -49 q18 -23 50 -27q25 -4 39 2q22 4 20 6q1 -1 1 -2q1 -6 -17 -15q-20 -11 -43 -11q-18 0 -47 16q8 -23 8 -59q0 -98 -49 -205q-45 -98 -121 -180q-74 -79 -121 -79q-5 0 -10 1q-49 10 -49 98z" />
<glyph unicode="p" horiz-adv-x="464" d="M-328 -672q-1 1 -1 6q0 13 7 54q16 94 74 225q88 203 189 350q27 70 94 254q41 113 104 320q-10 6 -30 10q43 12 94 41q2 -2 6 -8q0 2 -12 -33q-59 -166 -170 -457q90 162 188 305q119 176 184 176h4q24 -2 24 -31q0 -7 -1 -14q-18 -143 -127 -379q20 2 43 9q31 8 33 6 q0 -4 -33 -17.5t-53 -17.5q-20 -33 -84 -125q-16 -25 -31 -25q-23 0 -23 38q0 8 1 16q6 29 14 94l8 6q55 0 86 10q29 66 72 205q39 129 43 193q-63 -25 -260 -338q-72 -113 -138 -267q-47 -119 -141 -331q-70 -147 -123 -234q-26 -41 -40 -41h-1zM-295 -606q37 68 100 207 q23 51 119 301q-78 -121 -153 -297q-41 -94 -66 -211zM180 104q0 -45 8 -86q25 25 60 101q-8 -2 -33 -6t-35 -9z" />
<glyph unicode="q" horiz-adv-x="434" d="M-109 -582q0 45 15 64q102 137 221 422q78 188 152 383q-55 -100 -140 -195q-86 -94 -130 -94h-3q-35 4 -35 74q0 82 47 186q68 154 195 246q106 78 197 78h4q43 0 43 -27q0 -14 -6 -23q-10 -14 -15 -14q-4 0 -2 21.5t-24 25.5q-8 1 -17 1q-63 0 -149 -77 q-117 -102 -193 -282q-41 -98 -41 -158q0 -20 8 -22q3 -1 6 -1q41 0 132 107q90 106 141 211q20 23 65 133q6 18 23 41q8 2 12 -16q4 -14 0 -35l-84 -217q-59 -154 -110 -277q-129 -311 -250 -450q57 55 117 110q96 96 135 166q16 31 20 29q12 -4 -18 -55q-41 -72 -125 -156 q-59 -55 -117 -113q-18 -20 -38.5 -74.5t-22.5 -54.5q-12 4 -13 43z" />
<glyph unicode="r" horiz-adv-x="352" d="M-94 -29q0 -1 1 -1q4 0 19 26q55 96 119 254q68 170 84 276q-20 -8 -39 -10q-14 -6 -16 2q-2 6 12 12q49 18 84 45q8 4 14 4q3 0 6 -1q6 -6 3 -23q-29 -131 -87 -250q37 55 113 154q55 59 105 88q20 12 41 12q27 0 27 -29q0 -5 -1 -12q-12 -70 -57 -108q-16 -14 -23 -9 q-2 0 9.5 19.5t17.5 50.5q6 37 -14 41q-14 2 -35 -14q-33 -27 -66 -64q-57 -66 -104 -139q-55 -121 -148 -285q-6 -4 -19 -18.5t-26 -20.5q-7 -5 -12 -5t-8 5z" />
<glyph unicode="s" horiz-adv-x="305" d="M-113 33q0 43 32 88t71 67q42 26 58 26q5 0 7 -3q0 -2 -16 -10q-23 -14 -43 -31q-51 -45 -64 -109q-4 -16 -4 -28q0 -43 37 -47q6 -1 11 0q59 0 103 78q48 86 54 219q6 158 41 229q44 72 115 72h4q43 0 47 -31v-7q0 -43 -66 -87q27 47 27 80q0 23 -16 26q-8 2 -16 2 q-43 0 -62 -59q-8 -27 -21 -229q-8 -152 -90 -242q-66 -70 -143 -70h-8q-57 4 -58 66z" />
<glyph unicode="t" horiz-adv-x="292" d="M-37 -12q57 195 150 422q14 35 39 88q-16 0 -31 -2q-49 -6 -51 0q-6 14 24 20q23 4 68 8q37 82 90 178q62 110 87 110q3 0 5 -1q8 -2 2 -12q-12 -18 -24 -37q-33 -59 -107 -234q17 1 34 1q34 0 70 -3q78 -6 74 -26q4 6 -78 6q-74 0 -110 -2q-51 -115 -82 -195 q-47 -121 -92 -248q70 61 98 72q14 14 14 -2q0 2 -30 -22q-45 -37 -74 -74q-58 -76 -67 -76h-1q-12 1 -12 13q0 6 4 16z" />
<glyph unicode="u" horiz-adv-x="440" d="M-18 59q2 68 73 238q31 76 117 227q-12 -6 -25 -6q-37 0 -36 8q0 -6 39.5 8.5t64.5 30.5q8 4 12 0q4 -2 0 -8l-4 -12q-74 -135 -121 -248q-53 -129 -69 -195q-4 -20 -4 -33q0 -23 12 -28h4q22 0 80 61q53 55 135 199q8 12 12 27q33 84 80 184q29 61 78 86q10 4 14 4 q2 0 2 -1q0 -4 -8 -19q-66 -102 -135 -289q-25 -72 -80 -211q16 16 60 53q27 25 55 41q23 12 24 6q4 -6 -11 -15t-75 -61q-27 -25 -108 -116q-2 -8 -4 -17q-4 -12 -10 -12h-2q-20 4 4 41q29 82 84 236q-47 -82 -101 -142q-78 -86 -119 -86q-38 0 -38 43v6z" />
<glyph unicode="v" horiz-adv-x="425" d="M2 -10q0 33 27 69q14 25 37 95q63 188 69 301v10q0 72 -53 72q-16 0 -37 -11q-8 -4 -22.5 -15t-16.5 -7q-4 12 38 37.5t75 25.5q68 0 67 -88v-18q-6 -109 -88 -316q-25 -59 -45 -98q49 53 150 168q168 209 223 350q4 12 6 41q0 4 4 4q12 0 15 -32q1 -7 1 -14 q0 -27 -10 -50q-49 -109 -221 -311q-74 -78 -184 -215q-14 -17 -23 -17h-2q-10 2 -10 19z" />
<glyph unicode="w" horiz-adv-x="636" d="M-8 -10q0 23 28 69q12 20 41 95q63 168 80 301q1 11 1 21q0 59 -52 59q-18 0 -37 -9q-8 -4 -22.5 -15t-16.5 -7q-4 12 39 37.5t76 25.5q65 0 65 -82q0 -11 -1 -24q-12 -125 -101 -316q-14 -43 -49 -106q61 72 176 213q74 96 125 192q25 47 46.5 75t37.5 18q4 -2 4 -9 q0 -14 -37 -65q-6 -59 -24 -219q-12 -106 -52 -197q63 68 138 168q127 172 155 326q4 18 0 34q-4 10 0 11q12 0 22 -34q7 -22 7 -41q0 -11 -2 -22q-25 -117 -160 -288q-66 -74 -176 -203q-8 -25 -24 -21q-10 2 -11 21q0 31 27 65q16 59 27 177q10 125 20 163 q-33 -72 -119 -178q-78 -90 -196 -237q-12 -17 -22 -17h-3q-10 4 -10 19z" />
<glyph unicode="x" horiz-adv-x="403" d="M-104 -20q33 98 120 204q59 72 148 156q-2 61 -8 96q-10 74 -41 88q-20 6 -35 4q-20 -4 -21 -4q-4 8 19.5 19.5t46.5 11.5q59 -2 74 -92q4 -27 8 -84q45 51 131 123q68 57 115 65q12 3 22 3q31 0 31 -29q-23 8 -56.5 -3.5t-89.5 -56.5q-82 -68 -153 -141q0 -23 2 -78v-94 q0 -63 2 -111q2 -33 14 -32q18 0 47 57q10 16 13 14q6 -4 -2 -22q-40 -86 -78 -86h-2q-37 2 -37 63v49q-2 41 -2 72v131q-80 -80 -127 -139.5t-70 -89.5q-37 -55 -55 -95t-16 -40q-6 0 -6 10.5t6 30.5z" />
<glyph unicode="y" horiz-adv-x="452" d="M-674 -557l19 -14q31 -20 98 -21q299 0 598 383q137 178 266 483q-55 -82 -158.5 -181t-114.5 -113.5t-26 -12.5q-8 4 -2 29q43 86 62 147q55 180 59 301v13q0 67 -41 67q-6 0 -31.5 -11t-27.5 -9q-6 8 28 28q43 25 72 25q50 0 50 -82q0 -11 -1 -24q-10 -143 -76 -316 q-25 -63 -59 -127q68 70 188 199q123 145 191 348q4 14 6 33q0 12 4 12q10 0 12 -33q0 -32 -8 -63q-29 -109 -102 -275q-131 -301 -258 -456q-145 -178 -314 -285q-174 -111 -323 -111q-53 0 -86 27q-27 22 -27 34q0 3 2 5z" />
<glyph unicode="z" horiz-adv-x="407" d="M-74 18q2 27 6 43q25 82 64 142q20 33 27 33q14 0 22 -9.5t25 -33.5q29 43 129 165q43 49 170 160q-71 -27 -139 -27q-14 0 -29 1q-95 8 -95 50q0 29 35 40q6 6 19 6q2 -6 -10 -13q-20 -4 -21 -22q0 -23 74 -29q26 -2 51 -2q78 0 143 19q8 10 27 26q23 8 27 0q1 -2 1 -3 q0 -9 -26 -25q-27 -25 -197 -217q-49 -51 -141 -156q25 -41 65 -95.5t80 -58.5h7q61 0 96 103q8 14 6 14q8 0 4 -23q-22 -124 -108 -124h-7q-61 4 -98 49t-70 106q-70 -76 -98 -127q-10 -18 -16 -14q-4 2 6 22q45 88 94 150q-6 16 -16 43q-6 -6 -19 -21q-27 -43 -69 -135 q-15 -49 -15 -61q0 -4 2 -4q-2 14 -6 28z" />
<glyph unicode="{" horiz-adv-x="663" d="M180 -131q0 70 35 152.5t100 236.5q59 143 60 209q0 90 -111 139q-43 18 -43 21q2 4 60 4q117 0 184 53q61 49 123 176q49 104 74 162q129 311 395 311q45 0 94 -8q33 -6 27 -16q-2 -8 -29 -2q-43 8 -84 8q-231 0 -332 -242q-10 -23 -63 -143q-74 -162 -142 -230 q-88 -88 -225 -90q111 -57 111 -166q0 -92 -88 -284q-27 -59 -78 -176q-27 -70 -27 -127q0 -166 203 -193q31 -4 31 -8q-2 -10 -45 -6q-94 10 -156 59q-74 59 -74 160z" />
<glyph unicode="|" horiz-adv-x="819" d="M477 -483v1843h45v-1843h-45z" />
<glyph unicode="}" horiz-adv-x="663" d="M-276 -328q2 8 28 2q43 -8 84 -8q231 0 332 242q47 115 78 182q72 162 143 229q90 88 227 91q-113 55 -112 170q0 96 88 280q12 25 61 137q31 72 31 129q0 164 -207 191q-31 4 -31 8q2 10 46 6q94 -10 157 -59q74 -59 74 -160q0 -68 -37 -154q-29 -61 -88 -196 q-59 -141 -59 -207q0 -92 112 -141q43 -19 43 -21q-2 -4 -59 -4q-117 0 -181.5 -51t-125.5 -178q-37 -76 -88 -201q-129 -311 -396 -311q-45 0 -94 8q-33 6 -26 16z" />
<glyph unicode="~" horiz-adv-x="1024" d="M264 500q-8 6 6 26q66 86 179 76q45 -4 134 -41t130 -41q72 -6 133 68q20 20 22 18q6 -4 -8 -28q-63 -100 -170 -91q-47 4 -135 42t-129 42q-90 8 -139 -53q-18 -23 -23 -18z" />
<glyph unicode="&#xa1;" horiz-adv-x="243" d="M-229 -358q-8 2 8 32q55 100 158 318q82 170 163 409q19 52 29 50t-2 -68q-33 -166 -135 -389q-90 -195 -162 -293q-47 -63 -59 -59zM117 555q4 37 41 41q16 2 27.5 -7.5t9.5 -25.5q0 -39 -41 -43q-37 -4 -37 35z" />
<glyph unicode="&#xa2;" horiz-adv-x="325" d="M-37 -45l62 117q-49 18 -50 86q0 45 23 108q33 96 104 178q80 92 158 95h12l76 143l6 -18l-67 -129q16 -6 20 -27q4 -25 -28 -45q-18 -10 -33 -6l-88 -170q-37 -70 -107 -199q43 -10 96 49q45 49 74 119q16 37 17 37q8 -2 -5 -45q-20 -66 -77 -125q-61 -66 -111 -57h-6 l-70 -132zM35 211q-23 -94 2 -115q31 59 100 197q45 84 125 227q-2 0 -2 2h-4q-57 6 -126 -94t-95 -217z" />
<glyph unicode="&#xa3;" horiz-adv-x="563" d="M-80 66q0 16 4 36q16 27 45 25q14 -2 119 -45q25 37 50.5 103.5t51.5 133.5q-102 0 -102 9q2 16 115 20l8 21q59 143 158 217q74 57 141 57q72 0 72 -70q-1 -55 -62 -108q-10 -4 -12 -2q-2 4 4 10q39 39 39 86q0 55 -57 55q-59 0 -101 -32q-66 -53 -129 -209 q-4 -12 -12 -27q66 -6 92 -10q47 -8 66 -21q-47 4 -170 4q-72 -168 -138 -243q33 -16 86 -35q41 -14 125 -31q123 -6 123 101q0 8 4 8q6 0 6 -15q6 -55 -33.5 -88.5t-103.5 -33.5q-61 0 -139 26q-66 23 -96 37q-43 -47 -99 -45q-55 2 -55 66zM-68 92q0 -72 48 -76 q42 -4 81 35q-66 29 -104 45q-18 4 -25 -4z" />
<glyph unicode="&#xa4;" horiz-adv-x="393" d="M-70 2q-8 2 0 23q14 35 109 278q72 184 129 303q102 211 274 420q135 164 303 272q199 127 377 127q117 0 187.5 -64.5t60.5 -164.5q-4 -47 -29.5 -81t-54.5 -34q41 61 45 123q6 92 -45 146q-57 57 -168 57q-164 0 -350 -123q-166 -109 -297 -276q-162 -207 -270 -441 q-94 -205 -146 -338q45 61 131 159.5t154 156.5q31 25 45 16q16 -10 4 -41q-51 -123 -102 -244q-55 -139 -86 -249q-4 -27 4 -31q12 -6 49 33q14 16 18 12q10 -6 -6 -18q-49 -68 -84 -64t-24 66q14 90 80 247q27 66 79 195q10 27 7 29q-6 4 -27 -17q-90 -90 -158 -172 q-53 -63 -162 -250q-10 -12 -32 -43q-8 -14 -15 -12z" />
<glyph unicode="&#xa5;" horiz-adv-x="454" d="M20 287q4 20 130 20q10 96 6 166q-6 119 -41 135q-25 6 -39 4l-23 -4q-6 10 22.5 22.5t49.5 10.5q72 -8 78 -139q4 -96 -10 -185q70 119 192 238q82 78 145 78q29 0 44.5 -22.5t9.5 -28.5q-25 14 -56 14q-55 0 -116 -55q-125 -111 -207 -236q100 -4 143 -31q-47 4 -158 5 q-59 -115 -96 -230q-20 -61 -33 -61q-20 0 0 71q31 100 80 220q-123 0 -121 8z" />
<glyph unicode="&#xa6;" horiz-adv-x="1400" d="M37 203q0 16 8 33q29 55 96 55q23 0 105 -12q-29 23 -29 51q0 27 27 69q-10 -2 -34 -14t-32 -12q-2 0 -4 2q-8 14 35 35q25 16 57 24q6 6 25 29q-8 4 -39 10q-18 2 -33.5 3t-13.5 11q2 8 20 9q41 10 80 -21q4 6 21 19q-29 49 -54 67q-12 10 -47 19q-20 6 -14 18 q10 20 74 -18q23 -12 51 -76q6 6 49 43q23 16 82 61q-16 -2 -38.5 -12t-33.5 -10q-20 0 -35.5 18.5t-15.5 38.5q0 33 41 109.5t41 103.5q0 20 -11.5 29.5t-11.5 29.5q0 23 17.5 41.5t38.5 18.5q49 0 55 -43q39 2 77 -16.5t60 -18.5q25 0 72 16.5t68 16.5q8 0 16 -2 q8 49 61 49q27 0 47.5 -17.5t14.5 -46.5q-2 -8 -11.5 -31.5t-9.5 -43.5q0 -41 31 -111t31 -92q0 -49 -56 -49q-23 0 -57 14q-41 20 -45 21q10 -27 49 -41q51 -20 67.5 -34t43.5 -36q23 18 65 65q4 4 17 25q8 14 14 14q4 0 9 -5t5 -13q0 -29 -100 -96q8 -6 31 -33q14 6 47 14 q45 10 51 -8q2 -12 -15.5 -13t-35.5 -1q-4 0 -35 -6q10 -10 33 -43q84 0 96 -2q27 -4 27 -27q0 -10 -8 -10q-6 0 -22.5 6t-23.5 8q-20 4 -59 10q37 -68 37 -100q0 -25 -21 -37q164 23 175 23q47 0 88 -72q8 -14 8 -31q0 -37 -56 -78q-49 -31 -98 -63q-39 -29 -67 -37 q2 -2 4 -5t5 -7t18.5 -14.5t15.5 -14.5q0 -14 -21 -14q-29 0 -53 35l-6 12q-18 -6 -64 -12q2 -6 6 -23q4 -45 -14 -49q-10 -2 -13 17.5t-5 37.5q0 2 -2 7t-5 10q-35 -2 -69 0q0 -76 -2 -89q-4 -27 -33 -26q-12 0 -8 18q6 18 10 35q4 43 10 62q-33 0 -121 31.5t-122 31.5 q-55 2 -144.5 -30.5t-144.5 -32.5q6 -18 12 -64q8 -55 -8 -55q-23 0 -27 28q2 -12 2 91q-27 0 -75 4q0 -6 -5.5 -24.5t-8.5 -37t-15 -16.5q-25 6 -14 49l8 33q-20 2 -64 14q-4 -8 -14 -25q-35 -53 -62 -28q-6 4 -6 10q0 -4 29 29l23 22q-66 29 -90.5 112t-24.5 81zM381 635 l2 -6q66 61 143 80q45 10 150 -7q94 -14 143 11l-4 6q-41 -23 -139 -8q-39 6 -76 12q-41 6 -78 -4q-29 -8 -73 -33q-51 -29 -68 -51zM420 915q2 -16 18.5 -27t26.5 -7q18 2 29.5 15.5t7.5 23.5q-2 18 -17.5 30.5t-25.5 7.5q-18 -2 -30.5 -17t-8.5 -26zM442 915q0 20 17 21 q20 0 20 -16q0 -18 -16 -19q-20 0 -21 14zM502 678q61 4 119 -6q66 -12 63 -13q82 0 158 43q-49 -23 -109 -22q-29 0 -78 6t-69 6q-18 0 -84 -14zM522 666q37 -12 75 -24.5t91 -12.5q20 0 60 10q47 12 59 14q33 7 123 -24v6q-55 35 -103 35q-25 0 -70.5 -15.5t-70.5 -15.5 q-51 0 -82 10q-55 16 -69 19zM831 922q4 -39 43 -35q18 2 28.5 15.5t6.5 23.5q-2 18 -16 29.5t-25 7.5q-18 -2 -29.5 -16.5t-7.5 -24.5zM854 922q0 18 14 18q19 0 19 -14q0 -16 -15 -17q-18 0 -18 13z" />
<glyph unicode="&#xa7;" horiz-adv-x="598" d="M4 82q0 27 10 27l4 -27q16 -111 129 -115q164 -6 164 152q0 63 -24 133q-12 31 -54 139q-33 82 -32 152q0 90 53 149.5t149 77.5q-23 74 -22 127q0 68 41 133q57 92 166 88q113 -4 112 -112q0 -60 -18 -54q-4 2 0 23q8 39 -18.5 75.5t-79.5 39.5q-100 2 -146 -66 q-18 -29 -18 -86q0 -63 24 -133q12 -31 54 -139q33 -82 32 -152q0 -90 -53 -149.5t-149 -75.5q23 -78 22 -129q0 -70 -41 -133q-57 -92 -166 -88q-135 4 -139 143zM244 559q0 -49 16 -92q25 -61 62 -164q102 18 139 84q25 45 24 111q0 49 -14 92q-27 74 -63 166 q-96 -12 -138 -86q-27 -47 -26 -111z" />
<glyph unicode="&#xa8;" horiz-adv-x="512" d="M383 707q0 35 35 34q35 1 35 -34t-35 -35t-35 35zM528 707q0 35 35 34q35 1 35 -34t-35 -35t-35 35z" />
<glyph unicode="&#xa9;" horiz-adv-x="1024" d="M213 518q0 152 105.5 257.5t259.5 105.5q150 0 256 -105.5t106 -257.5t-105.5 -258t-256.5 -106q-154 0 -259.5 105.5t-105.5 258.5zM252 518q0 -135 95 -231.5t231 -96.5q133 0 228 96.5t95 231.5q0 131 -95 228.5t-228 97.5t-229.5 -96.5t-96.5 -229.5zM362 506 q0 106 74 164q63 53 164 53q82 0 129 -25q12 -14 12 -65v-43h-18q-14 115 -127 115q-72 0 -116 -51.5t-44 -137.5q0 -90 45 -141t117 -51q113 0 133 94h19l-5 -33q-6 -41 -20 -61q-61 -25 -123 -25q-102 0 -166 47q-74 53 -74 160z" />
<glyph unicode="&#xaa;" horiz-adv-x="428" d="M-14 72q0 27 4 53q20 117 88 240q-25 6 -53 20q-16 10 -13 16q4 6 19 9q4 2 24 -2q12 -4 41 -15q129 195 273 193q41 0 41 -33q0 -37 -39 -74q-63 -59 -138 -49q-35 4 -59 16q-16 -20 -39 -61q90 -27 230 -29q139 -2 239 25q27 8 27 6q2 -4 -21 -14q-90 -41 -260 -41 q-121 0 -233 22q-86 -164 -86 -286q0 -86 61 -95q47 -6 104.5 32t98.5 97q35 51 57 127q8 25 10 25q8 0 5 -23q-14 -68 -52 -131q-90 -156 -233 -153q-96 2 -96 125zM186 459q25 -10 54 -13q41 -2 84 37q36 35 34 60q-2 20 -24 20q-35 0 -84 -39q-41 -35 -64 -65z" />
<glyph unicode="&#xab;" horiz-adv-x="473" d="M12 291q106 59 244 178q19 14 23 8t-17 -28q-100 -109 -186 -168q33 -100 41 -166q4 -37 -4 -37q-10 0 -17 24q-27 88 -84 189zM182 291q106 59 244 178q19 14 23 8t-17 -28q-100 -109 -186 -168q31 -94 41 -166q4 -37 -4 -37q-10 0 -17 24q-25 86 -84 189z" />
<glyph unicode="&#xac;" horiz-adv-x="292" d="M-37 -12q88 297 189 512q-10 -2 -31 -4q-49 -6 -51 0q-6 14 24 20q23 4 68 8q37 82 90 178q68 121 92 109q8 -2 2 -12q-12 -18 -24 -37q-33 -59 -107 -234q90 4 213 2q160 -4 252 -41q86 -34 80 -102q-2 -35 -45 -43q8 12 20 53q10 68 -82 88q-74 16 -219 21 q-139 4 -229 -2q-51 -115 -82 -195q-47 -121 -92 -248q70 61 98 72q14 14 14 -2q0 2 -30 -22q-45 -37 -74 -74q-61 -80 -68 -76q-18 2 -8 29z" />
<glyph unicode="&#xad;" horiz-adv-x="319" d="M2 317q57 16 174 43q82 17 90 5q16 -27 -65 -46q-143 -33 -199 -2z" />
<glyph unicode="&#xae;" horiz-adv-x="1024" d="M207 518q0 150 105.5 255.5t258.5 105.5q150 0 256.5 -105.5t106.5 -255.5q0 -154 -105.5 -260t-257.5 -106t-258 106.5t-106 259.5zM246 518q0 -137 95 -233.5t230 -96.5q133 0 228.5 96.5t95.5 233.5q0 131 -94 227.5t-230 96.5q-133 0 -229 -95.5t-96 -228.5zM375 317 v17q72 0 71 88v213q0 74 -71 74v16h164q176 0 170 -109q-2 -49 -45 -73l-35 -17q18 -33 67 -106q63 -90 117 -88v-15q-16 -4 -53 -4q-68 0 -96 35q-10 25 -41 78q-29 43 -60 78l-55 6v-90q0 -47 13.5 -65.5t53.5 -20.5v-17h-200zM508 526q129 -8 129 90q0 100 -127 89 q-2 -25 -2 -64v-115z" />
<glyph unicode="&#xaf;" horiz-adv-x="512" d="M334 721q-25 2 178 2q6 0 35 2q23 2 35 0q16 -2 20 -12q14 -31 -72 -33q-145 -4 -196 41z" />
<glyph unicode="&#xb0;" horiz-adv-x="819" d="M330 575q0 33 22.5 55.5t55.5 22.5q35 0 58 -22.5t23 -55.5t-24.5 -57t-56.5 -24q-33 0 -55.5 23.5t-22.5 57.5zM356 575q0 -53 52 -53q51 0 51 53q0 49 -51 50q-51 0 -52 -50z" />
<glyph unicode="&#xb1;" horiz-adv-x="1124" />
<glyph unicode="&#xb2;" horiz-adv-x="1400" d="M37 203q0 16 8 33q29 55 96 55q23 0 105 -12q-29 23 -29 51q0 27 27 69q-10 -2 -34 -14t-32 -12q-2 0 -4 2q-8 14 35 35q25 16 57 24q6 6 25 29q-8 4 -39 10q-18 2 -33.5 3t-13.5 11q2 8 20 9q41 10 80 -21q4 6 21 19q-29 49 -54 67q-12 10 -47 19q-20 6 -14 18 q10 20 74 -18q23 -12 51 -76q6 6 49 43q23 16 82 61q-16 -2 -38.5 -12t-33.5 -10q-20 0 -35.5 18.5t-15.5 38.5q0 33 41 109.5t41 103.5q0 20 -11.5 29.5t-11.5 29.5q0 23 17.5 41.5t38.5 18.5q49 0 55 -43q39 2 77 -16.5t60 -18.5q25 0 72 16.5t68 16.5q8 0 16 -2 q8 49 61 49q27 0 47.5 -17.5t14.5 -46.5q-2 -8 -11.5 -31.5t-9.5 -43.5q0 -41 31 -111t31 -92q0 -49 -56 -49q-23 0 -57 14q-41 20 -45 21q10 -27 49 -41q51 -20 67.5 -34t43.5 -36q23 18 65 65q4 4 17 25q8 14 14 14q4 0 9 -5t5 -13q0 -29 -100 -96q8 -6 31 -33q14 6 47 14 q45 10 51 -8q2 -12 -15.5 -13t-35.5 -1q-4 0 -35 -6q10 -10 33 -43q84 0 96 -2q27 -4 27 -27q0 -10 -8 -10q-6 0 -22.5 6t-23.5 8q-20 4 -59 10q37 -68 37 -100q0 -25 -21 -37q164 23 175 23q47 0 88 -72q8 -14 8 -31q0 -37 -56 -78q-49 -31 -98 -63q-39 -29 -67 -37 q2 -2 4 -5t5 -7t18.5 -14.5t15.5 -14.5q0 -14 -21 -14q-29 0 -53 35l-6 12q-18 -6 -64 -12q2 -6 6 -23q4 -45 -14 -49q-10 -2 -13 17.5t-5 37.5q0 2 -2 7t-5 10q-35 -2 -69 0q0 -76 -2 -89q-4 -27 -33 -26q-12 0 -8 18q6 18 10 35q4 43 10 62q-33 0 -121 31.5t-122 31.5 q-55 2 -144.5 -30.5t-144.5 -32.5q6 -18 12 -64q8 -55 -8 -55q-23 0 -27 28q2 -12 2 91q-27 0 -75 4q0 -6 -5.5 -24.5t-8.5 -37t-15 -16.5q-25 6 -14 49l8 33q-20 2 -64 14q-4 -8 -14 -25q-35 -53 -62 -28q-6 4 -6 10q0 -4 29 29l23 22q-66 29 -90.5 112t-24.5 81zM381 635 l2 -6q66 61 143 80q45 10 150 -7q94 -14 143 11l-4 6q-41 -23 -139 -8q-39 6 -76 12q-41 6 -78 -4q-29 -8 -73 -33q-51 -29 -68 -51zM420 915q2 -16 18.5 -27t26.5 -7q18 2 29.5 15.5t7.5 23.5q-2 18 -17.5 30.5t-25.5 7.5q-18 -2 -30.5 -17t-8.5 -26zM442 915q0 20 17 21 q20 0 20 -16q0 -18 -16 -19q-20 0 -21 14zM502 678q61 4 119 -6q66 -12 63 -13q82 0 158 43q-49 -23 -109 -22q-29 0 -78 6t-69 6q-18 0 -84 -14zM522 666q37 -12 75 -24.5t91 -12.5q20 0 60 10q47 12 59 14q33 7 123 -24v6q-55 35 -103 35q-25 0 -70.5 -15.5t-70.5 -15.5 q-51 0 -82 10q-55 16 -69 19zM831 922q4 -39 43 -35q18 2 28.5 15.5t6.5 23.5q-2 18 -16 29.5t-25 7.5q-18 -2 -29.5 -16.5t-7.5 -24.5zM854 922q0 18 14 18q19 0 19 -14q0 -16 -15 -17q-18 0 -18 13z" />
<glyph unicode="&#xb3;" horiz-adv-x="1400" d="M37 203q0 16 8 33q29 55 96 55q23 0 105 -12q-29 23 -29 51q0 27 27 69q-10 -2 -34 -14t-32 -12q-2 0 -4 2q-8 14 35 35q25 16 57 24q6 6 25 29q-8 4 -39 10q-18 2 -33.5 3t-13.5 11q2 8 20 9q41 10 80 -21q4 6 21 19q-29 49 -54 67q-12 10 -47 19q-20 6 -14 18 q10 20 74 -18q23 -12 51 -76q6 6 49 43q23 16 82 61q-16 -2 -38.5 -12t-33.5 -10q-20 0 -35.5 18.5t-15.5 38.5q0 33 41 109.5t41 103.5q0 20 -11.5 29.5t-11.5 29.5q0 23 17.5 41.5t38.5 18.5q49 0 55 -43q39 2 77 -16.5t60 -18.5q25 0 72 16.5t68 16.5q8 0 16 -2 q8 49 61 49q27 0 47.5 -17.5t14.5 -46.5q-2 -8 -11.5 -31.5t-9.5 -43.5q0 -41 31 -111t31 -92q0 -49 -56 -49q-23 0 -57 14q-41 20 -45 21q10 -27 49 -41q51 -20 67.5 -34t43.5 -36q23 18 65 65q4 4 17 25q8 14 14 14q4 0 9 -5t5 -13q0 -29 -100 -96q8 -6 31 -33q14 6 47 14 q45 10 51 -8q2 -12 -15.5 -13t-35.5 -1q-4 0 -35 -6q10 -10 33 -43q84 0 96 -2q27 -4 27 -27q0 -10 -8 -10q-6 0 -22.5 6t-23.5 8q-20 4 -59 10q37 -68 37 -100q0 -25 -21 -37q164 23 175 23q47 0 88 -72q8 -14 8 -31q0 -37 -56 -78q-49 -31 -98 -63q-39 -29 -67 -37 q2 -2 4 -5t5 -7t18.5 -14.5t15.5 -14.5q0 -14 -21 -14q-29 0 -53 35l-6 12q-18 -6 -64 -12q2 -6 6 -23q4 -45 -14 -49q-10 -2 -13 17.5t-5 37.5q0 2 -2 7t-5 10q-35 -2 -69 0q0 -76 -2 -89q-4 -27 -33 -26q-12 0 -8 18q6 18 10 35q4 43 10 62q-33 0 -121 31.5t-122 31.5 q-55 2 -144.5 -30.5t-144.5 -32.5q6 -18 12 -64q8 -55 -8 -55q-23 0 -27 28q2 -12 2 91q-27 0 -75 4q0 -6 -5.5 -24.5t-8.5 -37t-15 -16.5q-25 6 -14 49l8 33q-20 2 -64 14q-4 -8 -14 -25q-35 -53 -62 -28q-6 4 -6 10q0 -4 29 29l23 22q-66 29 -90.5 112t-24.5 81zM381 635 l2 -6q66 61 143 80q45 10 150 -7q94 -14 143 11l-4 6q-41 -23 -139 -8q-39 6 -76 12q-41 6 -78 -4q-29 -8 -73 -33q-51 -29 -68 -51zM420 915q2 -16 18.5 -27t26.5 -7q18 2 29.5 15.5t7.5 23.5q-2 18 -17.5 30.5t-25.5 7.5q-18 -2 -30.5 -17t-8.5 -26zM442 915q0 20 17 21 q20 0 20 -16q0 -18 -16 -19q-20 0 -21 14zM502 678q61 4 119 -6q66 -12 63 -13q82 0 158 43q-49 -23 -109 -22q-29 0 -78 6t-69 6q-18 0 -84 -14zM522 666q37 -12 75 -24.5t91 -12.5q20 0 60 10q47 12 59 14q33 7 123 -24v6q-55 35 -103 35q-25 0 -70.5 -15.5t-70.5 -15.5 q-51 0 -82 10q-55 16 -69 19zM831 922q4 -39 43 -35q18 2 28.5 15.5t6.5 23.5q-2 18 -16 29.5t-25 7.5q-18 -2 -29.5 -16.5t-7.5 -24.5zM854 922q0 18 14 18q19 0 19 -14q0 -16 -15 -17q-18 0 -18 13z" />
<glyph unicode="&#xb4;" horiz-adv-x="512" d="M408 655q53 29 112 101q33 39 51 39q19 -1 19 -17q0 -18 -32 -48t-79 -54.5t-71 -20.5z" />
<glyph unicode="&#xb6;" horiz-adv-x="503" d="M92 51q43 240 178 510q-72 10 -118 60.5t-46 117.5q0 45 21 90q41 86 170 134q104 39 229 41q106 2 158 0q35 35 39 32q2 -2 -16 -32q45 -4 69 -9q35 -6 31 -16q-2 -4 -39 -2q-49 4 -74 4q-84 -129 -243 -459q-164 -338 -215 -579q-10 -43 -13 -43q-8 6 -8 55 q2 76 61 250q57 166 130 317q133 276 262 459q-59 2 -95 0q-31 -8 -41 -29q-80 -113 -233 -430q-117 -238 -184 -483q-14 -49 -19 -49q-14 0 -4 61z" />
<glyph unicode="&#xb7;" horiz-adv-x="169" d="M33 354q0 39 41 43q37 4 37 -35q-4 -37 -41 -40q-16 -2 -27.5 7t-9.5 25z" />
<glyph unicode="&#xb8;" horiz-adv-x="512" d="M35 -123q6 6 12 -2q33 -37 105 -37q76 0 86 53q8 41 -43 50q-14 0 -35 8q-4 2 12 22q10 12 29 33h22q-10 -10 -24 -29q-6 -10 8 -12q78 -12 74 -69q-6 -84 -123 -80q-43 2 -82 20q-31 16 -38 27.5t-3 15.5z" />
<glyph unicode="&#xb9;" horiz-adv-x="1400" d="M37 203q0 16 8 33q29 55 96 55q23 0 105 -12q-29 23 -29 51q0 27 27 69q-10 -2 -34 -14t-32 -12q-2 0 -4 2q-8 14 35 35q25 16 57 24q6 6 25 29q-8 4 -39 10q-18 2 -33.5 3t-13.5 11q2 8 20 9q41 10 80 -21q4 6 21 19q-29 49 -54 67q-12 10 -47 19q-20 6 -14 18 q10 20 74 -18q23 -12 51 -76q6 6 49 43q23 16 82 61q-16 -2 -38.5 -12t-33.5 -10q-20 0 -35.5 18.5t-15.5 38.5q0 33 41 109.5t41 103.5q0 20 -11.5 29.5t-11.5 29.5q0 23 17.5 41.5t38.5 18.5q49 0 55 -43q39 2 77 -16.5t60 -18.5q25 0 72 16.5t68 16.5q8 0 16 -2 q8 49 61 49q27 0 47.5 -17.5t14.5 -46.5q-2 -8 -11.5 -31.5t-9.5 -43.5q0 -41 31 -111t31 -92q0 -49 -56 -49q-23 0 -57 14q-41 20 -45 21q10 -27 49 -41q51 -20 67.5 -34t43.5 -36q23 18 65 65q4 4 17 25q8 14 14 14q4 0 9 -5t5 -13q0 -29 -100 -96q8 -6 31 -33q14 6 47 14 q45 10 51 -8q2 -12 -15.5 -13t-35.5 -1q-4 0 -35 -6q10 -10 33 -43q84 0 96 -2q27 -4 27 -27q0 -10 -8 -10q-6 0 -22.5 6t-23.5 8q-20 4 -59 10q37 -68 37 -100q0 -25 -21 -37q164 23 175 23q47 0 88 -72q8 -14 8 -31q0 -37 -56 -78q-49 -31 -98 -63q-39 -29 -67 -37 q2 -2 4 -5t5 -7t18.5 -14.5t15.5 -14.5q0 -14 -21 -14q-29 0 -53 35l-6 12q-18 -6 -64 -12q2 -6 6 -23q4 -45 -14 -49q-10 -2 -13 17.5t-5 37.5q0 2 -2 7t-5 10q-35 -2 -69 0q0 -76 -2 -89q-4 -27 -33 -26q-12 0 -8 18q6 18 10 35q4 43 10 62q-33 0 -121 31.5t-122 31.5 q-55 2 -144.5 -30.5t-144.5 -32.5q6 -18 12 -64q8 -55 -8 -55q-23 0 -27 28q2 -12 2 91q-27 0 -75 4q0 -6 -5.5 -24.5t-8.5 -37t-15 -16.5q-25 6 -14 49l8 33q-20 2 -64 14q-4 -8 -14 -25q-35 -53 -62 -28q-6 4 -6 10q0 -4 29 29l23 22q-66 29 -90.5 112t-24.5 81zM381 635 l2 -6q66 61 143 80q45 10 150 -7q94 -14 143 11l-4 6q-41 -23 -139 -8q-39 6 -76 12q-41 6 -78 -4q-29 -8 -73 -33q-51 -29 -68 -51zM420 915q2 -16 18.5 -27t26.5 -7q18 2 29.5 15.5t7.5 23.5q-2 18 -17.5 30.5t-25.5 7.5q-18 -2 -30.5 -17t-8.5 -26zM442 915q0 20 17 21 q20 0 20 -16q0 -18 -16 -19q-20 0 -21 14zM502 678q61 4 119 -6q66 -12 63 -13q82 0 158 43q-49 -23 -109 -22q-29 0 -78 6t-69 6q-18 0 -84 -14zM522 666q37 -12 75 -24.5t91 -12.5q20 0 60 10q47 12 59 14q33 7 123 -24v6q-55 35 -103 35q-25 0 -70.5 -15.5t-70.5 -15.5 q-51 0 -82 10q-55 16 -69 19zM831 922q4 -39 43 -35q18 2 28.5 15.5t6.5 23.5q-2 18 -16 29.5t-25 7.5q-18 -2 -29.5 -16.5t-7.5 -24.5zM854 922q0 18 14 18q19 0 19 -14q0 -16 -15 -17q-18 0 -18 13z" />
<glyph unicode="&#xba;" horiz-adv-x="901" d="M-29 360q0 80 68 146q123 119 338 119q274 0 260 -164q-6 -70 -76 -232q59 78 131 162q84 96 152 154q31 25 45 16q16 -10 4 -41q-51 -123 -102 -244q-55 -139 -86 -249q-4 -27 4 -31q12 -6 49 33q14 16 18 12q8 -6 -8 -18q-49 -68 -80 -64q-35 4 -24 66q16 98 77 247 q29 66 82 195q8 20 2 25q-8 4 -24 -13q-84 -84 -156 -172q-90 -111 -172 -274q-10 -12 -33 -43q-10 -16 -24 -13l10 23q57 135 123 311q29 76 39 142q20 141 -215 147q-209 4 -318 -98q-57 -55 -55 -129q2 -70 68 -107q18 -10 43 -14q-14 -8 -35 -8q-47 2 -76 35.5t-29 80.5 z" />
<glyph unicode="&#xbb;" horiz-adv-x="473" d="M-53 88q-4 6 16 29q100 109 187 168q-31 94 -41 166q-4 37 4 36q10 0 16 -24q25 -87 84 -189q-106 -59 -244 -178q-18 -14 -22 -8zM117 88q-4 6 16 29q100 109 186 168q-33 100 -40 166q-4 37 4 36q10 0 16 -24q27 -89 84 -189q-106 -59 -244 -178q-18 -14 -22 -8z" />
<glyph unicode="&#xbc;" horiz-adv-x="1400" d="M37 203q0 16 8 33q29 55 96 55q23 0 105 -12q-29 23 -29 51q0 27 27 69q-10 -2 -34 -14t-32 -12q-2 0 -4 2q-8 14 35 35q25 16 57 24q6 6 25 29q-8 4 -39 10q-18 2 -33.5 3t-13.5 11q2 8 20 9q41 10 80 -21q4 6 21 19q-29 49 -54 67q-12 10 -47 19q-20 6 -14 18 q10 20 74 -18q23 -12 51 -76q6 6 49 43q23 16 82 61q-16 -2 -38.5 -12t-33.5 -10q-20 0 -35.5 18.5t-15.5 38.5q0 33 41 109.5t41 103.5q0 20 -11.5 29.5t-11.5 29.5q0 23 17.5 41.5t38.5 18.5q49 0 55 -43q39 2 77 -16.5t60 -18.5q25 0 72 16.5t68 16.5q8 0 16 -2 q8 49 61 49q27 0 47.5 -17.5t14.5 -46.5q-2 -8 -11.5 -31.5t-9.5 -43.5q0 -41 31 -111t31 -92q0 -49 -56 -49q-23 0 -57 14q-41 20 -45 21q10 -27 49 -41q51 -20 67.5 -34t43.5 -36q23 18 65 65q4 4 17 25q8 14 14 14q4 0 9 -5t5 -13q0 -29 -100 -96q8 -6 31 -33q14 6 47 14 q45 10 51 -8q2 -12 -15.5 -13t-35.5 -1q-4 0 -35 -6q10 -10 33 -43q84 0 96 -2q27 -4 27 -27q0 -10 -8 -10q-6 0 -22.5 6t-23.5 8q-20 4 -59 10q37 -68 37 -100q0 -25 -21 -37q164 23 175 23q47 0 88 -72q8 -14 8 -31q0 -37 -56 -78q-49 -31 -98 -63q-39 -29 -67 -37 q2 -2 4 -5t5 -7t18.5 -14.5t15.5 -14.5q0 -14 -21 -14q-29 0 -53 35l-6 12q-18 -6 -64 -12q2 -6 6 -23q4 -45 -14 -49q-10 -2 -13 17.5t-5 37.5q0 2 -2 7t-5 10q-35 -2 -69 0q0 -76 -2 -89q-4 -27 -33 -26q-12 0 -8 18q6 18 10 35q4 43 10 62q-33 0 -121 31.5t-122 31.5 q-55 2 -144.5 -30.5t-144.5 -32.5q6 -18 12 -64q8 -55 -8 -55q-23 0 -27 28q2 -12 2 91q-27 0 -75 4q0 -6 -5.5 -24.5t-8.5 -37t-15 -16.5q-25 6 -14 49l8 33q-20 2 -64 14q-4 -8 -14 -25q-35 -53 -62 -28q-6 4 -6 10q0 -4 29 29l23 22q-66 29 -90.5 112t-24.5 81zM381 635 l2 -6q66 61 143 80q45 10 150 -7q94 -14 143 11l-4 6q-41 -23 -139 -8q-39 6 -76 12q-41 6 -78 -4q-29 -8 -73 -33q-51 -29 -68 -51zM420 915q2 -16 18.5 -27t26.5 -7q18 2 29.5 15.5t7.5 23.5q-2 18 -17.5 30.5t-25.5 7.5q-18 -2 -30.5 -17t-8.5 -26zM442 915q0 20 17 21 q20 0 20 -16q0 -18 -16 -19q-20 0 -21 14zM502 678q61 4 119 -6q66 -12 63 -13q82 0 158 43q-49 -23 -109 -22q-29 0 -78 6t-69 6q-18 0 -84 -14zM522 666q37 -12 75 -24.5t91 -12.5q20 0 60 10q47 12 59 14q33 7 123 -24v6q-55 35 -103 35q-25 0 -70.5 -15.5t-70.5 -15.5 q-51 0 -82 10q-55 16 -69 19zM831 922q4 -39 43 -35q18 2 28.5 15.5t6.5 23.5q-2 18 -16 29.5t-25 7.5q-18 -2 -29.5 -16.5t-7.5 -24.5zM854 922q0 18 14 18q19 0 19 -14q0 -16 -15 -17q-18 0 -18 13z" />
<glyph unicode="&#xbd;" horiz-adv-x="1400" d="M37 203q0 16 8 33q29 55 96 55q23 0 105 -12q-29 23 -29 51q0 27 27 69q-10 -2 -34 -14t-32 -12q-2 0 -4 2q-8 14 35 35q25 16 57 24q6 6 25 29q-8 4 -39 10q-18 2 -33.5 3t-13.5 11q2 8 20 9q41 10 80 -21q4 6 21 19q-29 49 -54 67q-12 10 -47 19q-20 6 -14 18 q10 20 74 -18q23 -12 51 -76q6 6 49 43q23 16 82 61q-16 -2 -38.5 -12t-33.5 -10q-20 0 -35.5 18.5t-15.5 38.5q0 33 41 109.5t41 103.5q0 20 -11.5 29.5t-11.5 29.5q0 23 17.5 41.5t38.5 18.5q49 0 55 -43q39 2 77 -16.5t60 -18.5q25 0 72 16.5t68 16.5q8 0 16 -2 q8 49 61 49q27 0 47.5 -17.5t14.5 -46.5q-2 -8 -11.5 -31.5t-9.5 -43.5q0 -41 31 -111t31 -92q0 -49 -56 -49q-23 0 -57 14q-41 20 -45 21q10 -27 49 -41q51 -20 67.5 -34t43.5 -36q23 18 65 65q4 4 17 25q8 14 14 14q4 0 9 -5t5 -13q0 -29 -100 -96q8 -6 31 -33q14 6 47 14 q45 10 51 -8q2 -12 -15.5 -13t-35.5 -1q-4 0 -35 -6q10 -10 33 -43q84 0 96 -2q27 -4 27 -27q0 -10 -8 -10q-6 0 -22.5 6t-23.5 8q-20 4 -59 10q37 -68 37 -100q0 -25 -21 -37q164 23 175 23q47 0 88 -72q8 -14 8 -31q0 -37 -56 -78q-49 -31 -98 -63q-39 -29 -67 -37 q2 -2 4 -5t5 -7t18.5 -14.5t15.5 -14.5q0 -14 -21 -14q-29 0 -53 35l-6 12q-18 -6 -64 -12q2 -6 6 -23q4 -45 -14 -49q-10 -2 -13 17.5t-5 37.5q0 2 -2 7t-5 10q-35 -2 -69 0q0 -76 -2 -89q-4 -27 -33 -26q-12 0 -8 18q6 18 10 35q4 43 10 62q-33 0 -121 31.5t-122 31.5 q-55 2 -144.5 -30.5t-144.5 -32.5q6 -18 12 -64q8 -55 -8 -55q-23 0 -27 28q2 -12 2 91q-27 0 -75 4q0 -6 -5.5 -24.5t-8.5 -37t-15 -16.5q-25 6 -14 49l8 33q-20 2 -64 14q-4 -8 -14 -25q-35 -53 -62 -28q-6 4 -6 10q0 -4 29 29l23 22q-66 29 -90.5 112t-24.5 81zM381 635 l2 -6q66 61 143 80q45 10 150 -7q94 -14 143 11l-4 6q-41 -23 -139 -8q-39 6 -76 12q-41 6 -78 -4q-29 -8 -73 -33q-51 -29 -68 -51zM420 915q2 -16 18.5 -27t26.5 -7q18 2 29.5 15.5t7.5 23.5q-2 18 -17.5 30.5t-25.5 7.5q-18 -2 -30.5 -17t-8.5 -26zM442 915q0 20 17 21 q20 0 20 -16q0 -18 -16 -19q-20 0 -21 14zM502 678q61 4 119 -6q66 -12 63 -13q82 0 158 43q-49 -23 -109 -22q-29 0 -78 6t-69 6q-18 0 -84 -14zM522 666q37 -12 75 -24.5t91 -12.5q20 0 60 10q47 12 59 14q33 7 123 -24v6q-55 35 -103 35q-25 0 -70.5 -15.5t-70.5 -15.5 q-51 0 -82 10q-55 16 -69 19zM831 922q4 -39 43 -35q18 2 28.5 15.5t6.5 23.5q-2 18 -16 29.5t-25 7.5q-18 -2 -29.5 -16.5t-7.5 -24.5zM854 922q0 18 14 18q19 0 19 -14q0 -16 -15 -17q-18 0 -18 13z" />
<glyph unicode="&#xbe;" horiz-adv-x="1400" d="M37 203q0 16 8 33q29 55 96 55q23 0 105 -12q-29 23 -29 51q0 27 27 69q-10 -2 -34 -14t-32 -12q-2 0 -4 2q-8 14 35 35q25 16 57 24q6 6 25 29q-8 4 -39 10q-18 2 -33.5 3t-13.5 11q2 8 20 9q41 10 80 -21q4 6 21 19q-29 49 -54 67q-12 10 -47 19q-20 6 -14 18 q10 20 74 -18q23 -12 51 -76q6 6 49 43q23 16 82 61q-16 -2 -38.5 -12t-33.5 -10q-20 0 -35.5 18.5t-15.5 38.5q0 33 41 109.5t41 103.5q0 20 -11.5 29.5t-11.5 29.5q0 23 17.5 41.5t38.5 18.5q49 0 55 -43q39 2 77 -16.5t60 -18.5q25 0 72 16.5t68 16.5q8 0 16 -2 q8 49 61 49q27 0 47.5 -17.5t14.5 -46.5q-2 -8 -11.5 -31.5t-9.5 -43.5q0 -41 31 -111t31 -92q0 -49 -56 -49q-23 0 -57 14q-41 20 -45 21q10 -27 49 -41q51 -20 67.5 -34t43.5 -36q23 18 65 65q4 4 17 25q8 14 14 14q4 0 9 -5t5 -13q0 -29 -100 -96q8 -6 31 -33q14 6 47 14 q45 10 51 -8q2 -12 -15.5 -13t-35.5 -1q-4 0 -35 -6q10 -10 33 -43q84 0 96 -2q27 -4 27 -27q0 -10 -8 -10q-6 0 -22.5 6t-23.5 8q-20 4 -59 10q37 -68 37 -100q0 -25 -21 -37q164 23 175 23q47 0 88 -72q8 -14 8 -31q0 -37 -56 -78q-49 -31 -98 -63q-39 -29 -67 -37 q2 -2 4 -5t5 -7t18.5 -14.5t15.5 -14.5q0 -14 -21 -14q-29 0 -53 35l-6 12q-18 -6 -64 -12q2 -6 6 -23q4 -45 -14 -49q-10 -2 -13 17.5t-5 37.5q0 2 -2 7t-5 10q-35 -2 -69 0q0 -76 -2 -89q-4 -27 -33 -26q-12 0 -8 18q6 18 10 35q4 43 10 62q-33 0 -121 31.5t-122 31.5 q-55 2 -144.5 -30.5t-144.5 -32.5q6 -18 12 -64q8 -55 -8 -55q-23 0 -27 28q2 -12 2 91q-27 0 -75 4q0 -6 -5.5 -24.5t-8.5 -37t-15 -16.5q-25 6 -14 49l8 33q-20 2 -64 14q-4 -8 -14 -25q-35 -53 -62 -28q-6 4 -6 10q0 -4 29 29l23 22q-66 29 -90.5 112t-24.5 81zM381 635 l2 -6q66 61 143 80q45 10 150 -7q94 -14 143 11l-4 6q-41 -23 -139 -8q-39 6 -76 12q-41 6 -78 -4q-29 -8 -73 -33q-51 -29 -68 -51zM420 915q2 -16 18.5 -27t26.5 -7q18 2 29.5 15.5t7.5 23.5q-2 18 -17.5 30.5t-25.5 7.5q-18 -2 -30.5 -17t-8.5 -26zM442 915q0 20 17 21 q20 0 20 -16q0 -18 -16 -19q-20 0 -21 14zM502 678q61 4 119 -6q66 -12 63 -13q82 0 158 43q-49 -23 -109 -22q-29 0 -78 6t-69 6q-18 0 -84 -14zM522 666q37 -12 75 -24.5t91 -12.5q20 0 60 10q47 12 59 14q33 7 123 -24v6q-55 35 -103 35q-25 0 -70.5 -15.5t-70.5 -15.5 q-51 0 -82 10q-55 16 -69 19zM831 922q4 -39 43 -35q18 2 28.5 15.5t6.5 23.5q-2 18 -16 29.5t-25 7.5q-18 -2 -29.5 -16.5t-7.5 -24.5zM854 922q0 18 14 18q19 0 19 -14q0 -16 -15 -17q-18 0 -18 13z" />
<glyph unicode="&#xbf;" horiz-adv-x="428" d="M-178 -215q0 131 162 268q59 47 188 160q106 104 137 182q16 43 0 47t-47 -34q-10 -12 -24 -35q-8 23 14 47q41 43 61 33q29 -11 13 -70q-25 -88 -129 -188q-70 -61 -187 -166q-135 -125 -135 -230q0 -51 29.5 -84.5t77.5 -31.5q82 4 131 86q29 57 22 108q-6 51 -26 82 q35 -29 45 -72q14 -59 -17 -125q-49 -109 -170 -114q-63 -4 -104 33.5t-41 103.5zM305 555q4 37 41 41q16 2 27.5 -7.5t9.5 -25.5q0 -39 -41 -43q-37 -4 -37 35z" />
<glyph unicode="&#xc0;" d="M-203 -90q-10 47 41 94q43 39 101 59q27 10 30 7q2 -4 -16 -13q-111 -43 -111 -118q0 -80 131 -76q248 6 670 344q174 139 348 313q-2 0 -45 19.5t-35 35.5t78 -12q10 -4 31 -12q248 250 496 592q-109 20 -336 67q-422 94 -682 121q-47 4 -97 4q-152 0 -245 -41 q-125 -55 -117 -174q4 -53 76 -125q59 -57 129 -98q18 -14 16 -14q-4 -6 -29 6q-70 37 -137 90q-88 70 -104 125q-8 29 -8 53q0 197 446 197q47 0 90 -2q225 -14 688 -113q135 -29 324 -76q25 39 74 113q35 51 41 98q4 29 0 49q0 20 10 21q10 0 14 -25q18 -121 0 -289 q55 -14 154 -34q43 -9 43 -11q-2 -10 -47 -2q-88 14 -152 29q-59 -354 -135 -590q-57 -180 -176 -416q106 117 174 142q16 8 16 -4q0 -6 -12 -11q-18 -6 -23 -10q-57 -39 -141 -147q-49 -61 -96 -127q-18 -25 -21 -25q-14 0 -4 19q16 35 39 86q80 174 185 499q63 197 88 293 q45 164 61 299l-82 17q-244 -358 -477 -602q135 -41 360 -66q18 0 17 -4q0 -8 -33 -8q-156 4 -279 26q-55 10 -94 23q-131 -131 -344 -305q-195 -160 -403 -260q-193 -92 -318 -99q-156 -8 -172 68zM1554 1159q12 -2 35 -8t35 -10q13 76 21 174q-4 -16 -23 -47 q-39 -66 -68 -109zM1571 1597q0 16 18 17q18 0 51 -39q60 -71 113 -100q-25 -4 -72 20.5t-75 50.5q-35 33 -35 51z" />
<glyph unicode="&#xc1;" d="M-203 -90q-10 47 41 94q43 39 101 59q27 10 30 7q2 -4 -16 -13q-111 -43 -111 -118q0 -80 131 -76q248 6 670 344q174 139 348 313q-2 0 -45 19.5t-35 35.5t78 -12q10 -4 31 -12q248 250 496 592q-109 20 -336 67q-422 94 -682 121q-47 4 -97 4q-152 0 -245 -41 q-125 -55 -117 -174q4 -53 76 -125q59 -57 129 -98q18 -14 16 -14q-4 -6 -29 6q-70 37 -137 90q-88 70 -104 125q-8 29 -8 53q0 197 446 197q47 0 90 -2q225 -14 688 -113q135 -29 324 -76q25 39 74 113q35 51 41 98q4 29 0 49q0 20 10 21q10 0 14 -25q18 -121 0 -289 q55 -14 154 -34q43 -9 43 -11q-2 -10 -47 -2q-88 14 -152 29q-59 -354 -135 -590q-57 -180 -176 -416q106 117 174 142q16 8 16 -4q0 -6 -12 -11q-18 -6 -23 -10q-57 -39 -141 -147q-49 -61 -96 -127q-18 -25 -21 -25q-14 0 -4 19q16 35 39 86q80 174 185 499q63 197 88 293 q45 164 61 299l-82 17q-244 -358 -477 -602q135 -41 360 -66q18 0 17 -4q0 -8 -33 -8q-156 4 -279 26q-55 10 -94 23q-131 -131 -344 -305q-195 -160 -403 -260q-193 -92 -318 -99q-156 -8 -172 68zM1554 1159q12 -2 35 -8t35 -10q13 76 21 174q-4 -16 -23 -47 q-39 -66 -68 -109zM1581 1475q53 29 113 100q33 39 51 39q18 -1 18 -17q0 -18 -31.5 -47.5t-78.5 -54.5t-72 -20z" />
<glyph unicode="&#xc2;" d="M-203 -90q-10 47 41 94q43 39 101 59q27 10 30 7q2 -4 -16 -13q-111 -43 -111 -118q0 -80 131 -76q248 6 670 344q174 139 348 313q-2 0 -45 19.5t-35 35.5t78 -12q10 -4 31 -12q248 250 496 592q-109 20 -336 67q-422 94 -682 121q-47 4 -97 4q-152 0 -245 -41 q-125 -55 -117 -174q4 -53 76 -125q59 -57 129 -98q18 -14 16 -14q-4 -6 -29 6q-70 37 -137 90q-88 70 -104 125q-8 29 -8 53q0 197 446 197q47 0 90 -2q225 -14 688 -113q135 -29 324 -76q25 39 74 113q35 51 41 98q4 29 0 49q0 20 10 21q10 0 14 -25q18 -121 0 -289 q55 -14 154 -34q43 -9 43 -11q-2 -10 -47 -2q-88 14 -152 29q-59 -354 -135 -590q-57 -180 -176 -416q106 117 174 142q16 8 16 -4q0 -6 -12 -11q-18 -6 -23 -10q-57 -39 -141 -147q-49 -61 -96 -127q-18 -25 -21 -25q-14 0 -4 19q16 35 39 86q80 174 185 499q63 197 88 293 q45 164 61 299l-82 17q-244 -358 -477 -602q135 -41 360 -66q18 0 17 -4q0 -8 -33 -8q-156 4 -279 26q-55 10 -94 23q-131 -131 -344 -305q-195 -160 -403 -260q-193 -92 -318 -99q-156 -8 -172 68zM1540 1481q-6 6 8 10q84 55 168 121q12 12 17 12q4 0 8 -18 q13 -60 31 -119q2 -10 -5 -10q-4 0 -12 8q-25 37 -39 74q-78 -49 -162 -78q-12 -4 -14 0zM1554 1159q12 -2 35 -8t35 -10q13 76 21 174q-4 -16 -23 -47q-39 -66 -68 -109z" />
<glyph unicode="&#xc3;" d="M-203 -90q-10 47 41 94q43 39 101 59q27 10 30 7q2 -4 -16 -13q-111 -43 -111 -118q0 -80 131 -76q248 6 670 344q174 139 348 313q-2 0 -45 19.5t-35 35.5t78 -12q10 -4 31 -12q248 250 496 592q-109 20 -336 67q-422 94 -682 121q-47 4 -97 4q-152 0 -245 -41 q-125 -55 -117 -174q4 -53 76 -125q59 -57 129 -98q18 -14 16 -14q-4 -6 -29 6q-70 37 -137 90q-88 70 -104 125q-8 29 -8 53q0 197 446 197q47 0 90 -2q225 -14 688 -113q135 -29 324 -76q25 39 74 113q35 51 41 98q4 29 0 49q0 20 10 21q10 0 14 -25q18 -121 0 -289 q55 -14 154 -34q43 -9 43 -11q-2 -10 -47 -2q-88 14 -152 29q-59 -354 -135 -590q-57 -180 -176 -416q106 117 174 142q16 8 16 -4q0 -6 -12 -11q-18 -6 -23 -10q-57 -39 -141 -147q-49 -61 -96 -127q-18 -25 -21 -25q-14 0 -4 19q16 35 39 86q80 174 185 499q63 197 88 293 q45 164 61 299l-82 17q-244 -358 -477 -602q135 -41 360 -66q18 0 17 -4q0 -8 -33 -8q-156 4 -279 26q-55 10 -94 23q-131 -131 -344 -305q-195 -160 -403 -260q-193 -92 -318 -99q-156 -8 -172 68zM1534 1489q-14 0 15.5 43t76.5 41q20 -2 54 -19.5t51 -19.5q33 -2 57 31 q4 14 12 10q4 -2 4 -6q0 -23 -34.5 -51.5t-57.5 -26.5q-20 2 -55 19.5t-49 19.5q-12 0 -60 -33q-10 -10 -14 -8zM1554 1159q12 -2 35 -8t35 -10q13 76 21 174q-4 -16 -23 -47q-39 -66 -68 -109z" />
<glyph unicode="&#xc4;" d="M-207 -90q-10 47 41 94q43 39 100 59q27 10 31 7q2 -4 -16 -13q-111 -43 -111 -118q0 -80 131 -76q248 6 670 344q174 139 348 313q-2 0 -45 19.5t-35 35.5t78 -12q10 -4 31 -12q248 250 495 592q-109 20 -335 67q-422 94 -682 121q-47 4 -97 4q-152 0 -245 -41 q-125 -55 -117 -174q4 -53 76 -125q59 -57 129 -98q18 -14 16 -14q-4 -6 -29 6q-70 37 -137 90q-88 70 -104 125q-8 29 -9 53q0 197 447 197q47 0 90 -2q225 -14 688 -113q135 -29 324 -76q25 39 73 113q35 51 41 98q4 29 0 49q0 20 11 21q10 0 14 -25q18 -121 0 -289 q55 -14 154 -34q43 -9 43 -11q-2 -10 -47 -2q-88 14 -152 29q-59 -354 -135 -590q-57 -180 -176 -416q106 117 174 142q16 8 16 -4q0 -6 -12 -11q-18 -6 -23 -10q-57 -39 -141 -147q-49 -61 -96 -127q-18 -25 -21 -25q-14 0 -4 19q16 35 39 86q80 174 184 499q63 197 88 293 q45 164 62 299l-82 17q-244 -358 -477 -602q135 -41 360 -66q18 0 17 -4q0 -8 -33 -8q-156 4 -279 26q-55 10 -94 23q-131 -131 -344 -305q-195 -160 -403 -260q-193 -92 -318 -99q-156 -8 -172 68zM1550 1159q12 -2 35 -8t35 -10q12 76 20 174q-4 -16 -22 -47 q-39 -66 -68 -109zM1554 1526q0 35 35 35t35 -35t-35 -35t-35 35zM1700 1526q0 35 35 35q34 0 34 -35t-34 -35q-35 0 -35 35z" />
<glyph unicode="&#xc5;" d="M-203 -90q-10 47 41 94q43 39 101 59q27 10 30 7q2 -4 -16 -13q-111 -43 -111 -118q0 -80 131 -76q248 6 670 344q174 139 348 313q-2 0 -45 19.5t-35 35.5t78 -12q10 -4 31 -12q248 250 496 592q-109 20 -336 67q-422 94 -682 121q-47 4 -97 4q-152 0 -245 -41 q-125 -55 -117 -174q4 -53 76 -125q59 -57 129 -98q18 -14 16 -14q-4 -6 -29 6q-70 37 -137 90q-88 70 -104 125q-8 29 -8 53q0 197 446 197q47 0 90 -2q225 -14 688 -113q135 -29 324 -76q25 39 74 113q35 51 41 98q4 29 0 49q0 20 10 21q10 0 14 -25q18 -121 0 -289 q55 -14 154 -34q43 -9 43 -11q-2 -10 -47 -2q-88 14 -152 29q-59 -354 -135 -590q-57 -180 -176 -416q106 117 174 142q16 8 16 -4q0 -6 -12 -11q-18 -6 -23 -10q-57 -39 -141 -147q-49 -61 -96 -127q-18 -25 -21 -25q-14 0 -4 19q16 35 39 86q80 174 185 499q63 197 88 293 q45 164 61 299l-82 17q-244 -358 -477 -602q135 -41 360 -66q18 0 17 -4q0 -8 -33 -8q-156 4 -279 26q-55 10 -94 23q-131 -131 -344 -305q-195 -160 -403 -260q-193 -92 -318 -99q-156 -8 -172 68zM1554 1159q12 -2 35 -8t35 -10q13 76 21 174q-4 -16 -23 -47 q-39 -66 -68 -109zM1561 1573q0 37 26.5 64.5t65.5 27.5t66.5 -27.5t27.5 -64.5q0 -41 -27.5 -69.5t-66.5 -28.5t-65.5 28.5t-26.5 69.5zM1593 1573q0 -63 60 -64q61 1 61 64q0 59 -61 59q-59 0 -60 -59z" />
<glyph unicode="&#xc6;" horiz-adv-x="1884" d="M-195 -72q0 41 45 82q41 35 91 53q27 10 30 7q2 -4 -16 -13q-111 -43 -111 -118q0 -76 131 -76q360 0 1080 741q-8 4 -27 8q-47 18 -47 35q2 4 4 6q8 8 96 -20q242 254 445 534q-111 23 -346 68q-449 82 -680 94q-41 2 -80 2q-393 0 -379 -213q4 -53 76 -125 q59 -57 129 -98q16 -12 16 -14q-4 -4 -29 8q-211 109 -241 213q-8 29 -8 53q0 197 444 197q45 0 92 -2q317 -16 686 -86q123 -23 342 -70q49 66 60 84q35 55 39 94q-2 -18 -2 49q0 20 10 21q8 0 14 -25q25 -115 10 -252q360 -94 519 -207q34 -24 24 -32q2 2 -27 18 q-57 35 -222 93.5t-298 92.5l-20 -122q-43 -236 -121 -484q231 -43 420 -49q31 0 28 -4q-2 -12 -61 -12q-178 0 -397 37q-96 -293 -174 -418q-37 -59 -72 -94q51 -27 176 -90q301 -154 459 -154q184 0 258 131q12 16 14 16q4 -2 -6 -28q-25 -57 -84 -99q-78 -53 -190 -55 q-182 -2 -469 145l-197 101q-10 -8 -27 -17q-68 -35 -153 -26q-45 4 -83 38t-38 70q0 29 23.5 50.5t54.5 21.5q25 0 84 -20q35 -12 153 -72q12 12 27 37q74 129 186 473q-233 45 -376 86q-158 -170 -261 -264q-258 -236 -495 -365q-219 -119 -363 -121q-166 -2 -166 86z M971 31q0 -78 96 -105q74 -20 127 19q15 10 23 18q-92 49 -130 66q-92 41 -102 34q-14 -10 -14 -32zM1118 623q158 -47 357 -86q94 285 127 446q22 109 28 160q-51 14 -76 18q-164 -238 -436 -538zM1575 1190q18 -4 59 -14q11 59 11 137q-4 -16 -23 -47q-10 -18 -47 -76z " />
<glyph unicode="&#xc7;" horiz-adv-x="1490" d="M-2 274q23 346 405 668q184 154 414 254q211 92 381 104q33 2 68 3q274 -1 307 -140q6 -23 6 -45q0 -109 -125 -184q-115 -70 -260 -70q-98 0 -168 31q-51 25 -80 61q-23 31 -16 39l24 -24q33 -35 80 -56q68 -31 160 -30q125 0 221 59q106 68 107 172q0 20 -4 43 q-27 123 -263 123q-33 0 -67 -2q-152 -14 -336 -96q-211 -94 -393 -252q-377 -326 -396 -660q-10 -193 134 -295q135 -96 385 -96q299 0 577 154q213 117 242 297q4 31 0 59q-2 10 -8 27q-4 8 0 10q20 4 32.5 -36t12.5 -62q-8 -172 -271 -318q-276 -154 -579 -155 q-12 -12 -21 -25q-6 -10 8 -12q78 -12 74 -70q-6 -84 -123 -80q-43 2 -82 21q-31 16 -38 27.5t-3 15.5q6 6 13 -2q33 -37 104 -37q76 0 86 53q8 41 -43 49q-14 0 -35 8q-4 2 13 23q8 10 24 29q-279 4 -426 104q-156 109 -141 313z" />
<glyph unicode="&#xc8;" horiz-adv-x="1275" d="M29 33q0 4 2 6l19 -21q20 -20 52 -32q49 -20 121 -21q180 0 322 123q-127 94 -193 137q-152 106 -198 117q-41 10 -41 -10q0 -37 73 -111q86 -84 185 -108q-115 4 -201 84q-76 68 -76 127q0 20 12 28q41 29 87 15q86 -29 387 -248q123 123 307 467q-31 10 -80 26 q-41 14 -29 37q6 12 56 -4q35 -12 69 -24q31 57 105 200q70 137 186 363q-207 59 -432 84q-45 4 -92 4q-154 0 -252 -45q-131 -59 -135 -193q-2 -59 63 -139q53 -66 117 -109q14 -14 14 -16q-2 -8 -26 8q-201 129 -220 238q-4 20 -4 39q0 135 166 196q117 43 293 43 q55 0 98 -4q242 -25 428 -73q70 127 127 188q41 43 56 37q2 -2 -31 -39q-43 -49 -115 -195q289 -78 449 -190q34 -25 24 -33q2 2 -26 19q-90 53 -463 170q-51 -111 -172 -365q-61 -123 -105 -203q80 -18 158 -33q156 -29 234 -30q18 0 16 -6q-2 -8 -35 -9q-166 0 -391 45 q-170 -311 -338 -469q51 -37 152 -108q385 -272 634 -272q170 0 244 126q8 18 15 17q6 -2 -7 -29q-20 -49 -73 -90q-78 -59 -187 -59q-195 0 -430 129q-129 70 -383 256q-170 -139 -348 -140q-100 0 -151 41q-37 27 -37 58zM1300 1597q0 16 19 17q18 0 51 -39 q60 -71 113 -100q-25 -4 -72 20.5t-76 50.5q-35 33 -35 51z" />
<glyph unicode="&#xc9;" horiz-adv-x="1275" d="M29 33q0 4 2 6l19 -21q20 -20 52 -32q49 -20 121 -21q180 0 322 123q-127 94 -193 137q-152 106 -198 117q-41 10 -41 -10q0 -37 73 -111q86 -84 185 -108q-115 4 -201 84q-76 68 -76 127q0 20 12 28q41 29 87 15q86 -29 387 -248q123 123 307 467q-31 10 -80 26 q-41 14 -29 37q6 12 56 -4q35 -12 69 -24q31 57 105 200q70 137 186 363q-207 59 -432 84q-45 4 -92 4q-154 0 -252 -45q-131 -59 -135 -193q-2 -59 63 -139q53 -66 117 -109q14 -14 14 -16q-2 -8 -26 8q-201 129 -220 238q-4 20 -4 39q0 135 166 196q117 43 293 43 q55 0 98 -4q242 -25 428 -73q70 127 127 188q41 43 56 37q2 -2 -31 -39q-43 -49 -115 -195q289 -78 449 -190q34 -25 24 -33q2 2 -26 19q-90 53 -463 170q-51 -111 -172 -365q-61 -123 -105 -203q80 -18 158 -33q156 -29 234 -30q18 0 16 -6q-2 -8 -35 -9q-166 0 -391 45 q-170 -311 -338 -469q51 -37 152 -108q385 -272 634 -272q170 0 244 126q8 18 15 17q6 -2 -7 -29q-20 -49 -73 -90q-78 -59 -187 -59q-195 0 -430 129q-129 70 -383 256q-170 -139 -348 -140q-100 0 -151 41q-37 27 -37 58zM1305 1477q53 29 112 100q33 39 51 39 q19 -1 19 -17q0 -18 -32 -47.5t-79 -54t-71 -20.5z" />
<glyph unicode="&#xca;" horiz-adv-x="1275" d="M29 33q0 4 2 6l19 -21q20 -20 52 -32q49 -20 121 -21q180 0 322 123q-127 94 -193 137q-152 106 -198 117q-41 10 -41 -10q0 -37 73 -111q86 -84 185 -108q-115 4 -201 84q-76 68 -76 127q0 20 12 28q41 29 87 15q86 -29 387 -248q123 123 307 467q-31 10 -80 26 q-41 14 -29 37q6 12 56 -4q35 -12 69 -24q31 57 105 200q70 137 186 363q-207 59 -432 84q-45 4 -92 4q-154 0 -252 -45q-131 -59 -135 -193q-2 -59 63 -139q53 -66 117 -109q14 -14 14 -16q-2 -8 -26 8q-201 129 -220 238q-4 20 -4 39q0 135 166 196q117 43 293 43 q55 0 98 -4q242 -25 428 -73q70 127 127 188q41 43 56 37q2 -2 -31 -39q-43 -49 -115 -195q289 -78 449 -190q34 -25 24 -33q2 2 -26 19q-90 53 -463 170q-51 -111 -172 -365q-61 -123 -105 -203q80 -18 158 -33q156 -29 234 -30q18 0 16 -6q-2 -8 -35 -9q-166 0 -391 45 q-170 -311 -338 -469q51 -37 152 -108q385 -272 634 -272q170 0 244 126q8 18 15 17q6 -2 -7 -29q-20 -49 -73 -90q-78 -59 -187 -59q-195 0 -430 129q-129 70 -383 256q-170 -139 -348 -140q-100 0 -151 41q-37 27 -37 58zM1270 1481q-6 6 8 10q84 55 168 121q12 12 16 12 t8 -18q13 -60 31 -119q2 -10 -4 -10q-4 0 -12 8q-25 37 -39 74q-78 -49 -162 -78q-12 -4 -14 0z" />
<glyph unicode="&#xcb;" horiz-adv-x="1275" d="M29 33q0 4 2 6l19 -21q20 -20 52 -32q49 -20 121 -21q180 0 322 123q-127 94 -193 137q-152 106 -198 117q-41 10 -41 -10q0 -37 73 -111q86 -84 185 -108q-115 4 -201 84q-76 68 -76 127q0 20 12 28q41 29 87 15q86 -29 387 -248q123 123 307 467q-31 10 -80 26 q-41 14 -29 37q6 12 56 -4q35 -12 69 -24q31 57 105 200q70 137 186 363q-207 59 -432 84q-45 4 -92 4q-154 0 -252 -45q-131 -59 -135 -193q-2 -59 63 -139q53 -66 117 -109q14 -14 14 -16q-2 -8 -26 8q-201 129 -220 238q-4 20 -4 39q0 135 166 196q117 43 293 43 q55 0 98 -4q242 -25 428 -73q70 127 127 188q41 43 56 37q2 -2 -31 -39q-43 -49 -115 -195q289 -78 449 -190q34 -25 24 -33q2 2 -26 19q-90 53 -463 170q-51 -111 -172 -365q-61 -123 -105 -203q80 -18 158 -33q156 -29 234 -30q18 0 16 -6q-2 -8 -35 -9q-166 0 -391 45 q-170 -311 -338 -469q51 -37 152 -108q385 -272 634 -272q170 0 244 126q8 18 15 17q6 -2 -7 -29q-20 -49 -73 -90q-78 -59 -187 -59q-195 0 -430 129q-129 70 -383 256q-170 -139 -348 -140q-100 0 -151 41q-37 27 -37 58zM1268 1526q0 35 35 35q34 0 34 -35t-34 -35 q-35 0 -35 35zM1413 1526q0 35 35 35t35 -35t-35 -35t-35 35z" />
<glyph unicode="&#xcc;" horiz-adv-x="829" d="M-45 1118q0 145 162 201q96 35 223 33q135 -2 442 -84q25 -6 236 -68q6 35 2 57q-4 12 0 17q8 2 16 -26.5t6 -53.5q18 -6 62 -18l35 -11q-2 -8 -35 -6q-41 8 -64 12q-12 -141 -110 -374q-150 -354 -369 -635q-164 -211 -280 -307q-74 -61 -125 -62q-51 0 -52 80 q0 133 91 238q14 16 47 41q-18 -23 -33 -50q-74 -147 -74 -249q0 -41 27 -41q43 0 102 55q131 125 262 315q211 307 346 619q92 213 142 377q-100 20 -248 61q-258 72 -440 88q-115 10 -201 -35q-121 -63 -109 -221q4 -59 60 -137q43 -61 90 -100q14 -18 14 -19q-2 -6 -22 8 q-172 127 -195 230q-8 35 -8 65zM938 1516q0 16 18 16t52 -39q59 -71 112 -100q-25 -4 -72 20.5t-75 50.5q-35 33 -35 52z" />
<glyph unicode="&#xcd;" horiz-adv-x="829" d="M-45 1118q0 145 162 201q96 35 223 33q135 -2 442 -84q25 -6 236 -68q6 35 2 57q-4 12 0 17q8 2 16 -26.5t6 -53.5q18 -6 62 -18l35 -11q-2 -8 -35 -6q-41 8 -64 12q-12 -141 -110 -374q-150 -354 -369 -635q-164 -211 -280 -307q-74 -61 -125 -62q-51 0 -52 80 q0 133 91 238q14 16 47 41q-18 -23 -33 -50q-74 -147 -74 -249q0 -41 27 -41q43 0 102 55q131 125 262 315q211 307 346 619q92 213 142 377q-100 20 -248 61q-258 72 -440 88q-115 10 -201 -35q-121 -63 -109 -221q4 -59 60 -137q43 -61 90 -100q14 -18 14 -19q-2 -6 -22 8 q-172 127 -195 230q-8 35 -8 65zM969 1393q53 29 112 100q33 39 52 39q18 0 18 -16q0 -18 -32 -48t-79 -54.5t-71 -20.5z" />
<glyph unicode="&#xce;" horiz-adv-x="829" d="M-45 1118q0 145 162 201q96 35 223 33q135 -2 442 -84q25 -6 236 -68q6 35 2 57q-4 12 0 17q8 2 16 -26.5t6 -53.5q18 -6 62 -18l35 -11q-2 -8 -35 -6q-41 8 -64 12q-12 -141 -110 -374q-150 -354 -369 -635q-164 -211 -280 -307q-74 -61 -125 -62q-51 0 -52 80 q0 133 91 238q14 16 47 41q-18 -23 -33 -50q-74 -147 -74 -249q0 -41 27 -41q43 0 102 55q131 125 262 315q211 307 346 619q92 213 142 377q-100 20 -248 61q-258 72 -440 88q-115 10 -201 -35q-121 -63 -109 -221q4 -59 60 -137q43 -61 90 -100q14 -18 14 -19q-2 -6 -22 8 q-172 127 -195 230q-8 35 -8 65zM913 1399q-6 6 9 10q84 55 168 121q12 12 16 12t8 -18q13 -60 31 -119q2 -10 -4 -10q-4 0 -13 8q-25 37 -38 74q-78 -49 -162 -78q-12 -4 -15 0z" />
<glyph unicode="&#xcf;" horiz-adv-x="829" d="M-45 1118q0 145 162 201q96 35 223 33q135 -2 442 -84q25 -6 236 -68q6 35 2 57q-4 12 0 17q8 2 16 -26.5t6 -53.5q18 -6 62 -18l35 -11q-2 -8 -35 -6q-41 8 -64 12q-12 -141 -110 -374q-150 -354 -369 -635q-164 -211 -280 -307q-74 -61 -125 -62q-51 0 -52 80 q0 133 91 238q14 16 47 41q-18 -23 -33 -50q-74 -147 -74 -249q0 -41 27 -41q43 0 102 55q131 125 262 315q211 307 346 619q92 213 142 377q-100 20 -248 61q-258 72 -440 88q-115 10 -201 -35q-121 -63 -109 -221q4 -59 60 -137q43 -61 90 -100q14 -18 14 -19q-2 -6 -22 8 q-172 127 -195 230q-8 35 -8 65zM926 1444q0 35 35 35q34 0 34 -35t-34 -35q-35 0 -35 35zM1071 1444q0 35 35 35t35 -35t-35 -35t-35 35z" />
<glyph unicode="&#xd0;" horiz-adv-x="1873" d="M35 1266q0 78 137 116q104 33 199 27q82 -4 73 -20q0 2 -53 4q-86 4 -174 -21q-123 -33 -123 -102q0 -90 223 -90q258 0 701 45l33 49l-37 -6q59 49 92 84q23 25 31 22q8 -2 -11 -37q-16 -25 -71 -108q78 6 153 6q326 0 498 -109q188 -119 188 -383q1 -86 -22 -176 q-74 -289 -305 -514q-209 -203 -516 -203q-190 0 -381 119q-137 84 -312 258q-49 -66 -114.5 -185.5t-89.5 -184.5q-12 -35 -13 -35q-16 0 0 55q45 145 191 379q-61 78 -109 125q-33 -16 -65 -96q-76 -188 -78 -314q-2 -111 31 -166q12 -23 12 -22q-18 4 -33 31 q-37 59 -37 161q0 170 74 344q35 82 63 87q20 2 50 -7q20 -6 118 -104q80 137 228 346q-8 0 -72 -2q-55 -2 -82 -2q-39 2 -37 10q4 25 221 37q141 188 383 516q-162 -14 -323 -31q-195 -16 -361 -18q-109 -2 -186 23q-94 31 -94 92zM385 268q66 -66 170 -151 q293 -242 504 -242q156 0 260 43q115 47 227 166q172 180 262 489q27 92 27 187q0 233 -150.5 340.5t-488.5 107.5q-76 0 -158 -6q-135 -199 -356 -520q281 -10 358 -53q-98 12 -389 12q-88 -117 -266 -373z" />
<glyph unicode="&#xd1;" d="M-119 -41q2 29 23 64q16 27 24 32q-14 -45 -14 -92q2 -115 143 -127q399 -33 846 619q215 315 273 491q29 88 2 146q-141 311 -496 311q-156 0 -259.5 -105.5t-94.5 -265.5q12 -238 192 -317q23 -8 21 -13q-6 -8 -33 3q-100 41 -150 96q-76 84 -82 235q-6 164 120 275.5 t306 111.5q375 0 539 -344q61 -129 100 -377q29 -184 33 -389q2 -115 -20 -262q16 57 55 178q47 119 182 426q104 219 185 346q88 139 176 195q39 25 90 27q53 2 76 -21q-6 2 -45 -2q-57 -8 -105 -39q-74 -47 -182 -217q-70 -109 -166 -303q-117 -236 -195 -426 q-41 -98 -73 -203q-37 -117 -58 -112q-16 2 11 65q8 14 22 51q16 98 2 293q-14 190 -49 414q-27 168 -70 291q0 -25 -12 -70q-63 -227 -260 -518q-205 -303 -461 -475q-242 -162 -432 -150q-174 12 -164 158zM-119 -41q2 29 23 64q16 27 24 32q-14 -45 -14 -92 q2 -115 143 -127q399 -33 846 619q215 315 273 491q29 88 2 146q-141 311 -496 311q-156 0 -259.5 -105.5t-94.5 -265.5q12 -238 192 -317q23 -8 21 -13q-6 -8 -33 3q-100 41 -150 96q-76 84 -82 235q-6 164 120 275.5t306 111.5q375 0 539 -344q61 -129 100 -377 q29 -184 33 -389q2 -115 -20 -262q16 57 55 178q47 119 182 426q104 219 185 346q88 139 176 195q39 25 90 27q53 2 76 -21q-6 2 -45 -2q-57 -8 -105 -39q-74 -47 -182 -217q-70 -109 -166 -303q-117 -236 -195 -426q-41 -98 -73 -203q-37 -117 -58 -112q-16 2 11 65 q8 14 22 51q16 98 2 293q-14 190 -49 414q-27 168 -70 291q0 -25 -12 -70q-63 -227 -260 -518q-205 -303 -461 -475q-242 -162 -432 -150q-174 12 -164 158zM1446 1325q-14 0 15.5 43t76.5 41q20 -2 54 -19.5t50 -19.5q33 -2 58 31q4 14 12 10q4 -2 4 -6q0 -23 -34.5 -51.5 t-57.5 -26.5q-20 2 -55 19.5t-49 19.5q-12 0 -60 -33q-10 -10 -14 -8z" />
<glyph unicode="&#xd2;" horiz-adv-x="1196" d="M61 176q-6 250 129 494q45 82 109 161q-35 68 -37 148q-6 160 129 274q129 109 311 113q391 6 488 -336q14 -47 -10 -51q-8 0 -27 51q-6 25 -35 74q-53 63 -164 67q-166 6 -299 -73q-168 -100 -303 -279q57 -98 168 -139q23 -8 21 -12q-6 -8 -33 2q-113 39 -178 118 q-33 -47 -94 -143q-152 -266 -144 -473q6 -143 92 -222t228 -79q176 0 350 137q145 113 262 297q227 360 227 633q0 262 -235 412q-12 4 -6 10q8 6 18 -2q78 -41 143 -121q83 -100 103 -217q10 -55 10 -115q0 -301 -209 -622q-111 -170 -276 -291q-197 -141 -383 -142 q-154 0 -252 86.5t-103 239.5zM309 979q4 -55 21 -111q127 147 288.5 239.5t335.5 82.5q93 -6 154 -49q-57 92 -164 147q-117 61 -262 60q-156 -2 -268.5 -108.5t-104.5 -260.5zM993 1597q0 16 19 17q18 0 51 -39q60 -71 113 -100q-25 -4 -72 20.5t-76 50.5q-35 33 -35 51z " />
<glyph unicode="&#xd3;" horiz-adv-x="1196" d="M61 176q-6 250 129 494q45 82 109 161q-35 68 -37 148q-6 160 129 274q129 109 311 113q391 6 488 -336q14 -47 -10 -51q-8 0 -27 51q-6 25 -35 74q-53 63 -164 67q-166 6 -299 -73q-168 -100 -303 -279q57 -98 168 -139q23 -8 21 -12q-6 -8 -33 2q-113 39 -178 118 q-33 -47 -94 -143q-152 -266 -144 -473q6 -143 92 -222t228 -79q176 0 350 137q145 113 262 297q227 360 227 633q0 262 -235 412q-12 4 -6 10q8 6 18 -2q78 -41 143 -121q83 -100 103 -217q10 -55 10 -115q0 -301 -209 -622q-111 -170 -276 -291q-197 -141 -383 -142 q-154 0 -252 86.5t-103 239.5zM309 979q4 -55 21 -111q127 147 288.5 239.5t335.5 82.5q93 -6 154 -49q-57 92 -164 147q-117 61 -262 60q-156 -2 -268.5 -108.5t-104.5 -260.5zM991 1475q53 29 113 100q33 39 51 39q19 -1 19 -17q0 -18 -32 -47.5t-79 -54.5t-72 -20z" />
<glyph unicode="&#xd4;" horiz-adv-x="1196" d="M61 176q-6 250 129 494q45 82 109 161q-35 68 -37 148q-6 160 129 274q129 109 311 113q391 6 488 -336q14 -47 -10 -51q-8 0 -27 51q-6 25 -35 74q-53 63 -164 67q-166 6 -299 -73q-168 -100 -303 -279q57 -98 168 -139q23 -8 21 -12q-6 -8 -33 2q-113 39 -178 118 q-33 -47 -94 -143q-152 -266 -144 -473q6 -143 92 -222t228 -79q176 0 350 137q145 113 262 297q227 360 227 633q0 262 -235 412q-12 4 -6 10q8 6 18 -2q78 -41 143 -121q83 -100 103 -217q10 -55 10 -115q0 -301 -209 -622q-111 -170 -276 -291q-197 -141 -383 -142 q-154 0 -252 86.5t-103 239.5zM309 979q4 -55 21 -111q127 147 288.5 239.5t335.5 82.5q93 -6 154 -49q-57 92 -164 147q-117 61 -262 60q-156 -2 -268.5 -108.5t-104.5 -260.5zM963 1481q-6 6 8 10q84 55 168 121q12 12 16 12t8 -18q13 -60 31 -119q2 -10 -4 -10 q-4 0 -12 8q-25 37 -39 74q-78 -49 -162 -78q-12 -4 -14 0z" />
<glyph unicode="&#xd5;" horiz-adv-x="1196" d="M61 176q-6 250 129 494q45 82 109 161q-35 68 -37 148q-6 160 129 274q129 109 311 113q391 6 488 -336q14 -47 -10 -51q-8 0 -27 51q-6 25 -35 74q-53 63 -164 67q-166 6 -299 -73q-168 -100 -303 -279q57 -98 168 -139q23 -8 21 -12q-6 -8 -33 2q-113 39 -178 118 q-33 -47 -94 -143q-152 -266 -144 -473q6 -143 92 -222t228 -79q176 0 350 137q145 113 262 297q227 360 227 633q0 262 -235 412q-12 4 -6 10q8 6 18 -2q78 -41 143 -121q83 -100 103 -217q10 -55 10 -115q0 -301 -209 -622q-111 -170 -276 -291q-197 -141 -383 -142 q-154 0 -252 86.5t-103 239.5zM309 979q4 -55 21 -111q127 147 288.5 239.5t335.5 82.5q93 -6 154 -49q-57 92 -164 147q-117 61 -262 60q-156 -2 -268.5 -108.5t-104.5 -260.5zM969 1489q-14 0 15.5 43t76.5 41q20 -2 54 -19.5t50 -19.5q33 -2 58 31q4 14 12 10q4 -2 4 -6 q0 -23 -34.5 -51.5t-57.5 -26.5q-20 2 -55 19.5t-50 19.5q-12 0 -59 -33q-10 -10 -14 -8z" />
<glyph unicode="&#xd6;" horiz-adv-x="1196" d="M61 176q-6 250 129 494q45 82 109 161q-35 68 -37 148q-6 160 129 274q129 109 311 113q391 6 488 -336q14 -47 -10 -51q-8 0 -27 51q-6 25 -35 74q-53 63 -164 67q-166 6 -299 -73q-168 -100 -303 -279q57 -98 168 -139q23 -8 21 -12q-6 -8 -33 2q-113 39 -178 118 q-33 -47 -94 -143q-152 -266 -144 -473q6 -143 92 -222t228 -79q176 0 350 137q145 113 262 297q227 360 227 633q0 262 -235 412q-12 4 -6 10q8 6 18 -2q78 -41 143 -121q83 -100 103 -217q10 -55 10 -115q0 -301 -209 -622q-111 -170 -276 -291q-197 -141 -383 -142 q-154 0 -252 86.5t-103 239.5zM309 979q4 -55 21 -111q127 147 288.5 239.5t335.5 82.5q93 -6 154 -49q-57 92 -164 147q-117 61 -262 60q-156 -2 -268.5 -108.5t-104.5 -260.5zM985 1526q0 35 35 35t35 -35t-35 -35t-35 35zM1130 1526q0 35 35 35t35 -35t-35 -35t-35 35z " />
<glyph unicode="&#xd7;" horiz-adv-x="1400" d="M37 203q0 16 8 33q29 55 96 55q23 0 105 -12q-29 23 -29 51q0 27 27 69q-10 -2 -34 -14t-32 -12q-2 0 -4 2q-8 14 35 35q25 16 57 24q6 6 25 29q-8 4 -39 10q-18 2 -33.5 3t-13.5 11q2 8 20 9q41 10 80 -21q4 6 21 19q-29 49 -54 67q-12 10 -47 19q-20 6 -14 18 q10 20 74 -18q23 -12 51 -76q6 6 49 43q23 16 82 61q-16 -2 -38.5 -12t-33.5 -10q-20 0 -35.5 18.5t-15.5 38.5q0 33 41 109.5t41 103.5q0 20 -11.5 29.5t-11.5 29.5q0 23 17.5 41.5t38.5 18.5q49 0 55 -43q39 2 77 -16.5t60 -18.5q25 0 72 16.5t68 16.5q8 0 16 -2 q8 49 61 49q27 0 47.5 -17.5t14.5 -46.5q-2 -8 -11.5 -31.5t-9.5 -43.5q0 -41 31 -111t31 -92q0 -49 -56 -49q-23 0 -57 14q-41 20 -45 21q10 -27 49 -41q51 -20 67.5 -34t43.5 -36q23 18 65 65q4 4 17 25q8 14 14 14q4 0 9 -5t5 -13q0 -29 -100 -96q8 -6 31 -33q14 6 47 14 q45 10 51 -8q2 -12 -15.5 -13t-35.5 -1q-4 0 -35 -6q10 -10 33 -43q84 0 96 -2q27 -4 27 -27q0 -10 -8 -10q-6 0 -22.5 6t-23.5 8q-20 4 -59 10q37 -68 37 -100q0 -25 -21 -37q164 23 175 23q47 0 88 -72q8 -14 8 -31q0 -37 -56 -78q-49 -31 -98 -63q-39 -29 -67 -37 q2 -2 4 -5t5 -7t18.5 -14.5t15.5 -14.5q0 -14 -21 -14q-29 0 -53 35l-6 12q-18 -6 -64 -12q2 -6 6 -23q4 -45 -14 -49q-10 -2 -13 17.5t-5 37.5q0 2 -2 7t-5 10q-35 -2 -69 0q0 -76 -2 -89q-4 -27 -33 -26q-12 0 -8 18q6 18 10 35q4 43 10 62q-33 0 -121 31.5t-122 31.5 q-55 2 -144.5 -30.5t-144.5 -32.5q6 -18 12 -64q8 -55 -8 -55q-23 0 -27 28q2 -12 2 91q-27 0 -75 4q0 -6 -5.5 -24.5t-8.5 -37t-15 -16.5q-25 6 -14 49l8 33q-20 2 -64 14q-4 -8 -14 -25q-35 -53 -62 -28q-6 4 -6 10q0 -4 29 29l23 22q-66 29 -90.5 112t-24.5 81zM381 635 l2 -6q66 61 143 80q45 10 150 -7q94 -14 143 11l-4 6q-41 -23 -139 -8q-39 6 -76 12q-41 6 -78 -4q-29 -8 -73 -33q-51 -29 -68 -51zM420 915q2 -16 18.5 -27t26.5 -7q18 2 29.5 15.5t7.5 23.5q-2 18 -17.5 30.5t-25.5 7.5q-18 -2 -30.5 -17t-8.5 -26zM442 915q0 20 17 21 q20 0 20 -16q0 -18 -16 -19q-20 0 -21 14zM502 678q61 4 119 -6q66 -12 63 -13q82 0 158 43q-49 -23 -109 -22q-29 0 -78 6t-69 6q-18 0 -84 -14zM522 666q37 -12 75 -24.5t91 -12.5q20 0 60 10q47 12 59 14q33 7 123 -24v6q-55 35 -103 35q-25 0 -70.5 -15.5t-70.5 -15.5 q-51 0 -82 10q-55 16 -69 19zM831 922q4 -39 43 -35q18 2 28.5 15.5t6.5 23.5q-2 18 -16 29.5t-25 7.5q-18 -2 -29.5 -16.5t-7.5 -24.5zM854 922q0 18 14 18q19 0 19 -14q0 -16 -15 -17q-18 0 -18 13z" />
<glyph unicode="&#xd8;" horiz-adv-x="1196" d="M74 197q-6 283 116 508q160 293 428 452q174 102 367 103q35 0 64.5 -4.5t31.5 -12.5q0 -2 -18 -2q-33 4 -68 4q-178 0 -340 -98q-240 -145 -413 -467q-143 -262 -133 -487q8 -178 112 -256q240 430 488 782q233 332 442 563q-57 78 -135 123q-8 8 -6 12q0 16 18 -2 q74 -41 137 -119q74 82 162 168q64 64 72 54q4 -4 -47 -60q-66 -70 -168 -186q100 -135 100 -324q0 -311 -209 -643q-111 -176 -278 -299q-195 -145 -383 -145q-98 0 -178 41l-89 -158q-49 -90 -53 -88t-4 8q0 14 37 94q27 59 84 158q-133 86 -137 281zM246 -80 q63 -39 166 -39q176 0 350 142q145 117 262 307q227 371 227 653q0 153 -82 272q-225 -270 -413 -534q-268 -377 -510 -801z" />
<glyph unicode="&#xd9;" horiz-adv-x="1497" d="M20 41l25 -8q14 -4 35 -4q113 0 268 108q-37 33 -65 62q-55 57 -148 141q-37 29 -61 14q-8 -4 -8 -20q0 -37 30 -78q37 -49 94 -68q-66 6 -106 56q-35 41 -35 86q0 29 17 39q25 23 83 -4t156 -123q35 -35 86 -78q51 39 84 69q188 184 327.5 441.5t143.5 425.5 q6 225 -225 229q-164 2 -346 -191.5t-182 -344.5q0 -94 92 -95q66 0 135 31q27 12 29 10q6 -10 -25 -24q-76 -35 -139 -35q-47 0 -81 28.5t-36 82.5q-4 170 168 358q184 201 393 199q121 -2 192.5 -68t73.5 -172q4 -201 -133 -455q-117 -217 -352 -430q-43 -39 -96 -78 q246 -217 399 -217q250 0 518 447q70 166 144 317q135 276 213 385q104 145 204 160q14 2 23 0q8 -2 6 -8q-20 -4 -53 -17q-72 -35 -158 -163q-72 -109 -154 -287q-133 -291 -221 -504q-57 -137 -121 -299q53 59 117 82q10 2 17 -2q0 -4 -13 -10q-18 -6 -24 -13 q-47 -39 -86 -86q-78 -96 -84 -94q-23 8 -11 41q49 127 164 410q-233 -385 -489 -385q-217 0 -438 217q-160 -109 -277 -109q-29 0 -49 8q-27 12 -21 23zM1364 1434q0 16 18 16t52 -39q59 -71 112 -100q-25 -4 -72 20.5t-75 50.5q-35 33 -35 52z" />
<glyph unicode="&#xda;" horiz-adv-x="1497" d="M20 41l25 -8q14 -4 35 -4q113 0 268 108q-37 33 -65 62q-55 57 -148 141q-37 29 -61 14q-8 -4 -8 -20q0 -37 30 -78q37 -49 94 -68q-66 6 -106 56q-35 41 -35 86q0 29 17 39q25 23 83 -4t156 -123q35 -35 86 -78q51 39 84 69q188 184 327.5 441.5t143.5 425.5 q6 225 -225 229q-164 2 -346 -191.5t-182 -344.5q0 -94 92 -95q66 0 135 31q27 12 29 10q6 -10 -25 -24q-76 -35 -139 -35q-47 0 -81 28.5t-36 82.5q-4 170 168 358q184 201 393 199q121 -2 192.5 -68t73.5 -172q4 -201 -133 -455q-117 -217 -352 -430q-43 -39 -96 -78 q246 -217 399 -217q250 0 518 447q70 166 144 317q135 276 213 385q104 145 204 160q14 2 23 0q8 -2 6 -8q-20 -4 -53 -17q-72 -35 -158 -163q-72 -109 -154 -287q-133 -291 -221 -504q-57 -137 -121 -299q53 59 117 82q10 2 17 -2q0 -4 -13 -10q-18 -6 -24 -13 q-47 -39 -86 -86q-78 -96 -84 -94q-23 8 -11 41q49 127 164 410q-233 -385 -489 -385q-217 0 -438 217q-160 -109 -277 -109q-29 0 -49 8q-27 12 -21 23zM1372 1311q53 29 113 100q33 39 51 39t18 -16q0 -18 -31.5 -48t-78.5 -54.5t-72 -20.5z" />
<glyph unicode="&#xdb;" horiz-adv-x="1497" d="M20 41l25 -8q14 -4 35 -4q113 0 268 108q-37 33 -65 62q-55 57 -148 141q-37 29 -61 14q-8 -4 -8 -20q0 -37 30 -78q37 -49 94 -68q-66 6 -106 56q-35 41 -35 86q0 29 17 39q25 23 83 -4t156 -123q35 -35 86 -78q51 39 84 69q188 184 327.5 441.5t143.5 425.5 q6 225 -225 229q-164 2 -346 -191.5t-182 -344.5q0 -94 92 -95q66 0 135 31q27 12 29 10q6 -10 -25 -24q-76 -35 -139 -35q-47 0 -81 28.5t-36 82.5q-4 170 168 358q184 201 393 199q121 -2 192.5 -68t73.5 -172q4 -201 -133 -455q-117 -217 -352 -430q-43 -39 -96 -78 q246 -217 399 -217q250 0 518 447q70 166 144 317q135 276 213 385q104 145 204 160q14 2 23 0q8 -2 6 -8q-20 -4 -53 -17q-72 -35 -158 -163q-72 -109 -154 -287q-133 -291 -221 -504q-57 -137 -121 -299q53 59 117 82q10 2 17 -2q0 -4 -13 -10q-18 -6 -24 -13 q-47 -39 -86 -86q-78 -96 -84 -94q-23 8 -11 41q49 127 164 410q-233 -385 -489 -385q-217 0 -438 217q-160 -109 -277 -109q-29 0 -49 8q-27 12 -21 23zM1329 1317q-6 6 8 10q84 55 168 121q12 12 17 12q4 0 8 -18q13 -60 31 -119q2 -10 -5 -10q-4 0 -12 8q-25 37 -39 74 q-78 -49 -162 -78q-12 -4 -14 0z" />
<glyph unicode="&#xdc;" horiz-adv-x="1497" d="M20 41l25 -8q14 -4 35 -4q113 0 268 108q-37 33 -65 62q-55 57 -148 141q-37 29 -61 14q-8 -4 -8 -20q0 -37 30 -78q37 -49 94 -68q-66 6 -106 56q-35 41 -35 86q0 29 17 39q25 23 83 -4t156 -123q35 -35 86 -78q51 39 84 69q188 184 327.5 441.5t143.5 425.5 q6 225 -225 229q-164 2 -346 -191.5t-182 -344.5q0 -94 92 -95q66 0 135 31q27 12 29 10q6 -10 -25 -24q-76 -35 -139 -35q-47 0 -81 28.5t-36 82.5q-4 170 168 358q184 201 393 199q121 -2 192.5 -68t73.5 -172q4 -201 -133 -455q-117 -217 -352 -430q-43 -39 -96 -78 q246 -217 399 -217q250 0 518 447q70 166 144 317q135 276 213 385q104 145 204 160q14 2 23 0q8 -2 6 -8q-20 -4 -53 -17q-72 -35 -158 -163q-72 -109 -154 -287q-133 -291 -221 -504q-57 -137 -121 -299q53 59 117 82q10 2 17 -2q0 -4 -13 -10q-18 -6 -24 -13 q-47 -39 -86 -86q-78 -96 -84 -94q-23 8 -11 41q49 127 164 410q-233 -385 -489 -385q-217 0 -438 217q-160 -109 -277 -109q-29 0 -49 8q-27 12 -21 23zM1335 1362q0 35 35 35t35 -35t-35 -35t-35 35zM1481 1362q0 35 35 35q34 0 34 -35t-34 -35q-35 0 -35 35z" />
<glyph unicode="&#xdd;" horiz-adv-x="1341" d="M-133 -649q0 4 2 6q-4 -4 31 -23q45 -25 137 -24q350 0 653 297q295 289 576 889q51 109 157 342q-211 -358 -514 -625q-268 -233 -446 -289q-53 -16 -76 0q-31 23 2 92q12 23 153.5 246t213.5 369q162 332 149 526q-12 197 -211 205q-174 6 -356 -109 q-143 -90 -242 -215q-115 -143 -108 -266q4 -90 94 -94q59 -2 135 33q27 12 27 10q4 -8 -23 -23q-74 -39 -139 -39q-109 0 -115 111q-6 137 101 285q90 127 217 205q209 129 411 120q129 -4 200 -88t67 -215q-4 -201 -152 -475q-78 -143 -356 -565q-43 -63 -31 -82 q14 -23 74 4q162 70 403 281q309 270 545 678q23 80 76 180q23 43 39 35q20 -4 8 -39q-25 -68 -96 -181q-86 -262 -185 -479q-236 -514 -577 -840q-352 -334 -682 -333q-74 0 -123 37q-39 29 -39 53zM1227 1311q53 29 112 100q33 39 52 39q18 0 18 -16q0 -18 -31.5 -48 t-79 -54.5t-71.5 -20.5z" />
<glyph unicode="&#xde;" horiz-adv-x="1234" d="M-25 -86q0 168 121 295q29 31 59.5 52.5t32.5 17.5q16 -16 -28 -48q-25 -14 -49 -30q-92 -139 -93 -312q0 -72 21 -75q39 -8 111 61q123 119 323 494q-23 18 -61 47q-49 45 -50 69q0 4 3 7q2 0 16 -19q20 -27 44 -46t56 -42q33 57 107 209q111 225 198 391 q-106 4 -346 21q-125 12 -166 22q-80 23 -73 74q6 53 112 80q86 23 181 18q49 -2 49 -10t-33 -6q-252 10 -266 -80q-8 -59 200 -76q109 -6 353 -24q158 295 231 370q47 47 57 37l-30 -43q-94 -125 -211 -369q27 -2 96 -10q457 -55 457 -299q-1 -43 -17 -94 q-55 -178 -237 -260q-143 -61 -342 -57q-158 4 -285 67q-184 -328 -352 -481q-86 -78 -135 -70q-53 10 -54 119zM526 365q127 -61 275 -64q415 -4 524 299q16 47 16 90q0 229 -409 281q-63 8 -96 10q-57 -119 -195 -399q-57 -117 -115 -217z" />
<glyph unicode="&#xdf;" horiz-adv-x="440" d="M-59 -139q6 84 28 166q43 160 117 335q80 193 178 345q180 279 322 278q12 0 24 -2q43 -8 43 -72q0 -73 -61 -118q-43 -31 -113 -66q-96 -49 -141 -106q-39 -49 -25 -119q27 -139 27 -205q0 -154 -80 -250q-70 -84 -149 -80q-51 4 -52 64q0 10 3.5 26.5t21.5 36t27 12.5 q2 -2 -5 -12q-12 -16 -15 -32.5t-3 -26.5q0 -45 43 -49q66 -6 114 94t48 229q0 49 -6 111q-6 70 -6 86q-2 72 44 127t142 106q43 23 113 66q39 31 38 88q0 57 -45 65q-123 23 -272 -258q-106 -203 -143 -286q-109 -254 -154 -396q-8 -27 -39 -153q-2 -27 -12 -55 q-6 -2 -10 12t-2 39z" />
<glyph unicode="&#xe0;" horiz-adv-x="468" d="M-35 84q0 68 47 173t144 202q104 102 176 102q41 0 53 -43q6 12 20.5 30.5t28.5 16.5q14 -1 6 -24q-37 -90 -112 -285q-59 -158 -103 -233q53 68 103.5 106.5t70.5 44.5q12 6 15 2q4 -6 -11 -12q-39 -20 -84 -66q-33 -31 -112 -125q-18 -27 -35 -22q-12 2 -2 24 q49 106 149 371q-80 -137 -169 -233q-94 -102 -144 -97q-41 6 -41 68zM6 82q0 -27 17 -29q43 -6 129 90q74 84 143 197q40 67 67 139q4 12 5 23q0 39 -41 39q-68 0 -147 -94.5t-138 -239.5q-35 -86 -35 -125zM297 778q0 16 18 17q18 0 52 -39q59 -72 112 -101 q-25 -4 -72 20.5t-75 51.5q-35 33 -35 51z" />
<glyph unicode="&#xe1;" horiz-adv-x="468" d="M-35 84q0 68 47 173t144 202q104 102 176 102q41 0 53 -43q6 12 20.5 30.5t28.5 16.5q14 -1 6 -24q-37 -90 -112 -285q-59 -158 -103 -233q53 68 103.5 106.5t70.5 44.5q12 6 15 2q4 -6 -11 -12q-39 -20 -84 -66q-33 -31 -112 -125q-18 -27 -35 -22q-12 2 -2 24 q49 106 149 371q-80 -137 -169 -233q-94 -102 -144 -97q-41 6 -41 68zM6 82q0 -27 17 -29q43 -6 129 90q74 84 143 197q40 67 67 139q4 12 5 23q0 39 -41 39q-68 0 -147 -94.5t-138 -239.5q-35 -86 -35 -125zM293 655q53 29 113 101q33 39 51 39q18 -1 18 -17 q0 -18 -31.5 -48t-79 -54.5t-71.5 -20.5z" />
<glyph unicode="&#xe2;" horiz-adv-x="468" d="M-35 84q0 68 47 173t144 202q104 102 176 102q41 0 53 -43q6 12 20.5 30.5t28.5 16.5q14 -1 6 -24q-37 -90 -112 -285q-59 -158 -103 -233q53 68 103.5 106.5t70.5 44.5q12 6 15 2q4 -6 -11 -12q-39 -20 -84 -66q-33 -31 -112 -125q-18 -27 -35 -22q-12 2 -2 24 q49 106 149 371q-80 -137 -169 -233q-94 -102 -144 -97q-41 6 -41 68zM6 82q0 -27 17 -29q43 -6 129 90q74 84 143 197q40 67 67 139q4 12 5 23q0 39 -41 39q-68 0 -147 -94.5t-138 -239.5q-35 -86 -35 -125zM262 662q-6 6 8 10q84 55 168 121q12 12 17 12q4 0 8 -19 q13 -59 31 -118q2 -10 -5 -11q-4 0 -12 9q-25 37 -39 73q-78 -49 -162 -77q-12 -4 -14 0z" />
<glyph unicode="&#xe3;" horiz-adv-x="468" d="M-35 84q0 68 47 173t144 202q104 102 176 102q41 0 53 -43q6 12 20.5 30.5t28.5 16.5q14 -1 6 -24q-37 -90 -112 -285q-59 -158 -103 -233q53 68 103.5 106.5t70.5 44.5q12 6 15 2q4 -6 -11 -12q-39 -20 -84 -66q-33 -31 -112 -125q-18 -27 -35 -22q-12 2 -2 24 q49 106 149 371q-80 -137 -169 -233q-94 -102 -144 -97q-41 6 -41 68zM6 82q0 -27 17 -29q43 -6 129 90q74 84 143 197q40 67 67 139q4 12 5 23q0 39 -41 39q-68 0 -147 -94.5t-138 -239.5q-35 -86 -35 -125zM238 670q-14 0 15.5 43t76.5 41q20 -2 54 -19.5t50 -19.5 q33 -2 58 30q4 14 12 11q4 -2 4 -6q0 -23 -34.5 -51.5t-57.5 -26.5q-20 2 -55 19.5t-50 19.5q-12 0 -59 -33q-10 -10 -14 -8z" />
<glyph unicode="&#xe4;" horiz-adv-x="468" d="M-35 84q0 68 47 173t144 202q104 102 176 102q41 0 53 -43q6 12 20.5 30.5t28.5 16.5q14 -1 6 -24q-37 -90 -112 -285q-59 -158 -103 -233q53 68 103.5 106.5t70.5 44.5q12 6 15 2q4 -6 -11 -12q-39 -20 -84 -66q-33 -31 -112 -125q-18 -27 -35 -22q-12 2 -2 24 q49 106 149 371q-80 -137 -169 -233q-94 -102 -144 -97q-41 6 -41 68zM6 82q0 -27 17 -29q43 -6 129 90q74 84 143 197q40 67 67 139q4 12 5 23q0 39 -41 39q-68 0 -147 -94.5t-138 -239.5q-35 -86 -35 -125zM285 707q0 35 34 34q35 1 35 -34t-35 -35t-34 35zM430 707 q0 35 35 34q35 1 35 -34t-35 -35t-35 35z" />
<glyph unicode="&#xe5;" horiz-adv-x="468" d="M-35 84q0 68 47 173t144 202q104 102 176 102q41 0 53 -43q6 12 20.5 30.5t28.5 16.5q14 -1 6 -24q-37 -90 -112 -285q-59 -158 -103 -233q53 68 103.5 106.5t70.5 44.5q12 6 15 2q4 -6 -11 -12q-39 -20 -84 -66q-33 -31 -112 -125q-18 -27 -35 -22q-12 2 -2 24 q49 106 149 371q-80 -137 -169 -233q-94 -102 -144 -97q-41 6 -41 68zM6 82q0 -27 17 -29q43 -6 129 90q74 84 143 197q40 67 67 139q4 12 5 23q0 39 -41 39q-68 0 -147 -94.5t-138 -239.5q-35 -86 -35 -125zM317 733q0 37 27 64.5t66 27.5t66.5 -27.5t27.5 -64.5 q0 -41 -27.5 -69.5t-66.5 -28.5t-66 28.5t-27 69.5zM350 733q0 -63 60 -63q61 0 61 63q0 59 -61 60q-59 0 -60 -60z" />
<glyph unicode="&#xe6;" horiz-adv-x="606" d="M-41 72q0 78 48 184t145 203q104 102 176 102q41 0 53 -43q6 12 20.5 30.5t28.5 16.5q12 -2 4 -24q-18 -35 -47 -97q117 143 234 142q41 0 41 -33q0 -37 -39 -74q-59 -55 -138 -49q-35 2 -67 19q-35 -47 -58 -95q-55 -111 -84 -215q-27 -96 19 -110q41 -12 98 39 q43 39 73 91t40 107q16 25 12 25q8 0 6 -23q-2 -55 -45 -128.5t-98 -110.5t-100 -31q-55 8 -56 90q0 39 15 86q25 78 67 156q-215 -348 -305 -334q-43 6 -43 76zM2 68q0 -33 16 -35q76 -12 273 307q40 67 67 139q4 12 4 23q0 39 -40 39q-68 0 -147 -94.5t-138 -239.5 q-35 -86 -35 -139zM430 461q27 -14 62 -15q43 -2 81.5 32t36.5 65q0 20 -24 20q-35 0 -85 -35.5t-71 -66.5z" />
<glyph unicode="&#xe7;" horiz-adv-x="325" d="M-129 -123q6 6 12 -2q33 -37 105 -37q76 0 86 53q8 41 -43 50q-14 0 -35 8q-4 6 12 22q10 10 23 27q-59 12 -60 94q0 61 33 156q43 121 123 223q90 115 168 117q49 0 53 -37q2 -31 -33 -55q-18 -8 -20 -4q-2 2 4 19t6 34q0 20 -14 22q-57 8 -135 -115.5t-119 -271.5 q-18 -70 -19 -106q0 -51 37 -51q41 0 99 67q53 61 94 146q23 45 20 45q14 -2 -8 -56q-33 -82 -93.5 -149.5t-111.5 -77.5q-16 -16 -20 -23q-6 -10 8 -12q78 -12 74 -69q-6 -84 -123 -80q-43 2 -82 20q-31 16 -38 27.5t-3 15.5z" />
<glyph unicode="&#xe8;" horiz-adv-x="346" d="M-37 78q0 137 121 315q131 195 276 193q41 0 41 -33q0 -37 -39 -74q-63 -59 -137 -49q-35 4 -59 16q-37 -53 -57 -92q-59 -121 -86 -215q-12 -45 -13 -73q0 -43 25 -52q39 -12 98 47q43 45 73 97.5t40 107.5q16 25 12 25q8 0 6 -23q-2 -55 -46 -130t-98 -118t-100 -36 q-57 8 -57 94zM178 459q16 -6 53 -13q43 -2 82 32t37 65q0 20 -24 20q-35 0 -84 -39q-41 -35 -64 -65zM270 778q0 16 19 17q18 0 51 -39q60 -72 113 -101q-25 -4 -72 20.5t-76 51.5q-35 33 -35 51z" />
<glyph unicode="&#xe9;" horiz-adv-x="346" d="M-37 78q0 137 121 315q131 195 276 193q41 0 41 -33q0 -37 -39 -74q-63 -59 -137 -49q-35 4 -59 16q-37 -53 -57 -92q-59 -121 -86 -215q-12 -45 -13 -73q0 -43 25 -52q39 -12 98 47q43 45 73 97.5t40 107.5q16 25 12 25q8 0 6 -23q-2 -55 -46 -130t-98 -118t-100 -36 q-57 8 -57 94zM178 459q16 -6 53 -13q43 -2 82 32t37 65q0 20 -24 20q-35 0 -84 -39q-41 -35 -64 -65zM266 655q53 29 113 101q33 39 51 39q19 -1 19 -17q0 -18 -32 -48t-79 -54.5t-72 -20.5z" />
<glyph unicode="&#xea;" horiz-adv-x="346" d="M-37 78q0 137 121 315q131 195 276 193q41 0 41 -33q0 -37 -39 -74q-63 -59 -137 -49q-35 4 -59 16q-37 -53 -57 -92q-59 -121 -86 -215q-12 -45 -13 -73q0 -43 25 -52q39 -12 98 47q43 45 73 97.5t40 107.5q16 25 12 25q8 0 6 -23q-2 -55 -46 -130t-98 -118t-100 -36 q-57 8 -57 94zM178 459q16 -6 53 -13q43 -2 82 32t37 65q0 20 -24 20q-35 0 -84 -39q-41 -35 -64 -65zM217 662q-6 6 8 10q84 55 168 121q12 12 17 12q4 0 8 -19q13 -59 31 -118q2 -10 -5 -11q-4 0 -12 9q-25 37 -39 73q-78 -49 -162 -77q-12 -4 -14 0z" />
<glyph unicode="&#xeb;" horiz-adv-x="346" d="M-37 78q0 137 121 315q131 195 276 193q41 0 41 -33q0 -37 -39 -74q-63 -59 -137 -49q-35 4 -59 16q-37 -53 -57 -92q-59 -121 -86 -215q-12 -45 -13 -73q0 -43 25 -52q39 -12 98 47q43 45 73 97.5t40 107.5q16 25 12 25q8 0 6 -23q-2 -55 -46 -130t-98 -118t-100 -36 q-57 8 -57 94zM178 459q16 -6 53 -13q43 -2 82 32t37 65q0 20 -24 20q-35 0 -84 -39q-41 -35 -64 -65zM248 707q0 35 35 34q34 1 34 -34t-34 -35q-35 0 -35 35zM393 707q0 35 35 34q35 1 35 -34t-35 -35t-35 35z" />
<glyph unicode="&#xec;" horiz-adv-x="260" d="M-29 -12q66 209 107 315q61 160 102 229q-25 -12 -30 -12q-18 0 -19 6q0 2 25 13q37 14 69 36q12 8 17 5q4 -7 -4 -25q-66 -129 -113 -252q-33 -88 -90 -246q68 59 104 76q14 6 15 -2q0 4 -33 -22q-43 -35 -74 -74q-61 -78 -65 -76q-18 2 -11 29zM154 778q0 16 18 17 q18 0 51 -39q60 -72 113 -101q-25 -4 -72 20.5t-76 51.5q-35 33 -34 51z" />
<glyph unicode="&#xed;" horiz-adv-x="260" d="M-29 -12q66 209 107 315q61 160 102 229q-25 -12 -30 -12q-18 0 -19 6q0 2 25 13q37 14 69 36q12 8 17 5q4 -7 -4 -25q-66 -129 -113 -252q-33 -88 -90 -246q68 59 104 76q14 6 15 -2q0 4 -33 -22q-43 -35 -74 -74q-61 -78 -65 -76q-18 2 -11 29zM-29 -12q66 209 107 315 q61 160 102 229q-25 -12 -30 -12q-18 0 -19 6q0 2 25 13q37 14 69 36q12 8 17 5q4 -7 -4 -25q-66 -129 -113 -252q-33 -88 -90 -246q68 59 104 76q14 6 15 -2q0 4 -33 -22q-43 -35 -74 -74q-61 -78 -65 -76q-18 2 -11 29zM150 655q53 29 112 101q33 39 51 39q19 -1 19 -17 q0 -18 -32 -48t-79 -54.5t-71 -20.5zM150 655q53 29 112 101q33 39 51 39q19 -1 19 -17q0 -18 -32 -48t-79 -54.5t-71 -20.5z" />
<glyph unicode="&#xee;" horiz-adv-x="260" d="M-29 -12q66 209 107 315q61 160 102 229q-25 -12 -30 -12q-18 0 -19 6q0 2 25 13q37 14 69 36q12 8 17 5q4 -7 -4 -25q-66 -129 -113 -252q-33 -88 -90 -246q68 59 104 76q14 6 15 -2q0 4 -33 -22q-43 -35 -74 -74q-61 -78 -65 -76q-18 2 -11 29zM109 662q-6 6 8 10 q84 55 168 121q12 12 16 12t8 -19q13 -59 31 -118q2 -10 -4 -11q-4 0 -12 9q-25 37 -39 73q-78 -49 -162 -77q-12 -4 -14 0z" />
<glyph unicode="&#xef;" horiz-adv-x="260" d="M-29 -12q66 209 107 315q61 160 102 229q-25 -12 -30 -12q-18 0 -19 6q0 2 25 13q37 14 69 36q12 8 17 5q4 -7 -4 -25q-66 -129 -113 -252q-33 -88 -90 -246q68 59 104 76q14 6 15 -2q0 4 -33 -22q-43 -35 -74 -74q-61 -78 -65 -76q-18 2 -11 29zM129 707q0 35 35 34 q35 1 35 -34t-35 -35t-35 35zM274 707q0 35 35 34q35 1 35 -34t-35 -35t-35 35z" />
<glyph unicode="&#xf0;" horiz-adv-x="382" d="M-20 100q0 61 20 125q37 113 119 217q100 133 196 133q20 0 29.5 -7t5.5 -11q4 6 -35 6q-18 0 -32 -8q-170 -92 -248 -403q-14 -55 -15 -84q0 -41 25 -50q41 -14 109 70q74 94 147 268q104 250 105 445q-16 -8 -50 -23q-90 -43 -159 -84q8 47 161 117q16 8 48 18 q-20 238 -281 218q-55 -4 -53 -7q-14 14 59 23q29 2 55 2q131 0 203 -74q55 -59 62 -147q92 28 131 20q-76 -23 -129 -45q2 -266 -160 -565q-55 -100 -129 -178q-84 -92 -133 -82q-51 10 -51 106z" />
<glyph unicode="&#xf1;" horiz-adv-x="409" d="M-55 2q-8 2 0 23q12 31 108 278l90 236q6 18 -8 18q-18 0 -43 -25q-10 -10 -14 -2q-2 6 8 13q27 27 88 55q18 2 25 -10q6 -10 0 -27q-45 -113 -129 -332q59 78 131 162q84 96 151 154q31 25 45 16q16 -10 4 -41q-51 -123 -102 -244q-55 -139 -86 -249q-4 -27 4 -31 q12 -6 49 33q14 16 19 12q8 -6 -9 -18q-49 -68 -79 -64q-35 4 -25 66q16 98 78 247q29 66 82 195q8 20 2 25q-8 4 -25 -13q-84 -84 -155 -172q-39 -47 -162 -250q-10 -12 -33 -43q-8 -14 -14 -12zM180 670q-14 0 15.5 43t76.5 41q20 -2 54 -19.5t51 -19.5q33 -2 57 30 q4 14 12 11q4 -2 5 -6q0 -23 -35 -51.5t-58 -26.5q-20 2 -55 19.5t-49 19.5q-12 0 -59 -33q-10 -10 -15 -8z" />
<glyph unicode="&#xf2;" horiz-adv-x="366" d="M-20 96q0 66 30 158q25 74 85.5 153.5t115.5 112.5q25 20 33 12q-2 2 -25 -24q-129 -141 -184 -336q-16 -59 -17 -96q0 -45 23 -53q43 -16 124 93t122 261q18 63 18 94q0 49 -37 84q-27 27 -30 37q-4 20 14 26q18 8 31 -18q4 -8 36 -49q18 -23 50 -27q25 -4 39 2 q22 4 20 6q4 -6 -16.5 -17t-42.5 -11q-18 0 -47 16q8 -23 8 -59q0 -98 -49 -205q-45 -98 -121 -180q-82 -88 -131 -78t-49 98zM240 778q0 16 18 17q18 0 51 -39q60 -72 113 -101q-25 -4 -72 20.5t-76 51.5q-35 33 -34 51z" />
<glyph unicode="&#xf3;" horiz-adv-x="366" d="M-20 96q0 66 30 158q25 74 85.5 153.5t115.5 112.5q25 20 33 12q-2 2 -25 -24q-129 -141 -184 -336q-16 -59 -17 -96q0 -45 23 -53q43 -16 124 93t122 261q18 63 18 94q0 49 -37 84q-27 27 -30 37q-4 20 14 26q18 8 31 -18q4 -8 36 -49q18 -23 50 -27q25 -4 39 2 q22 4 20 6q4 -6 -16.5 -17t-42.5 -11q-18 0 -47 16q8 -23 8 -59q0 -98 -49 -205q-45 -98 -121 -180q-82 -88 -131 -78t-49 98zM246 655q53 29 112 101q33 39 52 39q18 -1 18 -17q0 -18 -31.5 -48t-79 -54.5t-71.5 -20.5z" />
<glyph unicode="&#xf4;" horiz-adv-x="366" d="M-20 96q0 66 30 158q25 74 85.5 153.5t115.5 112.5q25 20 33 12q-2 2 -25 -24q-129 -141 -184 -336q-16 -59 -17 -96q0 -45 23 -53q43 -16 124 93t122 261q18 63 18 94q0 49 -37 84q-27 27 -30 37q-4 20 14 26q18 8 31 -18q4 -8 36 -49q18 -23 50 -27q25 -4 39 2 q22 4 20 6q4 -6 -16.5 -17t-42.5 -11q-18 0 -47 16q8 -23 8 -59q0 -98 -49 -205q-45 -98 -121 -180q-82 -88 -131 -78t-49 98zM193 662q-6 6 8 10q84 55 168 121q12 12 16 12t8 -19q13 -59 31 -118q2 -10 -4 -11q-4 0 -12 9q-25 37 -39 73q-78 -49 -162 -77q-12 -4 -14 0z " />
<glyph unicode="&#xf5;" horiz-adv-x="366" d="M-20 96q0 66 30 158q25 74 85.5 153.5t115.5 112.5q25 20 33 12q-2 2 -25 -24q-129 -141 -184 -336q-16 -59 -17 -96q0 -45 23 -53q43 -16 124 93t122 261q18 63 18 94q0 49 -37 84q-27 27 -30 37q-4 20 14 26q18 8 31 -18q4 -8 36 -49q18 -23 50 -27q25 -4 39 2 q22 4 20 6q4 -6 -16.5 -17t-42.5 -11q-18 0 -47 16q8 -23 8 -59q0 -98 -49 -205q-45 -98 -121 -180q-82 -88 -131 -78t-49 98zM184 670q-14 0 15.5 43t76.5 41q20 -2 54.5 -19.5t50.5 -19.5q33 -2 57 30q4 14 13 11q4 -2 4 -6q0 -23 -35 -51.5t-58 -26.5q-20 2 -55 19.5 t-49 19.5q-12 0 -59 -33q-10 -10 -15 -8z" />
<glyph unicode="&#xf6;" horiz-adv-x="366" d="M-20 96q0 66 30 158q25 74 85.5 153.5t115.5 112.5q25 20 33 12q-2 2 -25 -24q-129 -141 -184 -336q-16 -59 -17 -96q0 -45 23 -53q43 -16 124 93t122 261q18 63 18 94q0 49 -37 84q-27 27 -30 37q-4 20 14 26q18 8 31 -18q4 -8 36 -49q18 -23 50 -27q25 -4 39 2 q22 4 20 6q4 -6 -16.5 -17t-42.5 -11q-18 0 -47 16q8 -23 8 -59q0 -98 -49 -205q-45 -98 -121 -180q-82 -88 -131 -78t-49 98zM207 707q0 35 35 34q34 1 34 -34t-34 -35q-35 0 -35 35zM352 707q0 35 35 34q35 1 35 -34t-35 -35t-35 35z" />
<glyph unicode="&#xf7;" horiz-adv-x="1124" />
<glyph unicode="&#xf8;" horiz-adv-x="366" d="M-72 -88l62 102q-23 27 -23 80q0 66 33 160q25 72 86 152q57 74 111.5 109.5t58.5 23.5q0 -2 -14 -11q-20 -12 -37 -30q-129 -139 -180 -326q-23 -82 -15 -123q39 68 129 221q53 88 150 242q-2 8 -15 43l-6 16q8 4 25 -16q8 -8 12 -16l66 110l4 -18l-64 -107 q10 -33 11 -71q0 -84 -52 -197q-45 -98 -120 -180q-82 -88 -132 -78l-18 6l-68 -113zM16 33q8 -8 15 -10q45 -16 125 93t120 261q21 74 15 115l-133 -230q-49 -84 -142 -229z" />
<glyph unicode="&#xf9;" horiz-adv-x="440" d="M-18 59q2 68 73 238q31 76 117 227q-12 -6 -25 -6q-37 0 -36 8q0 -6 39.5 8.5t64.5 30.5q8 4 12 0q4 -2 0 -8l-4 -12q-74 -135 -121 -248q-53 -129 -69 -195q-12 -53 8 -61q20 -6 84 61q53 55 135 199q8 12 12 27q33 84 80 184q29 61 78 86q14 6 16 4t-8 -20 q-66 -102 -135 -289q-25 -72 -80 -211q16 16 60 53q27 25 55 41q23 12 24 6q4 -6 -11 -15t-75 -61q-27 -25 -108 -116q-2 -8 -4 -17q-4 -14 -12 -12q-20 4 4 41q29 82 84 236q-47 -82 -101 -142q-78 -86 -119 -86t-38 49zM256 778q0 16 18 17q18 0 52 -39q59 -72 112 -101 q-25 -4 -72 20.5t-75 51.5q-35 33 -35 51z" />
<glyph unicode="&#xfa;" horiz-adv-x="440" d="M-18 59q2 68 73 238q31 76 117 227q-12 -6 -25 -6q-37 0 -36 8q0 -6 39.5 8.5t64.5 30.5q8 4 12 0q4 -2 0 -8l-4 -12q-74 -135 -121 -248q-53 -129 -69 -195q-12 -53 8 -61q20 -6 84 61q53 55 135 199q8 12 12 27q33 84 80 184q29 61 78 86q14 6 16 4t-8 -20 q-66 -102 -135 -289q-25 -72 -80 -211q16 16 60 53q27 25 55 41q23 12 24 6q4 -6 -11 -15t-75 -61q-27 -25 -108 -116q-2 -8 -4 -17q-4 -14 -12 -12q-20 4 4 41q29 82 84 236q-47 -82 -101 -142q-78 -86 -119 -86t-38 49zM272 655q53 29 113 101q33 39 51 39q19 -1 19 -17 q0 -18 -32 -48t-79 -54.5t-72 -20.5z" />
<glyph unicode="&#xfb;" horiz-adv-x="440" d="M-18 59q2 68 73 238q31 76 117 227q-12 -6 -25 -6q-37 0 -36 8q0 -6 39.5 8.5t64.5 30.5q8 4 12 0q4 -2 0 -8l-4 -12q-74 -135 -121 -248q-53 -129 -69 -195q-12 -53 8 -61q20 -6 84 61q53 55 135 199q8 12 12 27q33 84 80 184q29 61 78 86q14 6 16 4t-8 -20 q-66 -102 -135 -289q-25 -72 -80 -211q16 16 60 53q27 25 55 41q23 12 24 6q4 -6 -11 -15t-75 -61q-27 -25 -108 -116q-2 -8 -4 -17q-4 -14 -12 -12q-20 4 4 41q29 82 84 236q-47 -82 -101 -142q-78 -86 -119 -86t-38 49zM199 657q-6 6 8 11q84 55 168 120q12 12 16 13 q4 0 8 -19q13 -59 31 -118q2 -10 -4 -11q-4 0 -12 9q-25 37 -39 73q-78 -49 -162 -78q-12 -4 -14 0z" />
<glyph unicode="&#xfc;" horiz-adv-x="440" d="M-18 59q2 68 73 238q31 76 117 227q-12 -6 -25 -6q-37 0 -36 8q0 -6 39.5 8.5t64.5 30.5q8 4 12 0q4 -2 0 -8l-4 -12q-74 -135 -121 -248q-53 -129 -69 -195q-12 -53 8 -61q20 -6 84 61q53 55 135 199q8 12 12 27q33 84 80 184q29 61 78 86q14 6 16 4t-8 -20 q-66 -102 -135 -289q-25 -72 -80 -211q16 16 60 53q27 25 55 41q23 12 24 6q4 -6 -11 -15t-75 -61q-27 -25 -108 -116q-2 -8 -4 -17q-4 -14 -12 -12q-20 4 4 41q29 82 84 236q-47 -82 -101 -142q-78 -86 -119 -86t-38 49zM231 707q0 35 35 34q35 1 35 -34t-35 -35t-35 35z M377 707q0 35 35 34q34 1 34 -34t-34 -35q-35 0 -35 35z" />
<glyph unicode="&#xfd;" horiz-adv-x="452" d="M-674 -557l19 -14q31 -20 98 -21q299 0 598 383q137 178 266 483q-55 -82 -158.5 -181t-114.5 -113.5t-26 -12.5q-8 4 -2 29q43 86 62 147q55 180 59 301q4 80 -41 80q-6 0 -31.5 -11t-27.5 -9q-6 8 28 28q43 25 72 25q57 0 49 -106q-10 -143 -76 -316q-25 -63 -59 -127 q68 70 188 199q123 145 191 348q4 14 6 33q0 12 4 12q10 0 12 -33q0 -32 -8 -63q-29 -109 -102 -275q-131 -301 -258 -456q-145 -178 -314 -285q-174 -111 -323 -111q-53 0 -86 27t-25 39zM242 655q53 29 112 101q33 39 52 39q18 -1 18 -17q0 -18 -32 -48t-79 -54.5 t-71 -20.5z" />
<glyph unicode="&#xfe;" horiz-adv-x="464" d="M-328 -672q-6 4 6 60q29 127 74 227q86 199 189 348q27 70 94 254q76 221 139 367q137 311 270 434q37 33 62 33q4 0 6 -2q0 -2 -10 -9q-18 -10 -37 -28q-45 -45 -117 -170q-80 -133 -139 -275q-72 -170 -182 -477q90 162 188 305q123 182 188 176q29 -2 23 -45 q-18 -143 -127 -379q20 2 43 9q31 8 33 6q0 -4 -33 -17.5t-53 -17.5q-20 -33 -84 -125q-16 -25 -31 -25q-27 0 -22 54q6 29 14 94l8 6q55 0 86 10q29 66 72 205q39 129 43 193q-63 -25 -260 -338q-72 -113 -138 -267q-47 -119 -141 -331q-70 -147 -123 -234q-27 -43 -41 -41 zM-295 -604q43 76 100 205q19 41 119 303q-68 -104 -153 -297q-41 -92 -66 -211zM180 104q0 -45 8 -86q25 25 60 101q-8 -2 -33 -6t-35 -9z" />
<glyph unicode="&#xff;" horiz-adv-x="452" d="M-674 -557l19 -14q31 -20 98 -21q299 0 598 383q137 178 266 483q-55 -82 -158.5 -181t-114.5 -113.5t-26 -12.5q-8 4 -2 29q43 86 62 147q55 180 59 301q4 80 -41 80q-6 0 -31.5 -11t-27.5 -9q-6 8 28 28q43 25 72 25q57 0 49 -106q-10 -143 -76 -316q-25 -63 -59 -127 q68 70 188 199q123 145 191 348q4 14 6 33q0 12 4 12q10 0 12 -33q0 -32 -8 -63q-29 -109 -102 -275q-131 -301 -258 -456q-145 -178 -314 -285q-174 -111 -323 -111q-53 0 -86 27t-25 39zM193 707q0 35 34 34q35 1 35 -34t-35 -35t-34 35zM338 707q0 35 35 34q35 1 35 -34 t-35 -35t-35 35z" />
<glyph unicode="&#x152;" horiz-adv-x="1499" d="M74 197q-6 283 116 508q141 260 414 421q88 53 228.5 89t277.5 36q84 0 129 -4q-14 45 -51 96q-8 10 -4 15q6 6 18 -8q47 -57 64 -103q80 -8 264 -41q209 -53 344 -149q37 -27 24 -35q2 2 -26 18q-156 92 -383 144q-96 23 -215 37q20 -78 20 -156q0 -244 -71 -455 q106 -27 163 -37q80 -14 234 -30q18 0 16 -6q-2 -8 -34 -9q-203 0 -392 45q-57 -143 -135 -268q-72 -115 -176 -213q43 -29 139 -96q385 -272 635 -272q170 0 244 126q8 19 14 17t-6 -29q-20 -49 -74 -90q-78 -59 -186 -59q-274 0 -645 264l-154 108q-229 -201 -452 -200 q-154 0 -245 89t-95 247zM109 193q12 -311 301 -312q213 0 424 205q-147 104 -158 113q-18 12 -60.5 31.5t-64.5 5.5q-8 -4 -8 -21q0 -35 24 -80q27 -51 68 -80q-113 47 -113 146q0 35 21 49q41 29 86 14q70 -25 235 -145q86 92 160 211q82 133 133 256q-31 10 -75 25.5 t-31 37.5q6 10 14 8q31 -10 59 -20q8 -2 47 -14q87 217 95 442q2 66 -19 158q-86 6 -141 6q-281 0 -465 -113q-242 -147 -399 -436q-143 -262 -133 -487z" />
<glyph unicode="&#x153;" horiz-adv-x="534" d="M-33 98q0 66 33 156q27 72 84 149.5t112.5 113.5t59.5 22q0 -2 -14 -11q-20 -12 -37 -30q-129 -139 -180 -326q-20 -70 -21 -102q0 -39 27 -47q47 -14 121 83q80 106 124 271q18 70 15 123q-2 14 -17 55l-6 16q8 4 25 -16q4 -4 16.5 -38t12.5 -68q0 -20 -5 -41 q100 158 218 157q36 0 36 -33q0 -37 -34 -69q-59 -55 -119 -47q-25 2 -47 16q-31 -43 -52 -86q-47 -100 -73 -203q-27 -104 12 -118q25 -8 64.5 26.5t71.5 92t44 120.5q12 18 13 19q4 0 4 -17q-4 -59 -39 -125q-88 -160 -172 -147q-47 6 -47 92q0 25 4 53 q-113 -160 -183 -141q-51 14 -51 100zM381 444q23 -12 43 -12q39 -2 71.5 28.5t32.5 61.5q0 20 -22 21q-61 0 -125 -99z" />
<glyph unicode="&#x178;" horiz-adv-x="1341" d="M-133 -649q0 4 2 6q-4 -4 31 -23q45 -25 137 -24q350 0 653 297q295 289 576 889q51 109 157 342q-211 -358 -514 -625q-268 -233 -446 -289q-53 -16 -76 0q-31 23 2 92q12 23 153.5 246t213.5 369q162 332 149 526q-12 197 -211 205q-174 6 -356 -109 q-143 -90 -242 -215q-115 -143 -108 -266q4 -90 94 -94q59 -2 135 33q27 12 27 10q4 -8 -23 -23q-74 -39 -139 -39q-109 0 -115 111q-6 137 101 285q90 127 217 205q209 129 411 120q129 -4 200 -88t67 -215q-4 -201 -152 -475q-78 -143 -356 -565q-43 -63 -31 -82 q14 -23 74 4q162 70 403 281q309 270 545 678q23 80 76 180q23 43 39 35q20 -4 8 -39q-25 -68 -96 -181q-86 -262 -185 -479q-236 -514 -577 -840q-352 -334 -682 -333q-74 0 -123 37q-39 29 -39 53zM1194 1362q0 35 35 35t35 -35t-35 -35t-35 35zM1339 1362q0 35 35 35 t35 -35t-35 -35t-35 35z" />
<glyph unicode="&#x2c6;" horiz-adv-x="512" d="M348 662q-6 6 8 10q84 55 168 121q12 12 17 12q4 0 8 -19q13 -59 31 -118q2 -10 -5 -11q-4 0 -12 9q-25 37 -39 73q-78 -49 -162 -77q-12 -4 -14 0z" />
<glyph unicode="&#x2dc;" horiz-adv-x="512" d="M348 670q-14 0 15.5 43t76.5 41q20 -2 54 -19.5t51 -19.5q33 -2 57 30q4 14 12 11q4 -2 4 -6q0 -23 -34.5 -51.5t-57.5 -26.5q-20 2 -55 19.5t-49 19.5q-12 0 -60 -33q-10 -10 -14 -8z" />
<glyph unicode="&#x2000;" horiz-adv-x="832" />
<glyph unicode="&#x2001;" horiz-adv-x="1665" />
<glyph unicode="&#x2002;" horiz-adv-x="832" />
<glyph unicode="&#x2003;" horiz-adv-x="1665" />
<glyph unicode="&#x2004;" horiz-adv-x="555" />
<glyph unicode="&#x2005;" horiz-adv-x="416" />
<glyph unicode="&#x2006;" horiz-adv-x="277" />
<glyph unicode="&#x2007;" horiz-adv-x="277" />
<glyph unicode="&#x2008;" horiz-adv-x="208" />
<glyph unicode="&#x2009;" horiz-adv-x="333" />
<glyph unicode="&#x200a;" horiz-adv-x="92" />
<glyph unicode="&#x2010;" horiz-adv-x="319" d="M2 317q57 16 174 43q82 17 90 5q16 -27 -65 -46q-143 -33 -199 -2z" />
<glyph unicode="&#x2011;" horiz-adv-x="319" d="M2 317q57 16 174 43q82 17 90 5q16 -27 -65 -46q-143 -33 -199 -2z" />
<glyph unicode="&#x2012;" horiz-adv-x="319" d="M2 317q57 16 174 43q82 17 90 5q16 -27 -65 -46q-143 -33 -199 -2z" />
<glyph unicode="&#x2013;" horiz-adv-x="614" d="M37 322q2 29 192 38q84 4 193.5 -12t150.5 -45q-121 16 -374 12q-2 0 -60 -2q-45 -2 -69 -2q-33 2 -33 11z" />
<glyph unicode="&#x2014;" horiz-adv-x="1228" d="M37 322q6 39 514 38q147 0 344 -14q240 -16 293 -43q-131 12 -545 12q-150 0 -348 -2q-158 -2 -199 -2q-61 2 -59 11z" />
<glyph unicode="&#x2018;" horiz-adv-x="176" d="M166 655q12 29 59 69t72 50q-59 -72 -80 -129q-18 -39 -35 -35q-37 10 -16 45z" />
<glyph unicode="&#x2019;" horiz-adv-x="176" d="M115 606q59 72 80 129q18 39 34 35q37 -10 17 -45q-12 -29 -59.5 -69t-71.5 -50z" />
<glyph unicode="&#x201a;" horiz-adv-x="219" d="M-98 -90q57 66 80 127q18 39 34 35q37 -10 17 -45q-12 -29 -58.5 -68t-72.5 -49z" />
<glyph unicode="&#x201c;" horiz-adv-x="299" d="M166 655q12 29 59 69t72 50q-59 -72 -80 -129q-18 -39 -35 -35q-37 10 -16 45zM289 655q12 29 59 69t72 50q-59 -72 -80 -129q-18 -39 -35 -35q-37 10 -16 45z" />
<glyph unicode="&#x201d;" horiz-adv-x="299" d="M115 606q59 72 80 129q18 39 34 35q37 -10 17 -45q-12 -29 -59.5 -69t-71.5 -50zM238 606q59 72 79 129q18 39 35 35q37 -10 17 -45q-12 -29 -59.5 -69t-71.5 -50z" />
<glyph unicode="&#x201e;" horiz-adv-x="342" d="M-98 -90q57 66 80 127q18 39 34 35q37 -10 17 -45q-12 -29 -58.5 -68t-72.5 -49zM25 -90q57 66 79 127q18 39 35 35q37 -10 17 -45q-12 -29 -58.5 -68t-72.5 -49z" />
<glyph unicode="&#x2022;" horiz-adv-x="307" d="M66 340q0 37 25.5 62.5t62.5 25.5t62.5 -25.5t25.5 -62.5t-26 -62.5t-62 -25.5q-37 0 -62.5 25.5t-25.5 62.5z" />
<glyph unicode="&#x2026;" horiz-adv-x="581" d="M-37 27q0 37 39 41q35 4 35 -33q-4 -35 -39 -39q-16 -2 -26.5 7t-8.5 24zM158 27q0 37 39 41q34 4 34 -33q-4 -35 -38 -39q-16 -2 -26.5 7t-8.5 24zM352 27q0 37 39 41q35 4 35 -33q-4 -35 -39 -39q-16 -2 -26.5 7t-8.5 24z" />
<glyph unicode="&#x202f;" horiz-adv-x="333" />
<glyph unicode="&#x2039;" horiz-adv-x="303" d="M12 291q106 59 244 178q19 14 23 8t-17 -28q-100 -109 -186 -168q33 -100 41 -166q4 -37 -4 -37q-10 0 -17 24q-27 88 -84 189z" />
<glyph unicode="&#x203a;" horiz-adv-x="303" d="M-53 88q-4 6 16 29q100 109 187 168q-31 94 -41 166q-4 37 4 36q10 0 16 -24q25 -87 84 -189q-106 -59 -244 -178q-18 -14 -22 -8z" />
<glyph unicode="&#x205f;" horiz-adv-x="416" />
<glyph unicode="&#x2122;" horiz-adv-x="1024" d="M190 879l5 65q2 27 14 39q18 -6 31 -6h245q6 0 31 6q12 -12 14 -39l5 -65l-17 -2q-12 57 -30.5 68t-96.5 11q-2 -51 -2 -79v-170q0 -76 64 -78v-15q-16 0 -47 2h-47.5h-45.5q-27 -2 -41 -2v15q31 2 46.5 15t15.5 63v249q-78 0 -96.5 -11t-30.5 -68zM543 614v15 q47 2 57 73q16 117 23 205q2 35 -9.5 44.5t-46.5 15.5v14h33q20 -2 33 -2q10 0 26 2h25q16 -41 66 -156q18 -41 59 -133l125 289h29q18 -2 26 -2q10 0 29 2h29v-14q-57 -2 -50 -64q4 -78 17 -215q4 -53 53 -59v-15q-12 0 -39 2h-43h-45q-27 -2 -41 -2v15q33 2 43 14t10 47 q-2 59 -16 240l-62 -144q-20 -49 -69 -165l-21 -7q-6 14 -71 164q-33 72 -64 142q-8 -82 -18 -220q-2 -68 47 -71v-15q-6 0 -29 2h-37h-37q-23 -2 -32 -2z" />
<glyph unicode="&#xe000;" horiz-adv-x="573" d="M0 0v573h573v-573h-573z" />
</font>
</defs>
</svg>
